<svg width="251" height="172" viewBox="0 0 251 172" fill="none" xmlns="http://www.w3.org/2000/svg">
<rect y="0.49707" width="251" height="171.195" rx="20" fill="black"/>
<path fill-rule="evenodd" clip-rule="evenodd" d="M238.791 81.8861C238.791 85.9036 235.533 89.1604 231.513 89.1604L102.256 89.1604C98.2364 89.1604 94.9779 85.9036 94.9779 81.8861L94.9779 20.4911C94.9779 16.4736 98.2364 13.2168 102.256 13.2168L231.513 13.2168C235.533 13.2168 238.791 16.4736 238.791 20.4911L238.791 81.8861ZM226.855 82.6135C226.855 79.962 229.006 77.8125 231.659 77.8125C234.312 77.8125 236.462 79.962 236.462 82.6135C236.462 85.2651 234.312 87.4146 231.659 87.4146C229.006 87.4146 226.855 85.2651 226.855 82.6135ZM231.659 15.6901C229.006 15.6901 226.855 17.8396 226.855 20.4911C226.855 23.1426 229.006 25.2921 231.659 25.2921C234.312 25.2921 236.462 23.1426 236.462 20.4911C236.462 17.8396 234.312 15.6901 231.659 15.6901ZM97.4524 20.4911C97.4524 17.8396 99.603 15.6901 102.256 15.6901C104.909 15.6901 107.059 17.8396 107.059 20.4911C107.059 23.1426 104.909 25.2921 102.256 25.2921C99.603 25.2921 97.4524 23.1426 97.4524 20.4911ZM102.256 77.8125C99.603 77.8125 97.4524 79.962 97.4524 82.6135C97.4524 85.2651 99.603 87.4146 102.256 87.4146C104.909 87.4146 107.059 85.2651 107.059 82.6135C107.059 79.962 104.909 77.8125 102.256 77.8125Z" fill="#595959"/>
<path d="M216.589 17.7577C216.589 16.3643 217.775 15.2347 219.238 15.2347C220.701 15.2347 221.887 16.3643 221.887 17.7577C221.887 19.1512 220.701 20.2808 219.238 20.2808C217.775 20.2808 216.589 19.1512 216.589 17.7577Z" fill="#C4C4C4"/>
<path d="M208.767 17.7585C208.767 16.365 209.897 15.2354 211.29 15.2354C212.684 15.2354 213.813 16.365 213.813 17.7585C213.813 19.1519 212.684 20.2815 211.29 20.2815C209.897 20.2815 208.767 19.1519 208.767 17.7585Z" fill="#C4C4C4"/>
<path d="M200.946 17.7585C200.946 16.365 202.075 15.2354 203.469 15.2354C204.862 15.2354 205.992 16.365 205.992 17.7585C205.992 19.1519 204.862 20.2815 203.469 20.2815C202.075 20.2815 200.946 19.1519 200.946 17.7585Z" fill="#C4C4C4"/>
<path d="M193.377 17.7585C193.377 16.365 194.506 15.2354 195.9 15.2354C197.293 15.2354 198.423 16.365 198.423 17.7585C198.423 19.1519 197.293 20.2815 195.9 20.2815C194.506 20.2815 193.377 19.1519 193.377 17.7585Z" fill="#C4C4C4"/>
<path d="M185.807 17.7585C185.807 16.365 186.937 15.2354 188.33 15.2354C189.724 15.2354 190.853 16.365 190.853 17.7585C190.853 19.1519 189.724 20.2815 188.33 20.2815C186.937 20.2815 185.807 19.1519 185.807 17.7585Z" fill="#C4C4C4"/>
<path d="M178.238 17.7585C178.238 16.365 179.368 15.2354 180.761 15.2354C182.155 15.2354 183.284 16.365 183.284 17.7585C183.284 19.1519 182.155 20.2815 180.761 20.2815C179.368 20.2815 178.238 19.1519 178.238 17.7585Z" fill="#C4C4C4"/>
<path d="M170.669 17.7585C170.669 16.365 171.799 15.2354 173.192 15.2354C174.586 15.2354 175.715 16.365 175.715 17.7585C175.715 19.1519 174.586 20.2815 173.192 20.2815C171.799 20.2815 170.669 19.1519 170.669 17.7585Z" fill="#C4C4C4"/>
<path d="M163.1 17.7585C163.1 16.365 164.23 15.2354 165.623 15.2354C167.017 15.2354 168.146 16.365 168.146 17.7585C168.146 19.1519 167.017 20.2815 165.623 20.2815C164.23 20.2815 163.1 19.1519 163.1 17.7585Z" fill="#C4C4C4"/>
<path d="M155.531 17.7585C155.531 16.365 156.661 15.2354 158.054 15.2354C159.447 15.2354 160.577 16.365 160.577 17.7585C160.577 19.1519 159.447 20.2815 158.054 20.2815C156.661 20.2815 155.531 19.1519 155.531 17.7585Z" fill="#C4C4C4"/>
<path d="M147.962 17.7585C147.962 16.365 149.091 15.2354 150.485 15.2354C151.878 15.2354 153.008 16.365 153.008 17.7585C153.008 19.1519 151.878 20.2815 150.485 20.2815C149.091 20.2815 147.962 19.1519 147.962 17.7585Z" fill="#C4C4C4"/>
<path d="M140.393 17.7585C140.393 16.365 141.522 15.2354 142.916 15.2354C144.309 15.2354 145.439 16.365 145.439 17.7585C145.439 19.1519 144.309 20.2815 142.916 20.2815C141.522 20.2815 140.393 19.1519 140.393 17.7585Z" fill="#C4C4C4"/>
<path d="M132.824 17.7585C132.824 16.365 133.953 15.2354 135.347 15.2354C136.74 15.2354 137.87 16.365 137.87 17.7585C137.87 19.1519 136.74 20.2815 135.347 20.2815C133.953 20.2815 132.824 19.1519 132.824 17.7585Z" fill="#C4C4C4"/>
<path d="M125.254 17.7585C125.254 16.365 126.384 15.2354 127.777 15.2354C129.171 15.2354 130.3 16.365 130.3 17.7585C130.3 19.1519 129.171 20.2815 127.777 20.2815C126.384 20.2815 125.254 19.1519 125.254 17.7585Z" fill="#C4C4C4"/>
<path d="M117.685 17.7585C117.685 16.365 118.815 15.2354 120.208 15.2354C121.602 15.2354 122.731 16.365 122.731 17.7585C122.731 19.1519 121.602 20.2815 120.208 20.2815C118.815 20.2815 117.685 19.1519 117.685 17.7585Z" fill="#C4C4C4"/>
<path d="M110.116 17.7585C110.116 16.365 111.246 15.2354 112.639 15.2354C114.033 15.2354 115.162 16.365 115.162 17.7585C115.162 19.1519 114.033 20.2815 112.639 20.2815C111.246 20.2815 110.116 19.1519 110.116 17.7585Z" fill="#C4C4C4"/>
<path d="M216.589 85.3749C216.589 83.9815 217.775 82.8519 219.238 82.8519C220.701 82.8519 221.887 83.9815 221.887 85.3749C221.887 86.7683 220.701 87.8979 219.238 87.8979C217.775 87.8979 216.589 86.7683 216.589 85.3749Z" fill="#C4C4C4"/>
<path d="M208.767 85.3764C208.767 83.9829 209.897 82.8533 211.29 82.8533C212.684 82.8533 213.813 83.9829 213.813 85.3764C213.813 86.7698 212.684 87.8994 211.29 87.8994C209.897 87.8994 208.767 86.7698 208.767 85.3764Z" fill="#C4C4C4"/>
<path d="M200.946 85.3764C200.946 83.9829 202.075 82.8533 203.469 82.8533C204.862 82.8533 205.992 83.9829 205.992 85.3764C205.992 86.7698 204.862 87.8994 203.469 87.8994C202.075 87.8994 200.946 86.7698 200.946 85.3764Z" fill="#C4C4C4"/>
<path d="M193.377 85.3764C193.377 83.9829 194.506 82.8533 195.9 82.8533C197.293 82.8533 198.423 83.9829 198.423 85.3764C198.423 86.7698 197.293 87.8994 195.9 87.8994C194.506 87.8994 193.377 86.7698 193.377 85.3764Z" fill="#C4C4C4"/>
<path d="M185.807 85.3764C185.807 83.9829 186.937 82.8533 188.33 82.8533C189.724 82.8533 190.853 83.9829 190.853 85.3764C190.853 86.7698 189.724 87.8994 188.33 87.8994C186.937 87.8994 185.807 86.7698 185.807 85.3764Z" fill="#C4C4C4"/>
<path d="M178.238 85.3764C178.238 83.9829 179.368 82.8533 180.761 82.8533C182.155 82.8533 183.284 83.9829 183.284 85.3764C183.284 86.7698 182.155 87.8994 180.761 87.8994C179.368 87.8994 178.238 86.7698 178.238 85.3764Z" fill="#C4C4C4"/>
<path d="M170.669 85.3764C170.669 83.9829 171.799 82.8533 173.192 82.8533C174.586 82.8533 175.715 83.9829 175.715 85.3764C175.715 86.7698 174.586 87.8994 173.192 87.8994C171.799 87.8994 170.669 86.7698 170.669 85.3764Z" fill="#C4C4C4"/>
<path d="M163.1 85.3764C163.1 83.9829 164.23 82.8533 165.623 82.8533C167.017 82.8533 168.146 83.9829 168.146 85.3764C168.146 86.7698 167.017 87.8994 165.623 87.8994C164.23 87.8994 163.1 86.7698 163.1 85.3764Z" fill="#C4C4C4"/>
<path d="M155.531 85.3764C155.531 83.9829 156.661 82.8533 158.054 82.8533C159.447 82.8533 160.577 83.9829 160.577 85.3764C160.577 86.7698 159.447 87.8994 158.054 87.8994C156.661 87.8994 155.531 86.7698 155.531 85.3764Z" fill="#C4C4C4"/>
<path d="M147.962 85.3764C147.962 83.9829 149.091 82.8533 150.485 82.8533C151.878 82.8533 153.008 83.9829 153.008 85.3764C153.008 86.7698 151.878 87.8994 150.485 87.8994C149.091 87.8994 147.962 86.7698 147.962 85.3764Z" fill="#C4C4C4"/>
<path d="M140.393 85.3764C140.393 83.9829 141.522 82.8533 142.916 82.8533C144.309 82.8533 145.439 83.9829 145.439 85.3764C145.439 86.7698 144.309 87.8994 142.916 87.8994C141.522 87.8994 140.393 86.7698 140.393 85.3764Z" fill="#C4C4C4"/>
<path d="M132.824 85.3764C132.824 83.9829 133.953 82.8533 135.347 82.8533C136.74 82.8533 137.87 83.9829 137.87 85.3764C137.87 86.7698 136.74 87.8994 135.347 87.8994C133.953 87.8994 132.824 86.7698 132.824 85.3764Z" fill="#C4C4C4"/>
<path d="M125.254 85.3764C125.254 83.9829 126.384 82.8533 127.777 82.8533C129.171 82.8533 130.3 83.9829 130.3 85.3764C130.3 86.7698 129.171 87.8994 127.777 87.8994C126.384 87.8994 125.254 86.7698 125.254 85.3764Z" fill="#C4C4C4"/>
<path d="M117.685 85.3764C117.685 83.9829 118.815 82.8533 120.208 82.8533C121.602 82.8533 122.731 83.9829 122.731 85.3764C122.731 86.7698 121.602 87.8994 120.208 87.8994C118.815 87.8994 117.685 86.7698 117.685 85.3764Z" fill="#C4C4C4"/>
<path d="M110.116 85.3764C110.116 83.9829 111.246 82.8533 112.639 82.8533C114.033 82.8533 115.162 83.9829 115.162 85.3764C115.162 86.7698 114.033 87.8994 112.639 87.8994C111.246 87.8994 110.116 86.7698 110.116 85.3764Z" fill="#C4C4C4"/>
<path fill-rule="evenodd" clip-rule="evenodd" d="M223.883 61.9119L237.552 61.9119C237.958 61.9119 238.287 61.5875 238.287 61.1873L238.287 41.1905C238.287 40.7904 237.958 40.466 237.552 40.466L223.883 40.466C223.477 40.466 223.148 40.7904 223.148 41.1905L223.148 43.2916C223.148 43.6918 223.477 44.0162 223.883 44.0162L225.206 44.0162C225.612 44.0162 225.941 44.3405 225.941 44.7407L225.941 45.4652C225.941 45.8653 225.612 46.1897 225.206 46.1897L224.471 46.1897C224.065 46.1897 223.736 46.5141 223.736 46.9143L223.736 48.6893C223.736 48.9894 223.983 49.2327 224.287 49.2327C224.592 49.2327 224.839 49.476 224.839 49.7761L224.839 52.964C224.839 53.2641 224.592 53.5074 224.287 53.5074C223.983 53.5074 223.736 53.7507 223.736 54.0508L223.736 55.681C223.736 56.0811 224.065 56.4055 224.471 56.4055L225.206 56.4055C225.612 56.4055 225.941 56.7299 225.941 57.13L225.941 57.7821C225.941 58.1822 225.612 58.5066 225.206 58.5066L223.883 58.5066C223.477 58.5066 223.148 58.831 223.148 59.2311L223.148 61.1873C223.148 61.5875 223.477 61.9119 223.883 61.9119ZM235.347 43.4365L235.347 45.8275C235.347 46.1476 235.084 46.4071 234.759 46.4071L234.576 46.4071C234.352 46.4071 234.171 46.2287 234.171 46.0086C234.171 45.7885 233.99 45.6101 233.767 45.6101L231.526 45.6101C231.12 45.6101 230.791 45.2857 230.791 44.8856L230.791 44.5233C230.791 44.1232 231.12 43.7988 231.526 43.7988L233.694 43.7988C233.958 43.7988 234.171 43.588 234.171 43.3279C234.171 43.0678 234.385 42.8569 234.649 42.8569L234.759 42.8569C235.084 42.8569 235.347 43.1164 235.347 43.4365ZM235.347 59.0138L235.347 56.6229C235.347 56.3027 235.084 56.0432 234.759 56.0432L234.649 56.0432C234.385 56.0432 234.171 56.2541 234.171 56.5142C234.171 56.7743 233.958 56.9851 233.694 56.9851L231.526 56.9851C231.12 56.9851 230.791 57.3095 230.791 57.7096L230.791 58.0719C230.791 58.472 231.12 58.7964 231.526 58.7964L233.767 58.7964C233.99 58.7964 234.171 58.9748 234.171 59.1949C234.171 59.415 234.352 59.5934 234.576 59.5934L234.759 59.5934C235.084 59.5934 235.347 59.3339 235.347 59.0138Z" fill="#C4C4C4"/>
<path d="M235.764 36.7142C235.764 37.1139 235.439 37.438 235.039 37.438L223.874 37.438C223.473 37.438 223.149 37.1139 223.149 36.7142L223.149 29.3312C223.149 28.9314 223.473 28.6073 223.874 28.6073L235.039 28.6073C235.439 28.6073 235.764 28.9314 235.764 29.3312L235.764 36.7142Z" fill="#C4C4C4"/>
<path d="M226.681 33.0228C226.681 31.4204 227.98 30.1213 229.582 30.1213C231.185 30.1213 232.484 31.4204 232.484 33.0228C232.484 34.6253 231.185 35.9243 229.582 35.9243C227.98 35.9243 226.681 34.6253 226.681 33.0228Z" fill="#393939"/>
<path d="M235.764 73.0462C235.764 73.446 235.439 73.77 235.039 73.77L223.874 73.77C223.473 73.77 223.149 73.446 223.149 73.0462L223.149 65.6632C223.149 65.2634 223.473 64.9394 223.874 64.9394L235.039 64.9394C235.439 64.9394 235.764 65.2634 235.764 65.6632L235.764 73.0462Z" fill="#C4C4C4"/>
<path d="M226.681 69.3544C226.681 67.7519 227.98 66.4529 229.582 66.4529C231.185 66.4529 232.484 67.7519 232.484 69.3544C232.484 70.9568 231.185 72.2559 229.582 72.2559C227.98 72.2559 226.681 70.9568 226.681 69.3544Z" fill="#393939"/>
<path d="M212.047 66.7053L209.272 66.7053L209.272 65.1915L212.047 65.1915L212.047 66.7053Z" fill="#C4C4C4"/>
<path d="M211.542 66.7053L210.029 66.7053L210.029 65.1915L211.542 65.1915L211.542 66.7053Z" fill="#727171"/>
<path d="M213.308 66.9294C213.308 67.0842 213.167 67.2097 212.993 67.2097L212.362 67.2097C212.188 67.2097 212.047 67.0842 212.047 66.9294L212.047 64.967C212.047 64.8122 212.188 64.6867 212.362 64.6867L212.993 64.6867C213.167 64.6867 213.308 64.8122 213.308 64.967L213.308 66.9294Z" fill="#C4C4C4"/>
<path d="M209.272 66.9299C209.272 67.0847 209.131 67.2102 208.956 67.2102L208.326 67.2102C208.151 67.2102 208.01 67.0847 208.01 66.9299L208.01 64.9675C208.01 64.8127 208.151 64.6872 208.326 64.6872L208.956 64.6872C209.131 64.6872 209.272 64.8127 209.272 64.9675L209.272 66.9299Z" fill="#C4C4C4"/>
<path d="M212.047 61.9124L209.272 61.9124L209.272 60.3985L212.047 60.3985L212.047 61.9124Z" fill="#C4C4C4"/>
<path d="M211.542 61.9124L210.029 61.9124L210.029 60.3985L211.542 60.3985L211.542 61.9124Z" fill="#727171"/>
<path d="M213.308 62.1354C213.308 62.2903 213.167 62.4158 212.993 62.4158L212.362 62.4158C212.188 62.4158 212.047 62.2903 212.047 62.1354L212.047 60.1731C212.047 60.0182 212.188 59.8927 212.362 59.8927L212.993 59.8927C213.167 59.8927 213.308 60.0182 213.308 60.1731L213.308 62.1354Z" fill="#C4C4C4"/>
<path d="M209.272 62.1359C209.272 62.2907 209.131 62.4163 208.956 62.4163L208.326 62.4163C208.151 62.4163 208.01 62.2907 208.01 62.1359L208.01 60.1736C208.01 60.0187 208.151 59.8932 208.326 59.8932L208.956 59.8932C209.131 59.8932 209.272 60.0187 209.272 60.1736L209.272 62.1359Z" fill="#C4C4C4"/>
<path d="M196.656 77.0496L193.881 77.0496L193.881 75.5357L196.656 75.5357L196.656 77.0496Z" fill="#C4C4C4"/>
<path d="M195.899 77.0496L194.638 77.0496L194.638 75.5357L195.899 75.5357L195.899 77.0496Z" fill="#727171"/>
<path d="M197.666 77.2453C197.666 77.4156 197.553 77.5537 197.413 77.5537L196.909 77.5537C196.769 77.5537 196.656 77.4156 196.656 77.2453L196.656 75.0867C196.656 74.9164 196.769 74.7784 196.909 74.7784L197.413 74.7784C197.553 74.7784 197.666 74.9164 197.666 75.0867L197.666 77.2453Z" fill="#C4C4C4"/>
<path d="M193.881 77.2461C193.881 77.4164 193.74 77.5544 193.566 77.5544L192.935 77.5544C192.761 77.5544 192.62 77.4164 192.62 77.2461L192.62 75.0875C192.62 74.9172 192.761 74.7791 192.935 74.7791L193.566 74.7791C193.74 74.7791 193.881 74.9172 193.881 75.0875L193.881 77.2461Z" fill="#C4C4C4"/>
<path d="M133.076 78.3115L130.3 78.3115L130.3 77.05L133.076 77.05L133.076 78.3115Z" fill="#C4C4C4"/>
<path d="M132.319 78.3115L131.057 78.3115L131.057 77.05L132.319 77.05L132.319 78.3115Z" fill="#727171"/>
<path d="M134.085 78.7593C134.085 78.9296 133.972 79.0676 133.833 79.0676L133.328 79.0676C133.189 79.0676 133.076 78.9296 133.076 78.7593L133.076 76.6007C133.076 76.4303 133.189 76.2923 133.328 76.2923L133.833 76.2923C133.972 76.2923 134.085 76.4303 134.085 76.6007L134.085 78.7593Z" fill="#C4C4C4"/>
<path d="M130.301 78.76C130.301 78.9303 130.159 79.0684 129.985 79.0684L129.354 79.0684C129.18 79.0684 129.039 78.9303 129.039 78.76L129.039 76.6014C129.039 76.4311 129.18 76.293 129.354 76.293L129.985 76.293C130.159 76.293 130.301 76.4311 130.301 76.6014L130.301 78.76Z" fill="#C4C4C4"/>
<path d="M124.75 78.3115L121.974 78.3115L121.974 76.7977L124.75 76.7977L124.75 78.3115Z" fill="#C4C4C4"/>
<path d="M124.245 78.3115L122.731 78.3115L122.731 76.7977L124.245 76.7977L124.245 78.3115Z" fill="#727171"/>
<path d="M126.011 78.5358C126.011 78.6907 125.87 78.8162 125.696 78.8162L125.065 78.8162C124.891 78.8162 124.75 78.6907 124.75 78.5358L124.75 76.5735C124.75 76.4186 124.891 76.2931 125.065 76.2931L125.696 76.2931C125.87 76.2931 126.011 76.4186 126.011 76.5735L126.011 78.5358Z" fill="#C4C4C4"/>
<path d="M121.974 78.5358C121.974 78.6907 121.833 78.8162 121.659 78.8162L121.028 78.8162C120.854 78.8162 120.713 78.6907 120.713 78.5358L120.713 76.5735C120.713 76.4186 120.854 76.2931 121.028 76.2931L121.659 76.2931C121.833 76.2931 121.974 76.4186 121.974 76.5735L121.974 78.5358Z" fill="#C4C4C4"/>
<path d="M116.424 78.3115L113.648 78.3115L113.648 76.7977L116.424 76.7977L116.424 78.3115Z" fill="#C4C4C4"/>
<path d="M115.919 78.3115L114.405 78.3115L114.405 76.7977L115.919 76.7977L115.919 78.3115Z" fill="#727171"/>
<path d="M117.685 78.5358C117.685 78.6907 117.544 78.8162 117.37 78.8162L116.739 78.8162C116.565 78.8162 116.424 78.6907 116.424 78.5358L116.424 76.5735C116.424 76.4186 116.565 76.2931 116.739 76.2931L117.37 76.2931C117.544 76.2931 117.685 76.4186 117.685 76.5735L117.685 78.5358Z" fill="#C4C4C4"/>
<path d="M113.648 78.5358C113.648 78.6907 113.507 78.8162 113.333 78.8162L112.702 78.8162C112.528 78.8162 112.387 78.6907 112.387 78.5358L112.387 76.5735C112.387 76.4186 112.528 76.2931 112.702 76.2931L113.333 76.2931C113.507 76.2931 113.648 76.4186 113.648 76.5735L113.648 78.5358Z" fill="#C4C4C4"/>
<path d="M196.656 71.7517L193.881 71.7517L193.881 70.4902L196.656 70.4902L196.656 71.7517Z" fill="#C4C4C4"/>
<path d="M195.899 71.7517L194.638 71.7517L194.638 70.4902L195.899 70.4902L195.899 71.7517Z" fill="#727171"/>
<path d="M197.666 72.2004C197.666 72.3707 197.553 72.5088 197.413 72.5088L196.909 72.5088C196.769 72.5088 196.656 72.3707 196.656 72.2004L196.656 70.0418C196.656 69.8715 196.769 69.7334 196.909 69.7334L197.413 69.7334C197.553 69.7334 197.666 69.8715 197.666 70.0418L197.666 72.2004Z" fill="#C4C4C4"/>
<path d="M193.881 72.2004C193.881 72.3707 193.74 72.5088 193.566 72.5088L192.935 72.5088C192.761 72.5088 192.62 72.3707 192.62 72.2004L192.62 70.0418C192.62 69.8715 192.761 69.7334 192.935 69.7334L193.566 69.7334C193.74 69.7334 193.881 69.8715 193.881 70.0418L193.881 72.2004Z" fill="#C4C4C4"/>
<path d="M196.656 66.7053L193.881 66.7053L193.881 65.1915L196.656 65.1915L196.656 66.7053Z" fill="#C4C4C4"/>
<path d="M195.899 66.7053L194.638 66.7053L194.638 65.1915L195.899 65.1915L195.899 66.7053Z" fill="#727171"/>
<path d="M197.666 67.154C197.666 67.3243 197.553 67.4624 197.413 67.4624L196.909 67.4624C196.769 67.4624 196.656 67.3243 196.656 67.154L196.656 64.9954C196.656 64.8251 196.769 64.6871 196.909 64.6871L197.413 64.6871C197.553 64.6871 197.666 64.8251 197.666 64.9954L197.666 67.154Z" fill="#C4C4C4"/>
<path d="M193.881 67.154C193.881 67.3243 193.74 67.4624 193.566 67.4624L192.935 67.4624C192.761 67.4624 192.62 67.3243 192.62 67.154L192.62 64.9954C192.62 64.8251 192.761 64.6871 192.935 64.6871L193.566 64.6871C193.74 64.6871 193.881 64.8251 193.881 64.9954L193.881 67.154Z" fill="#C4C4C4"/>
<path d="M196.656 61.6594L193.881 61.6594L193.881 60.1456L196.656 60.1456L196.656 61.6594Z" fill="#C4C4C4"/>
<path d="M195.899 61.6594L194.638 61.6594L194.638 60.1456L195.899 60.1456L195.899 61.6594Z" fill="#727171"/>
<path d="M197.666 61.8837C197.666 62.0386 197.553 62.1641 197.413 62.1641L196.909 62.1641C196.769 62.1641 196.656 62.0386 196.656 61.8837L196.656 59.9214C196.656 59.7665 196.769 59.641 196.909 59.641L197.413 59.641C197.553 59.641 197.666 59.7665 197.666 59.9214L197.666 61.8837Z" fill="#C4C4C4"/>
<path d="M193.881 61.8837C193.881 62.0386 193.74 62.1641 193.566 62.1641L192.935 62.1641C192.761 62.1641 192.62 62.0386 192.62 61.8837L192.62 59.9214C192.62 59.7665 192.761 59.641 192.935 59.641L193.566 59.641C193.74 59.641 193.881 59.7665 193.881 59.9214L193.881 61.8837Z" fill="#C4C4C4"/>
<path d="M196.656 57.1177L193.881 57.1177L193.881 55.6039L196.656 55.6039L196.656 57.1177Z" fill="#C4C4C4"/>
<path d="M195.899 57.1177L194.638 57.1177L194.638 55.6039L195.899 55.6039L195.899 57.1177Z" fill="#727171"/>
<path d="M197.666 57.3125C197.666 57.4828 197.553 57.6208 197.413 57.6208L196.909 57.6208C196.769 57.6208 196.656 57.4828 196.656 57.3125L196.656 55.1539C196.656 54.9836 196.769 54.8455 196.909 54.8455L197.413 54.8455C197.553 54.8455 197.666 54.9836 197.666 55.1539L197.666 57.3125Z" fill="#C4C4C4"/>
<path d="M193.881 57.3137C193.881 57.484 193.74 57.6221 193.566 57.6221L192.935 57.6221C192.761 57.6221 192.62 57.484 192.62 57.3137L192.62 55.1551C192.62 54.9848 192.761 54.8467 192.935 54.8467L193.566 54.8467C193.74 54.8467 193.881 54.9848 193.881 55.1551L193.881 57.3137Z" fill="#C4C4C4"/>
<path d="M196.656 52.324L193.881 52.324L193.881 50.8101L196.656 50.8101L196.656 52.324Z" fill="#C4C4C4"/>
<path d="M195.899 52.324L194.638 52.324L194.638 50.8101L195.899 50.8101L195.899 52.324Z" fill="#727171"/>
<path d="M197.666 52.52C197.666 52.6903 197.553 52.8284 197.413 52.8284L196.909 52.8284C196.769 52.8284 196.656 52.6903 196.656 52.52L196.656 50.3614C196.656 50.1911 196.769 50.053 196.909 50.053L197.413 50.053C197.553 50.053 197.666 50.1911 197.666 50.3614L197.666 52.52Z" fill="#C4C4C4"/>
<path d="M193.881 52.5205C193.881 52.6908 193.74 52.8289 193.566 52.8289L192.935 52.8289C192.761 52.8289 192.62 52.6908 192.62 52.5205L192.62 50.3619C192.62 50.1916 192.761 50.0535 192.935 50.0535L193.566 50.0535C193.74 50.0535 193.881 50.1916 193.881 50.3619L193.881 52.5205Z" fill="#C4C4C4"/>
<path d="M196.656 47.5303L193.881 47.5303L193.881 46.0164L196.656 46.0164L196.656 47.5303Z" fill="#C4C4C4"/>
<path d="M195.9 47.5303L194.638 47.5303L194.638 46.0164L195.9 46.0164L195.9 47.5303Z" fill="#727171"/>
<path d="M197.666 47.7258C197.666 47.8961 197.553 48.0342 197.413 48.0342L196.909 48.0342C196.769 48.0342 196.656 47.8961 196.656 47.7258L196.656 45.5672C196.656 45.3969 196.769 45.2588 196.909 45.2588L197.413 45.2588C197.553 45.2588 197.666 45.3969 197.666 45.5672L197.666 47.7258Z" fill="#C4C4C4"/>
<path d="M193.881 47.7265C193.881 47.8968 193.74 48.0349 193.566 48.0349L192.935 48.0349C192.761 48.0349 192.62 47.8968 192.62 47.7265L192.62 45.5679C192.62 45.3976 192.761 45.2596 192.935 45.2596L193.566 45.2596C193.74 45.2596 193.881 45.3976 193.881 45.5679L193.881 47.7265Z" fill="#C4C4C4"/>
<path d="M196.656 42.2319L193.881 42.2319L193.881 40.9704L196.656 40.9704L196.656 42.2319Z" fill="#C4C4C4"/>
<path d="M195.9 42.2319L194.638 42.2319L194.638 40.9704L195.9 40.9704L195.9 42.2319Z" fill="#727171"/>
<path d="M197.666 42.6804C197.666 42.8507 197.553 42.9888 197.413 42.9888L196.909 42.9888C196.769 42.9888 196.656 42.8507 196.656 42.6804L196.656 40.5218C196.656 40.3515 196.769 40.2134 196.909 40.2134L197.413 40.2134C197.553 40.2134 197.666 40.3515 197.666 40.5218L197.666 42.6804Z" fill="#C4C4C4"/>
<path d="M193.881 42.6804C193.881 42.8507 193.74 42.9888 193.566 42.9888L192.935 42.9888C192.761 42.9888 192.62 42.8507 192.62 42.6804L192.62 40.5218C192.62 40.3515 192.761 40.2134 192.935 40.2134L193.566 40.2134C193.74 40.2134 193.881 40.3515 193.881 40.5218L193.881 42.6804Z" fill="#C4C4C4"/>
<path d="M196.656 37.438L193.881 37.438L193.881 36.1765L196.656 36.1765L196.656 37.438Z" fill="#C4C4C4"/>
<path d="M195.9 37.438L194.638 37.438L194.638 36.1765L195.9 36.1765L195.9 37.438Z" fill="#727171"/>
<path d="M197.666 37.8857C197.666 38.056 197.553 38.1941 197.413 38.1941L196.909 38.1941C196.769 38.1941 196.656 38.056 196.656 37.8857L196.656 35.7271C196.656 35.5568 196.769 35.4187 196.909 35.4187L197.413 35.4187C197.553 35.4187 197.666 35.5568 197.666 35.7271L197.666 37.8857Z" fill="#C4C4C4"/>
<path d="M193.881 37.8865C193.881 38.0568 193.74 38.1948 193.566 38.1948L192.935 38.1948C192.761 38.1948 192.62 38.0568 192.62 37.8865L192.62 35.7278C192.62 35.5575 192.761 35.4195 192.935 35.4195L193.566 35.4195C193.74 35.4195 193.881 35.5575 193.881 35.7278L193.881 37.8865Z" fill="#C4C4C4"/>
<path d="M196.656 32.3923L193.881 32.3923L193.881 30.8785L196.656 30.8785L196.656 32.3923Z" fill="#C4C4C4"/>
<path d="M195.9 32.3923L194.638 32.3923L194.638 30.8785L195.9 30.8785L195.9 32.3923Z" fill="#727171"/>
<path d="M197.666 32.6152C197.666 32.77 197.553 32.8955 197.413 32.8955L196.909 32.8955C196.769 32.8955 196.656 32.77 196.656 32.6152L196.656 30.6528C196.656 30.498 196.769 30.3725 196.909 30.3725L197.413 30.3725C197.553 30.3725 197.666 30.498 197.666 30.6528L197.666 32.6152Z" fill="#C4C4C4"/>
<path d="M193.881 32.6161C193.881 32.771 193.74 32.8965 193.566 32.8965L192.935 32.8965C192.761 32.8965 192.62 32.771 192.62 32.6161L192.62 30.6538C192.62 30.499 192.761 30.3734 192.935 30.3734L193.566 30.3734C193.74 30.3734 193.881 30.499 193.881 30.6538L193.881 32.6161Z" fill="#C4C4C4"/>
<path d="M196.656 32.3923L193.881 32.3923L193.881 30.8785L196.656 30.8785L196.656 32.3923Z" fill="#C4C4C4"/>
<path d="M195.9 32.3923L194.638 32.3923L194.638 30.8785L195.9 30.8785L195.9 32.3923Z" fill="#727171"/>
<path d="M197.666 32.6152C197.666 32.77 197.553 32.8955 197.413 32.8955L196.909 32.8955C196.769 32.8955 196.656 32.77 196.656 32.6152L196.656 30.6528C196.656 30.498 196.769 30.3725 196.909 30.3725L197.413 30.3725C197.553 30.3725 197.666 30.498 197.666 30.6528L197.666 32.6152Z" fill="#C4C4C4"/>
<path d="M193.881 32.6161C193.881 32.771 193.74 32.8965 193.566 32.8965L192.935 32.8965C192.761 32.8965 192.62 32.771 192.62 32.6161L192.62 30.6538C192.62 30.499 192.761 30.3734 192.935 30.3734L193.566 30.3734C193.74 30.3734 193.881 30.499 193.881 30.6538L193.881 32.6161Z" fill="#C4C4C4"/>
<path d="M196.656 27.5984L193.881 27.5984L193.881 26.0846L196.656 26.0846L196.656 27.5984Z" fill="#C4C4C4"/>
<path d="M195.9 27.5984L194.638 27.5984L194.638 26.0846L195.9 26.0846L195.9 27.5984Z" fill="#727171"/>
<path d="M197.666 27.8222C197.666 27.977 197.553 28.1025 197.413 28.1025L196.909 28.1025C196.769 28.1025 196.656 27.977 196.656 27.8222L196.656 25.8598C196.656 25.705 196.769 25.5795 196.909 25.5795L197.413 25.5795C197.553 25.5795 197.666 25.705 197.666 25.8598L197.666 27.8222Z" fill="#C4C4C4"/>
<path d="M193.881 27.8224C193.881 27.9773 193.74 28.1028 193.566 28.1028L192.935 28.1028C192.761 28.1028 192.62 27.9773 192.62 27.8224L192.62 25.8601C192.62 25.7053 192.761 25.5797 192.935 25.5797L193.566 25.5797C193.74 25.5797 193.881 25.7053 193.881 25.8601L193.881 27.8224Z" fill="#C4C4C4"/>
<path d="M159.316 25.3279L156.54 25.3279L156.54 23.8141L159.316 23.8141L159.316 25.3279Z" fill="#C4C4C4"/>
<path d="M158.559 25.3279L157.297 25.3279L157.297 23.8141L158.559 23.8141L158.559 25.3279Z" fill="#727171"/>
<path d="M160.325 25.5497C160.325 25.7046 160.212 25.8301 160.073 25.8301L159.568 25.8301C159.429 25.8301 159.316 25.7046 159.316 25.5497L159.316 23.5874C159.316 23.4325 159.429 23.307 159.568 23.307L160.073 23.307C160.212 23.307 160.325 23.4325 160.325 23.5874L160.325 25.5497Z" fill="#C4C4C4"/>
<path d="M156.54 25.5522C156.54 25.707 156.399 25.8325 156.225 25.8325L155.594 25.8325C155.42 25.8325 155.279 25.707 155.279 25.5522L155.279 23.5898C155.279 23.435 155.42 23.3095 155.594 23.3095L156.225 23.3095C156.399 23.3095 156.54 23.435 156.54 23.5898L156.54 25.5522Z" fill="#C4C4C4"/>
<path d="M150.485 25.3279L147.71 25.3279L147.71 23.8141L150.485 23.8141L150.485 25.3279Z" fill="#C4C4C4"/>
<path d="M149.98 25.3279L148.466 25.3279L148.466 23.8141L149.98 23.8141L149.98 25.3279Z" fill="#727171"/>
<path d="M151.746 25.5495C151.746 25.7043 151.605 25.8298 151.431 25.8298L150.8 25.8298C150.626 25.8298 150.485 25.7043 150.485 25.5495L150.485 23.5871C150.485 23.4323 150.626 23.3068 150.8 23.3068L151.431 23.3068C151.605 23.3068 151.746 23.4323 151.746 23.5871L151.746 25.5495Z" fill="#C4C4C4"/>
<path d="M147.709 25.5522C147.709 25.707 147.568 25.8325 147.394 25.8325L146.763 25.8325C146.589 25.8325 146.448 25.707 146.448 25.5522L146.448 23.5898C146.448 23.435 146.589 23.3095 146.763 23.3095L147.394 23.3095C147.568 23.3095 147.709 23.435 147.709 23.5898L147.709 25.5522Z" fill="#C4C4C4"/>
<path d="M141.654 25.3279L138.878 25.3279L138.878 23.8141L141.654 23.8141L141.654 25.3279Z" fill="#C4C4C4"/>
<path d="M141.149 25.3279L139.635 25.3279L139.635 23.8141L141.149 23.8141L141.149 25.3279Z" fill="#727171"/>
<path d="M142.915 25.5495C142.915 25.7043 142.774 25.8298 142.6 25.8298L141.969 25.8298C141.795 25.8298 141.654 25.7043 141.654 25.5495L141.654 23.5871C141.654 23.4323 141.795 23.3068 141.969 23.3068L142.6 23.3068C142.774 23.3068 142.915 23.4323 142.915 23.5871L142.915 25.5495Z" fill="#C4C4C4"/>
<path d="M138.879 25.5522C138.879 25.707 138.766 25.8325 138.626 25.8325L138.122 25.8325C137.982 25.8325 137.869 25.707 137.869 25.5522L137.869 23.5898C137.869 23.435 137.982 23.3095 138.122 23.3095L138.626 23.3095C138.766 23.3095 138.879 23.435 138.879 23.5898L138.879 25.5522Z" fill="#C4C4C4"/>
<path d="M204.226 67.9668L201.45 67.9668L201.45 59.8931L204.226 59.8931L204.226 67.9668Z" fill="#C4C4C4"/>
<path d="M204.958 76.2932C204.553 76.2932 204.225 75.9794 204.225 75.5924L204.225 73.2095C204.225 72.8224 204.553 72.5086 204.958 72.5086L212.576 72.5086C212.98 72.5086 213.308 72.8224 213.308 73.2095L213.308 75.5924C213.308 75.9794 212.98 76.2932 212.576 76.2932L204.958 76.2932Z" fill="#C4C4C4"/>
<path d="M211.542 76.0129C211.542 76.1677 211.408 76.2932 211.242 76.2932L206.292 76.2932C206.126 76.2932 205.992 76.1677 205.992 76.0129L205.992 72.789C205.992 72.6342 206.126 72.5086 206.292 72.5086L211.242 72.5086C211.408 72.5086 211.542 72.6342 211.542 72.789L211.542 76.0129Z" fill="#393939"/>
<path d="M207.758 33.8246C207.758 34.1483 207.483 34.4106 207.145 34.4106L204.081 34.4106C203.743 34.4106 203.469 34.1483 203.469 33.8246L203.469 25.9137C203.469 25.5901 203.743 25.3277 204.081 25.3277L207.145 25.3277C207.483 25.3277 207.758 25.5901 207.758 25.9137L207.758 33.8246Z" fill="#393939"/>
<path d="M211.542 31.3831L207.758 31.3831L207.758 28.6077L211.542 28.6077L211.542 31.3831Z" fill="#C4C4C4"/>
<path d="M203.469 33.6536L201.45 33.6536L201.45 31.3828L203.469 31.3828L203.469 33.6536Z" fill="#C4C4C4"/>
<path d="M203.469 28.1028L201.45 28.1028L201.45 25.832L203.469 25.832L203.469 28.1028Z" fill="#C4C4C4"/>
<path d="M183.284 25.9134C183.284 25.5898 183.542 25.3274 183.861 25.3274L186.744 25.3274C187.063 25.3274 187.321 25.5898 187.321 25.9134L187.321 33.8243C187.321 34.148 187.063 34.4103 186.744 34.4103L183.861 34.4103C183.542 34.4103 183.284 34.148 183.284 33.8243L183.284 25.9134Z" fill="#393939"/>
<path d="M179.5 28.355L183.284 28.355L183.284 31.1303L179.5 31.1303L179.5 28.355Z" fill="#C4C4C4"/>
<path d="M187.321 26.0845L189.34 26.0845L189.34 28.6075L187.321 28.6075L187.321 26.0845Z" fill="#C4C4C4"/>
<path d="M187.321 31.635L189.34 31.635L189.34 33.9057L187.321 33.9057L187.321 31.635Z" fill="#C4C4C4"/>
<path d="M188.33 51.597C188.33 51.9985 188.006 52.324 187.606 52.324L171.393 52.324C170.993 52.324 170.669 51.9985 170.669 51.597L170.669 44.4726C170.669 44.0711 170.993 43.7456 171.393 43.7456L187.606 43.7456C188.006 43.7456 188.33 44.0711 188.33 44.4726L188.33 51.597Z" fill="#393939"/>
<path d="M187.321 58.6321L185.302 58.6321L185.302 52.3245L187.321 52.3245L187.321 58.6321Z" fill="#C4C4C4"/>
<path d="M180.509 58.6321L178.238 58.6321L178.238 52.3245L180.509 52.3245L180.509 58.6321Z" fill="#C4C4C4"/>
<path d="M173.444 58.6321L171.173 58.6321L171.173 52.3245L173.444 52.3245L173.444 58.6321Z" fill="#C4C4C4"/>
<path d="M174.958 40.4656L174.958 37.1856L184.041 37.1856L184.041 40.4656L174.958 40.4656Z" fill="#C4C4C4"/>
<path d="M214.57 56.0581C214.57 56.2253 214.435 56.3608 214.268 56.3608L214.116 56.3608C213.949 56.3608 213.813 56.2253 213.813 56.0581L213.813 55.1498C213.813 54.9826 213.949 54.847 214.116 54.847L214.268 54.847C214.435 54.847 214.57 54.9826 214.57 55.1498L214.57 56.0581Z" fill="#C4C4C4"/>
<path d="M213.309 56.0583C213.309 56.2255 213.174 56.3611 213.006 56.3611L212.855 56.3611C212.688 56.3611 212.552 56.2255 212.552 56.0583L212.552 55.15C212.552 54.9828 212.688 54.8473 212.855 54.8473L213.006 54.8473C213.174 54.8473 213.309 54.9828 213.309 55.15L213.309 56.0583Z" fill="#C4C4C4"/>
<path d="M211.795 56.0583C211.795 56.2255 211.659 56.3611 211.492 56.3611L211.341 56.3611C211.174 56.3611 211.038 56.2255 211.038 56.0583L211.038 55.15C211.038 54.9828 211.174 54.8473 211.341 54.8473L211.492 54.8473C211.659 54.8473 211.795 54.9828 211.795 55.15L211.795 56.0583Z" fill="#C4C4C4"/>
<path d="M210.281 56.0583C210.281 56.2255 210.146 56.3611 209.978 56.3611L209.827 56.3611C209.66 56.3611 209.524 56.2255 209.524 56.0583L209.524 55.15C209.524 54.9828 209.66 54.8473 209.827 54.8473L209.978 54.8473C210.146 54.8473 210.281 54.9828 210.281 55.15L210.281 56.0583Z" fill="#C4C4C4"/>
<path d="M208.767 56.0583C208.767 56.2255 208.632 56.3611 208.465 56.3611L208.313 56.3611C208.146 56.3611 208.011 56.2255 208.011 56.0583L208.011 55.15C208.011 54.9828 208.146 54.8473 208.313 54.8473L208.465 54.8473C208.632 54.8473 208.767 54.9828 208.767 55.15L208.767 56.0583Z" fill="#C4C4C4"/>
<path d="M207.254 56.0583C207.254 56.2255 207.163 56.3611 207.052 56.3611L206.951 56.3611C206.839 56.3611 206.749 56.2255 206.749 56.0583L206.749 55.15C206.749 54.9828 206.839 54.8473 206.951 54.8473L207.052 54.8473C207.163 54.8473 207.254 54.9828 207.254 55.15L207.254 56.0583Z" fill="#C4C4C4"/>
<path d="M205.992 56.0583C205.992 56.2255 205.857 56.3611 205.689 56.3611L205.538 56.3611C205.371 56.3611 205.235 56.2255 205.235 56.0583L205.235 55.15C205.235 54.9828 205.371 54.8473 205.538 54.8473L205.689 54.8473C205.857 54.8473 205.992 54.9828 205.992 55.15L205.992 56.0583Z" fill="#C4C4C4"/>
<path d="M214.57 40.6679C214.57 40.8352 214.435 40.9707 214.268 40.9707L214.116 40.9707C213.949 40.9707 213.813 40.8352 213.813 40.6679L213.813 39.7596C213.813 39.5924 213.949 39.4569 214.116 39.4569L214.268 39.4569C214.435 39.4569 214.57 39.5924 214.57 39.7596L214.57 40.6679Z" fill="#C4C4C4"/>
<path d="M213.309 40.6679C213.309 40.8352 213.174 40.9707 213.006 40.9707L212.855 40.9707C212.688 40.9707 212.552 40.8352 212.552 40.6679L212.552 39.7596C212.552 39.5924 212.688 39.4569 212.855 39.4569L213.006 39.4569C213.174 39.4569 213.309 39.5924 213.309 39.7596L213.309 40.6679Z" fill="#C4C4C4"/>
<path d="M211.795 40.6679C211.795 40.8352 211.659 40.9707 211.492 40.9707L211.341 40.9707C211.174 40.9707 211.038 40.8352 211.038 40.6679L211.038 39.7596C211.038 39.5924 211.174 39.4569 211.341 39.4569L211.492 39.4569C211.659 39.4569 211.795 39.5924 211.795 39.7596L211.795 40.6679Z" fill="#C4C4C4"/>
<path d="M210.281 40.6679C210.281 40.8352 210.146 40.9707 209.978 40.9707L209.827 40.9707C209.66 40.9707 209.524 40.8352 209.524 40.6679L209.524 39.7596C209.524 39.5924 209.66 39.4569 209.827 39.4569L209.978 39.4569C210.146 39.4569 210.281 39.5924 210.281 39.7596L210.281 40.6679Z" fill="#C4C4C4"/>
<path d="M208.767 40.6679C208.767 40.8352 208.632 40.9707 208.465 40.9707L208.313 40.9707C208.146 40.9707 208.011 40.8352 208.011 40.6679L208.011 39.7596C208.011 39.5924 208.146 39.4569 208.313 39.4569L208.465 39.4569C208.632 39.4569 208.767 39.5924 208.767 39.7596L208.767 40.6679Z" fill="#C4C4C4"/>
<path d="M207.254 40.6679C207.254 40.8352 207.163 40.9707 207.052 40.9707L206.951 40.9707C206.839 40.9707 206.749 40.8352 206.749 40.6679L206.749 39.7596C206.749 39.5924 206.839 39.4569 206.951 39.4569L207.052 39.4569C207.163 39.4569 207.254 39.5924 207.254 39.7596L207.254 40.6679Z" fill="#C4C4C4"/>
<path d="M205.992 40.6679C205.992 40.8352 205.857 40.9707 205.689 40.9707L205.538 40.9707C205.371 40.9707 205.235 40.8352 205.235 40.6679L205.235 39.7596C205.235 39.5924 205.371 39.4569 205.538 39.4569L205.689 39.4569C205.857 39.4569 205.992 39.5924 205.992 39.7596L205.992 40.6679Z" fill="#C4C4C4"/>
<path d="M202.662 43.241C202.829 43.241 202.964 43.3765 202.964 43.5437L202.964 43.6951C202.964 43.8623 202.829 43.9979 202.662 43.9979L201.753 43.9979C201.586 43.9979 201.451 43.8623 201.451 43.6951L201.451 43.5437C201.451 43.3765 201.586 43.241 201.753 43.241L202.662 43.241Z" fill="#C4C4C4"/>
<path d="M202.662 44.7549C202.829 44.7549 202.964 44.8453 202.964 44.9567L202.964 45.0576C202.964 45.1691 202.829 45.2595 202.662 45.2595L201.753 45.2595C201.586 45.2595 201.451 45.1691 201.451 45.0576L201.451 44.9567C201.451 44.8453 201.586 44.7549 201.753 44.7549L202.662 44.7549Z" fill="#C4C4C4"/>
<path d="M202.662 46.0164C202.829 46.0164 202.964 46.1519 202.964 46.3191L202.964 46.4705C202.964 46.6377 202.829 46.7733 202.662 46.7733L201.753 46.7733C201.586 46.7733 201.451 46.6377 201.451 46.4705L201.451 46.3191C201.451 46.1519 201.586 46.0164 201.753 46.0164L202.662 46.0164Z" fill="#C4C4C4"/>
<path d="M202.662 47.5303C202.829 47.5303 202.964 47.6658 202.964 47.833L202.964 47.9844C202.964 48.1516 202.829 48.2872 202.662 48.2872L201.753 48.2872C201.586 48.2872 201.451 48.1516 201.451 47.9844L201.451 47.833C201.451 47.6658 201.586 47.5303 201.753 47.5303L202.662 47.5303Z" fill="#C4C4C4"/>
<path d="M202.662 49.0442C202.829 49.0442 202.964 49.1797 202.964 49.347L202.964 49.4983C202.964 49.6655 202.829 49.8011 202.662 49.8011L201.753 49.8011C201.586 49.8011 201.451 49.6655 201.451 49.4983L201.451 49.347C201.451 49.1797 201.586 49.0442 201.753 49.0442L202.662 49.0442Z" fill="#C4C4C4"/>
<path d="M202.662 50.5581C202.829 50.5581 202.964 50.6937 202.964 50.8609L202.964 51.0123C202.964 51.1795 202.829 51.315 202.662 51.315L201.753 51.315C201.586 51.315 201.451 51.1795 201.451 51.0123L201.451 50.8609C201.451 50.6937 201.586 50.5581 201.753 50.5581L202.662 50.5581Z" fill="#C4C4C4"/>
<path d="M202.662 51.8193C202.829 51.8193 202.964 51.9549 202.964 52.1221L202.964 52.2735C202.964 52.4407 202.829 52.5762 202.662 52.5762L201.753 52.5762C201.586 52.5762 201.451 52.4407 201.451 52.2735L201.451 52.1221C201.451 51.9549 201.586 51.8193 201.753 51.8193L202.662 51.8193Z" fill="#C4C4C4"/>
<path d="M218.052 43.241C218.219 43.241 218.355 43.3765 218.355 43.5437L218.355 43.6951C218.355 43.8623 218.219 43.9979 218.052 43.9979L217.144 43.9979C216.977 43.9979 216.841 43.8623 216.841 43.6951L216.841 43.5437C216.841 43.3765 216.977 43.241 217.144 43.241L218.052 43.241Z" fill="#C4C4C4"/>
<path d="M218.052 44.7549C218.219 44.7549 218.355 44.8453 218.355 44.9567L218.355 45.0576C218.355 45.1691 218.219 45.2595 218.052 45.2595L217.144 45.2595C216.977 45.2595 216.841 45.1691 216.841 45.0576L216.841 44.9567C216.841 44.8453 216.977 44.7549 217.144 44.7549L218.052 44.7549Z" fill="#C4C4C4"/>
<path d="M218.052 46.0164C218.219 46.0164 218.355 46.1519 218.355 46.3191L218.355 46.4705C218.355 46.6377 218.219 46.7733 218.052 46.7733L217.144 46.7733C216.977 46.7733 216.841 46.6377 216.841 46.4705L216.841 46.3191C216.841 46.1519 216.977 46.0164 217.144 46.0164L218.052 46.0164Z" fill="#C4C4C4"/>
<path d="M218.052 47.5303C218.219 47.5303 218.355 47.6658 218.355 47.833L218.355 47.9844C218.355 48.1516 218.219 48.2872 218.052 48.2872L217.144 48.2872C216.977 48.2872 216.841 48.1516 216.841 47.9844L216.841 47.833C216.841 47.6658 216.977 47.5303 217.144 47.5303L218.052 47.5303Z" fill="#C4C4C4"/>
<path d="M218.052 49.0444C218.219 49.0444 218.355 49.18 218.355 49.3472L218.355 49.4986C218.355 49.6658 218.219 49.8013 218.052 49.8013L217.144 49.8013C216.977 49.8013 216.841 49.6658 216.841 49.4986L216.841 49.3472C216.841 49.18 216.977 49.0444 217.144 49.0444L218.052 49.0444Z" fill="#C4C4C4"/>
<path d="M218.052 50.5581C218.219 50.5581 218.355 50.6937 218.355 50.8609L218.355 51.0123C218.355 51.1795 218.219 51.315 218.052 51.315L217.144 51.315C216.977 51.315 216.841 51.1795 216.841 51.0123L216.841 50.8609C216.841 50.6937 216.977 50.5581 217.144 50.5581L218.052 50.5581Z" fill="#C4C4C4"/>
<path d="M218.052 51.8193C218.219 51.8193 218.355 51.9549 218.355 52.1221L218.355 52.2735C218.355 52.4407 218.219 52.5762 218.052 52.5762L217.144 52.5762C216.977 52.5762 216.841 52.4407 216.841 52.2735L216.841 52.1221C216.841 51.9549 216.977 51.8193 217.144 51.8193L218.052 51.8193Z" fill="#C4C4C4"/>
<path d="M217.346 54.6221C217.346 55.0251 217.016 55.3518 216.609 55.3518L203.197 55.3518C202.79 55.3518 202.46 55.0251 202.46 54.6221L202.46 41.1956C202.46 40.7926 202.79 40.4659 203.197 40.4659L216.609 40.4659C217.016 40.4659 217.346 40.7926 217.346 41.1956L217.346 54.6221Z" fill="#393939"/>
<path d="M188.835 66.7043L185.303 66.7043L185.303 61.6583L188.835 61.6583L188.835 66.7043Z" fill="#C4C4C4"/>
<path d="M181.518 66.7056L177.481 66.7056L177.481 61.6595L181.518 61.6595L181.518 66.7056Z" fill="#C4C4C4"/>
<path d="M185.807 65.949L180.509 65.949L180.509 62.1644L185.807 62.1644L185.807 65.949Z" fill="#BA6619"/>
<path d="M115.667 36.1768L112.891 36.1768L112.891 29.1122L115.667 29.1122L115.667 36.1768Z" fill="#C4C4C4"/>
<path fill-rule="evenodd" clip-rule="evenodd" d="M120.208 73.0205C119.511 73.0205 118.947 73.6337 118.947 74.3901V74.3901C118.947 74.4633 118.89 74.5271 118.818 74.5271V74.5271C118.749 74.5271 118.694 74.4715 118.694 74.4028L118.694 70.1691C118.694 69.9284 118.888 69.7333 119.127 69.7333L121.289 69.7333C121.528 69.7333 121.722 69.9284 121.722 70.1691L121.722 74.4028C121.722 74.4715 121.667 74.5271 121.599 74.5271V74.5271C121.526 74.5271 121.47 74.4633 121.47 74.3901V74.3901C121.47 73.6337 120.905 73.0205 120.208 73.0205Z" fill="#AE936F"/>
<path d="M119.451 71.3728C119.451 70.8851 119.847 70.4897 120.334 70.4897C120.822 70.4897 121.217 70.8851 121.217 71.3728C121.217 71.8605 120.822 72.2559 120.334 72.2559C119.847 72.2559 119.451 71.8605 119.451 71.3728Z" fill="#6B4C30"/>
<path fill-rule="evenodd" clip-rule="evenodd" d="M126.39 73.0205C125.635 73.0205 125.023 73.6337 125.023 74.3901V74.3901C125.023 74.4633 124.962 74.5271 124.883 74.5271V74.5271C124.81 74.5271 124.75 74.4715 124.75 74.4028L124.75 70.1691C124.75 69.9284 124.96 69.7333 125.218 69.7333L127.561 69.7333C127.82 69.7333 128.03 69.9284 128.03 70.1691L128.03 74.4028C128.03 74.4715 127.97 74.5271 127.896 74.5271V74.5271C127.818 74.5271 127.756 74.4633 127.756 74.3901V74.3901C127.756 73.6337 127.145 73.0205 126.39 73.0205Z" fill="#AE936F"/>
<path d="M125.507 71.3728C125.507 70.8851 125.902 70.4897 126.39 70.4897C126.878 70.4897 127.273 70.8851 127.273 71.3728C127.273 71.8605 126.878 72.2559 126.39 72.2559C125.902 72.2559 125.507 71.8605 125.507 71.3728Z" fill="#6B4C30"/>
<path fill-rule="evenodd" clip-rule="evenodd" d="M132.067 73.0205C131.37 73.0205 130.805 73.6337 130.805 74.3901V74.3901C130.805 74.4633 130.749 74.5271 130.676 74.5271V74.5271C130.608 74.5271 130.553 74.4715 130.553 74.4028L130.553 70.1691C130.553 69.9284 130.747 69.7333 130.985 69.7333L133.148 69.7333C133.387 69.7333 133.581 69.9284 133.581 70.1691L133.581 74.4028C133.581 74.4715 133.525 74.5271 133.457 74.5271V74.5271C133.385 74.5271 133.328 74.4633 133.328 74.3901V74.3901C133.328 73.6337 132.763 73.0205 132.067 73.0205Z" fill="#AE936F"/>
<path d="M131.057 71.3728C131.057 70.8851 131.509 70.4897 132.067 70.4897C132.624 70.4897 133.076 70.8851 133.076 71.3728C133.076 71.8605 132.624 72.2559 132.067 72.2559C131.509 72.2559 131.057 71.8605 131.057 71.3728Z" fill="#6B4C30"/>
<path fill-rule="evenodd" clip-rule="evenodd" d="M138.122 73.0205C137.425 73.0205 136.86 73.6337 136.86 74.3901V74.3901C136.86 74.4633 136.804 74.5271 136.731 74.5271V74.5271C136.663 74.5271 136.608 74.4715 136.608 74.4028L136.608 70.1691C136.608 69.9284 136.802 69.7333 137.041 69.7333L139.203 69.7333C139.442 69.7333 139.636 69.9284 139.636 70.1691L139.636 74.4028C139.636 74.4715 139.581 74.5271 139.512 74.5271V74.5271C139.44 74.5271 139.383 74.4633 139.383 74.3901V74.3901C139.383 73.6337 138.819 73.0205 138.122 73.0205Z" fill="#AE936F"/>
<path d="M137.365 71.3728C137.365 70.8851 137.761 70.4897 138.248 70.4897C138.736 70.4897 139.131 70.8851 139.131 71.3728C139.131 71.8605 138.736 72.2559 138.248 72.2559C137.761 72.2559 137.365 71.8605 137.365 71.3728Z" fill="#6B4C30"/>
<path fill-rule="evenodd" clip-rule="evenodd" d="M143.925 73.0205C143.228 73.0205 142.663 73.6337 142.663 74.3901V74.3901C142.663 74.4633 142.607 74.5271 142.534 74.5271V74.5271C142.466 74.5271 142.411 74.4715 142.411 74.4028L142.411 70.1691C142.411 69.9284 142.605 69.7333 142.843 69.7333L145.006 69.7333C145.245 69.7333 145.439 69.9284 145.439 70.1691L145.439 74.4028C145.439 74.4715 145.383 74.5271 145.315 74.5271V74.5271C145.243 74.5271 145.186 74.4633 145.186 74.3901V74.3901C145.186 73.6337 144.621 73.0205 143.925 73.0205Z" fill="#AE936F"/>
<path d="M143.168 71.3728C143.168 70.8851 143.563 70.4897 144.051 70.4897C144.539 70.4897 144.934 70.8851 144.934 71.3728C144.934 71.8605 144.539 72.2559 144.051 72.2559C143.563 72.2559 143.168 71.8605 143.168 71.3728Z" fill="#6B4C30"/>
<path fill-rule="evenodd" clip-rule="evenodd" d="M156.035 73.0205C155.339 73.0205 154.774 73.6337 154.774 74.3901V74.3901C154.774 74.4633 154.717 74.5271 154.645 74.5271V74.5271C154.577 74.5271 154.522 74.4715 154.522 74.4028L154.522 70.1691C154.522 69.9284 154.715 69.7333 154.954 69.7333L157.117 69.7333C157.356 69.7333 157.549 69.9284 157.549 70.1691L157.549 74.4028C157.549 74.4715 157.494 74.5271 157.426 74.5271V74.5271C157.353 74.5271 157.297 74.4633 157.297 74.3901V74.3901C157.297 73.6337 156.732 73.0205 156.035 73.0205Z" fill="#AE936F"/>
<path d="M155.026 71.3728C155.026 70.8851 155.421 70.4897 155.909 70.4897C156.397 70.4897 156.792 70.8851 156.792 71.3728C156.792 71.8605 156.397 72.2559 155.909 72.2559C155.421 72.2559 155.026 71.8605 155.026 71.3728Z" fill="#6B4C30"/>
<path fill-rule="evenodd" clip-rule="evenodd" d="M161.838 73.0197C161.142 73.0197 160.577 73.633 160.577 74.3894V74.3894C160.577 74.4625 160.521 74.5264 160.448 74.5264V74.5264C160.38 74.5264 160.325 74.4707 160.325 74.4021L160.325 70.1684C160.325 69.9277 160.518 69.7326 160.757 69.7326L162.92 69.7326C163.159 69.7326 163.352 69.9277 163.352 70.1684L163.352 74.4021C163.352 74.4707 163.297 74.5264 163.229 74.5264V74.5264C163.156 74.5264 163.1 74.4625 163.1 74.3894V74.3894C163.1 73.633 162.535 73.0197 161.838 73.0197Z" fill="#AE936F"/>
<path d="M161.081 71.3728C161.081 70.8851 161.477 70.4897 161.964 70.4897C162.452 70.4897 162.848 70.8851 162.848 71.3728C162.848 71.8605 162.452 72.2559 161.964 72.2559C161.477 72.2559 161.081 71.8605 161.081 71.3728Z" fill="#6B4C30"/>
<path fill-rule="evenodd" clip-rule="evenodd" d="M149.98 73.0205C149.283 73.0205 148.719 73.6337 148.719 74.3901V74.3901C148.719 74.4633 148.662 74.5271 148.59 74.5271V74.5271C148.522 74.5271 148.466 74.4715 148.466 74.4028L148.466 70.1691C148.466 69.9284 148.66 69.7333 148.899 69.7333L151.061 69.7333C151.3 69.7333 151.494 69.9284 151.494 70.1691L151.494 74.4028C151.494 74.4715 151.439 74.5271 151.371 74.5271V74.5271C151.298 74.5271 151.242 74.4633 151.242 74.3901V74.3901C151.242 73.6337 150.677 73.0205 149.98 73.0205Z" fill="#AE936F"/>
<path d="M148.971 71.3728C148.971 70.8851 149.423 70.4897 149.98 70.4897C150.537 70.4897 150.989 70.8851 150.989 71.3728C150.989 71.8605 150.537 72.2559 149.98 72.2559C149.423 72.2559 148.971 71.8605 148.971 71.3728Z" fill="#6B4C30"/>
<path fill-rule="evenodd" clip-rule="evenodd" d="M161.586 28.0957C162.283 28.0957 162.847 27.4825 162.847 26.7261V26.7261C162.847 26.653 162.904 26.5891 162.976 26.5891V26.5891C163.044 26.5891 163.1 26.6447 163.1 26.7134L163.1 30.9471C163.1 31.1878 162.906 31.3829 162.667 31.3829L160.505 31.3829C160.266 31.3829 160.072 31.1878 160.072 30.9471L160.072 26.7134C160.072 26.6447 160.127 26.5891 160.195 26.5891V26.5891C160.268 26.5891 160.324 26.653 160.324 26.7261V26.7261C160.324 27.4825 160.889 28.0957 161.586 28.0957Z" fill="#AE936F"/>
<path d="M162.595 29.8688C162.595 30.4262 162.143 30.8781 161.586 30.8781C161.029 30.8781 160.577 30.4262 160.577 29.8688C160.577 29.3115 161.029 28.8596 161.586 28.8596C162.143 28.8596 162.595 29.3115 162.595 29.8688Z" fill="#6B4C30"/>
<path fill-rule="evenodd" clip-rule="evenodd" d="M155.531 28.0957C156.227 28.0957 156.792 27.4825 156.792 26.7261V26.7261C156.792 26.653 156.848 26.5891 156.921 26.5891V26.5891C156.989 26.5891 157.044 26.6447 157.044 26.7134L157.044 30.9471C157.044 31.1878 156.851 31.3829 156.612 31.3829L154.449 31.3829C154.21 31.3829 154.017 31.1878 154.017 30.9471L154.017 26.7134C154.017 26.6447 154.072 26.5891 154.14 26.5891V26.5891C154.213 26.5891 154.269 26.653 154.269 26.7261V26.7261C154.269 27.4825 154.834 28.0957 155.531 28.0957Z" fill="#AE936F"/>
<path d="M156.54 29.8688C156.54 30.4262 156.088 30.8781 155.531 30.8781C154.973 30.8781 154.522 30.4262 154.522 29.8688C154.522 29.3115 154.973 28.8596 155.531 28.8596C156.088 28.8596 156.54 29.3115 156.54 29.8688Z" fill="#6B4C30"/>
<path fill-rule="evenodd" clip-rule="evenodd" d="M149.728 28.0957C150.425 28.0957 150.989 27.4825 150.989 26.7261V26.7261C150.989 26.653 151.046 26.5891 151.118 26.5891V26.5891C151.186 26.5891 151.242 26.6447 151.242 26.7134L151.242 30.9471C151.242 31.1878 151.048 31.3829 150.809 31.3829L148.647 31.3829C148.408 31.3829 148.214 31.1878 148.214 30.9471L148.214 26.7134C148.214 26.6447 148.269 26.5891 148.337 26.5891V26.5891C148.41 26.5891 148.466 26.653 148.466 26.7261V26.7261C148.466 27.4825 149.031 28.0957 149.728 28.0957Z" fill="#AE936F"/>
<path d="M150.737 29.8688C150.737 30.4262 150.342 30.8781 149.854 30.8781C149.366 30.8781 148.971 30.4262 148.971 29.8688C148.971 29.3115 149.366 28.8596 149.854 28.8596C150.342 28.8596 150.737 29.3115 150.737 29.8688Z" fill="#6B4C30"/>
<path fill-rule="evenodd" clip-rule="evenodd" d="M143.672 28.0957C144.369 28.0957 144.934 27.4825 144.934 26.7261V26.7261C144.934 26.653 144.99 26.5891 145.063 26.5891V26.5891C145.131 26.5891 145.186 26.6447 145.186 26.7134L145.186 30.9471C145.186 31.1878 144.993 31.3829 144.754 31.3829L142.591 31.3829C142.352 31.3829 142.159 31.1878 142.159 30.9471L142.159 26.7134C142.159 26.6447 142.214 26.5891 142.282 26.5891V26.5891C142.354 26.5891 142.411 26.653 142.411 26.7261V26.7261C142.411 27.4825 142.976 28.0957 143.672 28.0957Z" fill="#AE936F"/>
<path d="M144.682 29.8688C144.682 30.4262 144.23 30.8781 143.672 30.8781C143.115 30.8781 142.663 30.4262 142.663 29.8688C142.663 29.3115 143.115 28.8596 143.672 28.8596C144.23 28.8596 144.682 29.3115 144.682 29.8688Z" fill="#6B4C30"/>
<path fill-rule="evenodd" clip-rule="evenodd" d="M137.87 28.0957C138.567 28.0957 139.131 27.4825 139.131 26.7261V26.7261C139.131 26.653 139.188 26.5891 139.26 26.5891V26.5891C139.328 26.5891 139.384 26.6447 139.384 26.7134L139.384 30.9471C139.384 31.1878 139.19 31.3829 138.951 31.3829L136.788 31.3829C136.55 31.3829 136.356 31.1878 136.356 30.9471L136.356 26.7134C136.356 26.6447 136.411 26.5891 136.479 26.5891V26.5891C136.552 26.5891 136.608 26.653 136.608 26.7261V26.7261C136.608 27.4825 137.173 28.0957 137.87 28.0957Z" fill="#AE936F"/>
<path d="M138.879 29.8688C138.879 30.4262 138.427 30.8781 137.87 30.8781C137.312 30.8781 136.86 30.4262 136.86 29.8688C136.86 29.3115 137.312 28.8596 137.87 28.8596C138.427 28.8596 138.879 29.3115 138.879 29.8688Z" fill="#6B4C30"/>
<path fill-rule="evenodd" clip-rule="evenodd" d="M126.011 28.0957C126.708 28.0957 127.273 27.4825 127.273 26.7261V26.7261C127.273 26.653 127.329 26.5891 127.402 26.5891V26.5891C127.47 26.5891 127.525 26.6447 127.525 26.7134L127.525 30.9471C127.525 31.1878 127.331 31.3829 127.093 31.3829L124.93 31.3829C124.691 31.3829 124.497 31.1878 124.497 30.9471L124.497 26.7134C124.497 26.6447 124.553 26.5891 124.621 26.5891V26.5891C124.693 26.5891 124.75 26.653 124.75 26.7261V26.7261C124.75 27.4825 125.315 28.0957 126.011 28.0957Z" fill="#AE936F"/>
<path d="M127.021 29.8688C127.021 30.4262 126.569 30.8781 126.011 30.8781C125.454 30.8781 125.002 30.4262 125.002 29.8688C125.002 29.3115 125.454 28.8596 126.011 28.8596C126.569 28.8596 127.021 29.3115 127.021 29.8688Z" fill="#6B4C30"/>
<path fill-rule="evenodd" clip-rule="evenodd" d="M119.956 28.0967C120.653 28.0967 121.217 27.4835 121.217 26.7271V26.7271C121.217 26.6539 121.274 26.5901 121.346 26.5901V26.5901C121.414 26.5901 121.47 26.6457 121.47 26.7143L121.47 30.9481C121.47 31.1888 121.276 31.3839 121.037 31.3839L118.875 31.3839C118.636 31.3839 118.442 31.1888 118.442 30.9481L118.442 26.7144C118.442 26.6457 118.497 26.5901 118.565 26.5901V26.5901C118.638 26.5901 118.694 26.6539 118.694 26.7271V26.7271C118.694 27.4835 119.259 28.0967 119.956 28.0967Z" fill="#AE936F"/>
<path d="M120.965 29.8688C120.965 30.4262 120.513 30.8781 119.956 30.8781C119.399 30.8781 118.947 30.4262 118.947 29.8688C118.947 29.3115 119.399 28.8596 119.956 28.8596C120.513 28.8596 120.965 29.3115 120.965 29.8688Z" fill="#6B4C30"/>
<path fill-rule="evenodd" clip-rule="evenodd" d="M131.94 28.0957C132.695 28.0957 133.307 27.4825 133.307 26.7261V26.7261C133.307 26.653 133.368 26.5891 133.447 26.5891V26.5891C133.521 26.5891 133.58 26.6447 133.58 26.7134L133.58 30.9471C133.58 31.1878 133.371 31.3829 133.112 31.3829L130.769 31.3829C130.51 31.3829 130.3 31.1878 130.3 30.9471L130.3 26.7134C130.3 26.6447 130.36 26.5891 130.434 26.5891V26.5891C130.513 26.5891 130.574 26.653 130.574 26.7261V26.7261C130.574 27.4825 131.186 28.0957 131.94 28.0957Z" fill="#AE936F"/>
<path d="M132.824 29.8688C132.824 30.4262 132.428 30.8781 131.94 30.8781C131.453 30.8781 131.057 30.4262 131.057 29.8688C131.057 29.3115 131.453 28.8596 131.94 28.8596C132.428 28.8596 132.824 29.3115 132.824 29.8688Z" fill="#6B4C30"/>
<path fill-rule="evenodd" clip-rule="evenodd" d="M163.857 67.0014C163.857 67.2559 164.047 67.4622 164.283 67.4622L165.941 67.4622C166.044 67.4622 166.128 67.3717 166.128 67.26V67.26C166.128 67.1738 166.076 67.0991 166.007 67.0565C165.662 66.8449 165.418 66.3156 165.418 65.696C165.418 65.0765 165.662 64.5472 166.007 64.3356C166.076 64.293 166.128 64.2182 166.128 64.132V64.132C166.128 64.0204 166.044 63.9299 165.941 63.9299L164.283 63.9299C164.047 63.9299 163.857 64.1362 163.857 64.3906L163.857 67.0014Z" fill="#AE936F"/>
<path fill-rule="evenodd" clip-rule="evenodd" d="M163.857 60.9792C163.857 61.2154 164.047 61.407 164.283 61.407L165.941 61.407C166.044 61.407 166.128 61.3229 166.128 61.2193V61.2193C166.128 61.1392 166.076 61.0698 166.007 61.0303C165.662 60.8338 165.418 60.3423 165.418 59.767C165.418 59.1917 165.662 58.7002 166.007 58.5037C166.076 58.4642 166.128 58.3948 166.128 58.3147V58.3147C166.128 58.2111 166.044 58.127 165.941 58.127L164.283 58.127C164.047 58.127 163.857 58.3186 163.857 58.5548L163.857 60.9792Z" fill="#AE936F"/>
<path fill-rule="evenodd" clip-rule="evenodd" d="M163.857 54.8908C163.857 55.1453 164.047 55.3516 164.283 55.3516L165.941 55.3516C166.044 55.3516 166.128 55.2611 166.128 55.1494V55.1494C166.128 55.0632 166.076 54.9885 166.007 54.9459C165.662 54.7343 165.418 54.205 165.418 53.5854C165.418 52.9659 165.662 52.4366 166.007 52.225C166.076 52.1824 166.128 52.1077 166.128 52.0214V52.0214C166.128 51.9098 166.044 51.8193 165.941 51.8193L164.283 51.8193C164.047 51.8193 163.857 52.0256 163.857 52.28L163.857 54.8908Z" fill="#AE936F"/>
<path fill-rule="evenodd" clip-rule="evenodd" d="M163.857 48.8683C163.857 49.1046 164.047 49.2961 164.283 49.2961L165.941 49.2961C166.044 49.2961 166.128 49.2121 166.128 49.1084V49.1084C166.128 49.0284 166.076 48.959 166.007 48.9195C165.662 48.723 165.418 48.2314 165.418 47.6562C165.418 47.0809 165.662 46.5894 166.007 46.3929C166.076 46.3533 166.128 46.2839 166.128 46.2039V46.2039C166.128 46.1002 166.044 46.0162 165.941 46.0162L164.283 46.0162C164.047 46.0162 163.857 46.2077 163.857 46.444L163.857 48.8683Z" fill="#AE936F"/>
<path fill-rule="evenodd" clip-rule="evenodd" d="M163.857 42.8131C163.857 43.0494 164.047 43.241 164.283 43.241L165.941 43.241C166.044 43.241 166.128 43.1569 166.128 43.0533V43.0533C166.128 42.9732 166.076 42.9038 166.007 42.8643C165.662 42.6678 165.418 42.1763 165.418 41.601C165.418 41.0257 165.662 40.5342 166.007 40.3377C166.076 40.2982 166.128 40.2288 166.128 40.1487V40.1487C166.128 40.045 166.044 39.961 165.941 39.961L164.283 39.961C164.047 39.961 163.857 40.1526 163.857 40.3888L163.857 42.8131Z" fill="#AE936F"/>
<path fill-rule="evenodd" clip-rule="evenodd" d="M163.857 37.0102C163.857 37.2464 164.047 37.438 164.283 37.438L165.941 37.438C166.044 37.438 166.128 37.354 166.128 37.2503V37.2503C166.128 37.1702 166.076 37.1008 166.007 37.0613C165.662 36.8648 165.418 36.3733 165.418 35.798C165.418 35.2227 165.662 34.7312 166.007 34.5347C166.076 34.4952 166.128 34.4258 166.128 34.3457V34.3457C166.128 34.2421 166.044 34.158 165.941 34.158L164.283 34.158C164.047 34.158 163.857 34.3496 163.857 34.5859L163.857 37.0102Z" fill="#AE936F"/>
<path d="M184.546 76.568C184.546 76.9734 184.223 77.302 183.825 77.302L176.184 77.302C175.786 77.302 175.463 76.9734 175.463 76.568L175.463 69.9622C175.463 69.5569 175.786 69.2283 176.184 69.2283L183.825 69.2283C184.223 69.2283 184.546 69.5569 184.546 69.9622L184.546 76.568Z" fill="#393939"/>
<path d="M175.463 76.0617C175.463 76.4681 175.119 76.7976 174.695 76.7976L172.699 76.7976C172.275 76.7976 171.931 76.4681 171.931 76.0617L171.931 70.469C171.931 70.0626 172.275 69.7331 172.699 69.7331L174.695 69.7331C175.119 69.7331 175.463 70.0626 175.463 70.469L175.463 76.0617Z" fill="#C4C4C4"/>
<path d="M187.826 75.8353C187.826 76.2272 187.507 76.5449 187.113 76.5449L185.259 76.5449C184.865 76.5449 184.546 76.2272 184.546 75.8353L184.546 70.4423C184.546 70.0504 184.865 69.7327 185.259 69.7327L187.113 69.7327C187.507 69.7327 187.826 70.0504 187.826 70.4423L187.826 75.8353Z" fill="#C4C4C4"/>
<path fill-rule="evenodd" clip-rule="evenodd" d="M113.395 64.9395C113.388 64.9395 113.382 64.9395 113.375 64.9395L98.7637 64.9395C98.5889 64.9395 98.4225 64.9395 98.2821 64.9285C98.1292 64.9166 97.9536 64.8888 97.7763 64.8033C97.4945 64.6673 97.2673 64.4389 97.132 64.1558C97.0469 63.9777 97.0192 63.8012 97.0073 63.6475C96.9964 63.5064 96.9964 63.3393 96.9965 63.1636L96.9965 62.3517C96.9964 62.1761 96.9964 62.0089 97.0073 61.8678C97.0192 61.7141 97.0469 61.5376 97.132 61.3595C97.2673 61.0764 97.4945 60.848 97.7763 60.712C97.9536 60.6265 98.1292 60.5987 98.2821 60.5868C98.4225 60.5758 98.5889 60.5759 98.7637 60.5759L107.585 60.5759C107.787 60.5759 107.902 60.5754 107.986 60.5689C108.012 60.5668 108.029 60.5645 108.039 60.5629C108.046 60.5579 108.052 60.5517 108.057 60.5446C108.058 60.5352 108.061 60.5184 108.063 60.4917C108.069 60.4075 108.07 60.2922 108.07 60.0886L108.07 58.7359C108.07 58.5323 108.069 58.417 108.063 58.3328C108.061 58.3061 108.058 58.2893 108.057 58.2799C108.052 58.2728 108.046 58.2666 108.039 58.2616C108.029 58.26 108.012 58.2577 107.986 58.2556C107.902 58.2491 107.787 58.2486 107.585 58.2486L98.7637 58.2486C98.5889 58.2486 98.4225 58.2487 98.2821 58.2377C98.1292 58.2258 97.9536 58.198 97.7763 58.1125C97.4945 57.9765 97.2673 57.7481 97.132 57.465C97.0469 57.2869 97.0192 57.1104 97.0073 56.9567C96.9964 56.8156 96.9964 56.6485 96.9965 56.4728L96.9965 55.4427C96.9964 55.2671 96.9964 55.0999 97.0073 54.9588C97.0192 54.8052 97.0469 54.6286 97.132 54.4505C97.2673 54.1674 97.4945 53.939 97.7763 53.803C97.9536 53.7175 98.1292 53.6897 98.2821 53.6778C98.4225 53.6668 98.5889 53.6669 98.7637 53.6669L107.585 53.6669C107.787 53.6669 107.902 53.6664 107.986 53.6599C108.012 53.6578 108.029 53.6555 108.039 53.6539C108.046 53.649 108.052 53.6427 108.057 53.6356C108.058 53.6262 108.061 53.6094 108.063 53.5827C108.069 53.4985 108.07 53.3832 108.07 53.1796L108.07 51.7542C108.07 51.5506 108.069 51.4352 108.063 51.3511C108.061 51.3244 108.058 51.3076 108.057 51.2982C108.052 51.291 108.046 51.2848 108.039 51.2799C108.029 51.2783 108.012 51.276 107.986 51.2739C107.902 51.2674 107.787 51.2669 107.585 51.2669L98.7637 51.2669C98.5889 51.2669 98.4225 51.2669 98.2821 51.256C98.1292 51.2441 97.9536 51.2163 97.7763 51.1307C97.4945 50.9948 97.2673 50.7664 97.132 50.4833C97.0469 50.3051 97.0192 50.1286 97.0073 49.975C96.9964 49.8339 96.9964 49.6667 96.9965 49.4911L96.9965 48.461C96.9964 48.2853 96.9964 48.1182 97.0073 47.9771C97.0192 47.8234 97.0469 47.6469 97.132 47.4688C97.2673 47.1857 97.4945 46.9573 97.7763 46.8213C97.9536 46.7358 98.1292 46.708 98.2821 46.6961C98.4225 46.6851 98.5889 46.6851 98.7637 46.6852L107.585 46.6852C107.787 46.6852 107.902 46.6847 107.986 46.6782C108.012 46.6761 108.029 46.6738 108.039 46.6722C108.046 46.6672 108.052 46.661 108.057 46.6539C108.058 46.6445 108.061 46.6277 108.063 46.6009C108.069 46.5168 108.07 46.4015 108.07 46.1979L108.07 44.9179C108.07 44.7143 108.069 44.599 108.063 44.5149C108.061 44.4881 108.058 44.4713 108.057 44.4619C108.052 44.4548 108.046 44.4486 108.039 44.4436C108.029 44.442 108.012 44.4397 107.986 44.4376C107.902 44.4311 107.787 44.4306 107.585 44.4306L98.7637 44.4306C98.5889 44.4307 98.4225 44.4307 98.2821 44.4197C98.1292 44.4078 97.9536 44.38 97.7763 44.2945C97.4945 44.1585 97.2673 43.9301 97.132 43.647C97.0469 43.4689 97.0192 43.2924 97.0073 43.1387C96.9964 42.9976 96.9964 42.8305 96.9965 42.6548L96.9965 32.1399L98.2992 32.1399L98.2992 42.6343C98.2992 42.8379 98.2996 42.9532 98.3061 43.0373C98.3082 43.0641 98.3105 43.0809 98.3121 43.0903C98.317 43.0974 98.3232 43.1036 98.3303 43.1086C98.3396 43.1102 98.3564 43.1125 98.383 43.1146C98.4667 43.1211 98.5815 43.1216 98.7841 43.1216L107.605 43.1216C107.78 43.1215 107.946 43.1215 108.087 43.1325C108.24 43.1444 108.415 43.1722 108.593 43.2577C108.874 43.3937 109.102 43.6221 109.237 43.9052C109.322 44.0833 109.35 44.2598 109.362 44.4135C109.372 44.5546 109.372 44.7217 109.372 44.8974L109.372 46.2184C109.372 46.3941 109.372 46.5612 109.362 46.7023C109.35 46.856 109.322 47.0325 109.237 47.2106C109.102 47.4937 108.874 47.7221 108.593 47.8581C108.415 47.9436 108.24 47.9714 108.087 47.9833C107.946 47.9943 107.78 47.9942 107.605 47.9942L98.7841 47.9942C98.5815 47.9942 98.4667 47.9947 98.383 48.0012C98.3564 48.0033 98.3396 48.0056 98.3303 48.0072C98.3232 48.0122 98.317 48.0184 98.3121 48.0255C98.3105 48.0349 98.3082 48.0517 98.3061 48.0784C98.2996 48.1626 98.2992 48.2779 98.2992 48.4815L98.2992 49.4706C98.2992 49.6742 98.2996 49.7895 98.3061 49.8736C98.3082 49.9004 98.3105 49.9172 98.3121 49.9266C98.317 49.9337 98.3232 49.9399 98.3303 49.9449C98.3396 49.9464 98.3564 49.9488 98.383 49.9508C98.4667 49.9574 98.5815 49.9578 98.7841 49.9578L107.605 49.9578C107.78 49.9578 107.946 49.9578 108.087 49.9688C108.24 49.9807 108.415 50.0085 108.593 50.094C108.874 50.23 109.102 50.4583 109.237 50.7415C109.322 50.9196 109.35 51.0961 109.362 51.2498C109.372 51.3908 109.372 51.558 109.372 51.7336L109.372 53.2002C109.372 53.3758 109.372 53.543 109.362 53.684C109.35 53.8377 109.322 54.0142 109.237 54.1923C109.102 54.4754 108.874 54.7038 108.593 54.8398C108.415 54.9253 108.24 54.9531 108.087 54.965C107.946 54.976 107.78 54.976 107.605 54.976L98.7841 54.9759C98.5815 54.9759 98.4667 54.9764 98.383 54.9829C98.3564 54.985 98.3396 54.9873 98.3303 54.9889C98.3232 54.9939 98.317 55.0001 98.3121 55.0072C98.3105 55.0166 98.3082 55.0334 98.3061 55.0602C98.2996 55.1443 98.2992 55.2596 98.2992 55.4632L98.2992 56.4523C98.2992 56.6559 98.2996 56.7712 98.3061 56.8553C98.3082 56.8821 98.3105 56.8989 98.3121 56.9083C98.317 56.9154 98.3232 56.9216 98.3303 56.9266C98.3396 56.9282 98.3564 56.9305 98.383 56.9326C98.4667 56.9391 98.5815 56.9396 98.7841 56.9396L107.605 56.9396C107.78 56.9395 107.946 56.9395 108.087 56.9505C108.24 56.9624 108.415 56.9902 108.593 57.0757C108.874 57.2117 109.102 57.4401 109.237 57.7232C109.322 57.9013 109.35 58.0778 109.362 58.2315C109.372 58.3726 109.372 58.5397 109.372 58.7154L109.372 60.1091C109.372 60.2848 109.372 60.452 109.362 60.593C109.35 60.7467 109.322 60.9232 109.237 61.1013C109.102 61.3844 108.874 61.6128 108.593 61.7488C108.415 61.8343 108.24 61.8621 108.087 61.874C107.946 61.885 107.78 61.885 107.605 61.8849L98.7841 61.8849C98.5815 61.8849 98.4667 61.8854 98.383 61.8919C98.3564 61.894 98.3396 61.8963 98.3303 61.8979C98.3232 61.9029 98.317 61.9091 98.3121 61.9162C98.3105 61.9256 98.3082 61.9424 98.3061 61.9692C98.2996 62.0533 98.2992 62.1686 98.2992 62.3722L98.2992 63.1431C98.2992 63.3467 98.2996 63.462 98.3061 63.5462C98.3082 63.5729 98.3105 63.5897 98.3121 63.5991C98.317 63.6062 98.3232 63.6125 98.3303 63.6174C98.3396 63.619 98.3564 63.6213 98.383 63.6234C98.4667 63.6299 98.5815 63.6304 98.7841 63.6304L113.375 63.6304C113.577 63.6304 113.692 63.6299 113.776 63.6234C113.802 63.6213 113.819 63.619 113.828 63.6174C113.836 63.6125 113.842 63.6062 113.847 63.5991C113.848 63.5897 113.851 63.5729 113.853 63.5462C113.859 63.462 113.86 63.3467 113.86 63.1431L113.86 43.7761L115.162 43.7761L115.162 63.1431C115.162 63.15 115.162 63.1568 115.162 63.1636C115.162 63.3393 115.162 63.5065 115.151 63.6475C115.14 63.8012 115.112 63.9777 115.027 64.1558C114.892 64.4389 114.664 64.6673 114.382 64.8033C114.205 64.8888 114.03 64.9166 113.877 64.9285C113.736 64.9395 113.57 64.9395 113.395 64.9395Z" fill="#AE936F"/>
<path d="M173.444 67.2097L171.174 67.2097L171.174 61.9113L173.444 61.9113L173.444 67.2097Z" fill="#C4C4C4"/>
<path d="M173.444 65.4438L171.174 65.4438L171.174 63.6777L173.444 63.6777L173.444 65.4438Z" fill="#BA6619"/>
<path d="M161.838 67.7151L118.442 67.7151L118.442 32.8971L161.838 32.8971L161.838 67.7151Z" fill="#C4C4C4"/>
<rect x="39.7462" y="128.357" width="14.7105" height="4.36861" fill="#C4C4C4"/>
<rect x="36.899" y="128.357" width="2.84719" height="4.36861" fill="#898989"/>
<rect x="36.899" y="128.357" width="2.84719" height="4.36861" fill="#898989"/>
<rect x="36.899" y="128.357" width="2.84719" height="4.36861" fill="#898989"/>
<rect x="36.899" y="128.357" width="2.84719" height="4.36861" fill="#898989"/>
<rect x="36.899" y="128.357" width="2.84719" height="4.36861" fill="#898989"/>
<rect x="36.899" y="128.357" width="2.84719" height="4.36861" fill="#898989"/>
<rect x="54.4567" y="128.357" width="2.84719" height="4.36861" fill="#898989"/>
<rect x="54.4567" y="128.357" width="2.84719" height="4.36861" fill="#898989"/>
<rect x="54.4567" y="128.357" width="2.84719" height="4.36861" fill="#898989"/>
<rect x="54.4567" y="128.357" width="2.84719" height="4.36861" fill="#898989"/>
<rect x="54.4567" y="128.357" width="2.84719" height="4.36861" fill="#898989"/>
<rect x="54.4567" y="128.357" width="2.84719" height="4.36861" fill="#898989"/>
<rect x="37.8479" y="132.725" width="18.0322" height="2.49635" fill="#2D2D2D"/>
<rect x="17.5913" y="26.5137" width="14.7105" height="4.36861" transform="rotate(90 17.5913 26.5137)" fill="#C4C4C4"/>
<rect x="17.5913" y="23.6665" width="2.84719" height="4.36861" transform="rotate(90 17.5913 23.6665)" fill="#898989"/>
<rect x="17.5913" y="23.6665" width="2.84719" height="4.36861" transform="rotate(90 17.5913 23.6665)" fill="#898989"/>
<rect x="17.5913" y="23.6665" width="2.84719" height="4.36861" transform="rotate(90 17.5913 23.6665)" fill="#898989"/>
<rect x="17.5913" y="23.6665" width="2.84719" height="4.36861" transform="rotate(90 17.5913 23.6665)" fill="#898989"/>
<rect x="17.5913" y="23.6665" width="2.84719" height="4.36861" transform="rotate(90 17.5913 23.6665)" fill="#898989"/>
<rect x="17.5913" y="23.6665" width="2.84719" height="4.36861" transform="rotate(90 17.5913 23.6665)" fill="#898989"/>
<rect x="17.5913" y="41.2241" width="2.84719" height="4.36861" transform="rotate(90 17.5913 41.2241)" fill="#898989"/>
<rect x="17.5913" y="41.2241" width="2.84719" height="4.36861" transform="rotate(90 17.5913 41.2241)" fill="#898989"/>
<rect x="17.5913" y="41.2241" width="2.84719" height="4.36861" transform="rotate(90 17.5913 41.2241)" fill="#898989"/>
<rect x="17.5913" y="41.2241" width="2.84719" height="4.36861" transform="rotate(90 17.5913 41.2241)" fill="#898989"/>
<rect x="17.5913" y="41.2241" width="2.84719" height="4.36861" transform="rotate(90 17.5913 41.2241)" fill="#898989"/>
<rect x="17.5913" y="41.2241" width="2.84719" height="4.36861" transform="rotate(90 17.5913 41.2241)" fill="#898989"/>
<rect x="13.2228" y="24.6155" width="18.0322" height="2.49635" transform="rotate(90 13.2228 24.6155)" fill="#2D2D2D"/>
<rect x="63.9473" y="128.357" width="14.7105" height="4.36861" fill="#C4C4C4"/>
<rect x="61.1" y="128.357" width="2.84719" height="4.36861" fill="#898989"/>
<rect x="61.1" y="128.357" width="2.84719" height="4.36861" fill="#898989"/>
<rect x="61.1" y="128.357" width="2.84719" height="4.36861" fill="#898989"/>
<rect x="61.1" y="128.357" width="2.84719" height="4.36861" fill="#898989"/>
<rect x="61.1" y="128.357" width="2.84719" height="4.36861" fill="#898989"/>
<rect x="61.1" y="128.357" width="2.84719" height="4.36861" fill="#898989"/>
<rect x="78.6576" y="128.357" width="2.84719" height="4.36861" fill="#898989"/>
<rect x="78.6576" y="128.357" width="2.84719" height="4.36861" fill="#898989"/>
<rect x="78.6576" y="128.357" width="2.84719" height="4.36861" fill="#898989"/>
<rect x="78.6576" y="128.357" width="2.84719" height="4.36861" fill="#898989"/>
<rect x="78.6576" y="128.357" width="2.84719" height="4.36861" fill="#898989"/>
<rect x="78.6576" y="128.357" width="2.84719" height="4.36861" fill="#898989"/>
<rect x="62.049" y="132.725" width="18.0322" height="2.49635" fill="#2D2D2D"/>
<rect x="104.757" y="128.357" width="14.7105" height="4.36861" fill="#C4C4C4"/>
<rect x="101.91" y="128.357" width="2.84719" height="4.36861" fill="#898989"/>
<rect x="101.91" y="128.357" width="2.84719" height="4.36861" fill="#898989"/>
<rect x="101.91" y="128.357" width="2.84719" height="4.36861" fill="#898989"/>
<rect x="101.91" y="128.357" width="2.84719" height="4.36861" fill="#898989"/>
<rect x="101.91" y="128.357" width="2.84719" height="4.36861" fill="#898989"/>
<rect x="101.91" y="128.357" width="2.84719" height="4.36861" fill="#898989"/>
<rect x="119.467" y="128.357" width="2.84719" height="4.36861" fill="#898989"/>
<rect x="119.467" y="128.357" width="2.84719" height="4.36861" fill="#898989"/>
<rect x="119.467" y="128.357" width="2.84719" height="4.36861" fill="#898989"/>
<rect x="119.467" y="128.357" width="2.84719" height="4.36861" fill="#898989"/>
<rect x="119.467" y="128.357" width="2.84719" height="4.36861" fill="#898989"/>
<rect x="119.467" y="128.357" width="2.84719" height="4.36861" fill="#898989"/>
<rect x="102.859" y="132.725" width="18.0322" height="2.49635" fill="#2D2D2D"/>
<rect x="128.958" y="128.357" width="14.7105" height="4.36861" fill="#C4C4C4"/>
<rect x="126.111" y="128.357" width="2.84719" height="4.36861" fill="#898989"/>
<rect x="126.111" y="128.357" width="2.84719" height="4.36861" fill="#898989"/>
<rect x="126.111" y="128.357" width="2.84719" height="4.36861" fill="#898989"/>
<rect x="126.111" y="128.357" width="2.84719" height="4.36861" fill="#898989"/>
<rect x="126.111" y="128.357" width="2.84719" height="4.36861" fill="#898989"/>
<rect x="126.111" y="128.357" width="2.84719" height="4.36861" fill="#898989"/>
<rect x="143.669" y="128.357" width="2.84719" height="4.36861" fill="#898989"/>
<rect x="143.669" y="128.357" width="2.84719" height="4.36861" fill="#898989"/>
<rect x="143.669" y="128.357" width="2.84719" height="4.36861" fill="#898989"/>
<rect x="143.669" y="128.357" width="2.84719" height="4.36861" fill="#898989"/>
<rect x="143.669" y="128.357" width="2.84719" height="4.36861" fill="#898989"/>
<rect x="143.669" y="128.357" width="2.84719" height="4.36861" fill="#898989"/>
<rect x="127.06" y="132.725" width="18.0322" height="2.49635" fill="#2D2D2D"/>
<rect x="169.768" y="128.357" width="14.7105" height="4.36861" fill="#C4C4C4"/>
<rect x="166.921" y="128.357" width="2.84719" height="4.36861" fill="#898989"/>
<rect x="166.921" y="128.357" width="2.84719" height="4.36861" fill="#898989"/>
<rect x="166.921" y="128.357" width="2.84719" height="4.36861" fill="#898989"/>
<rect x="166.921" y="128.357" width="2.84719" height="4.36861" fill="#898989"/>
<rect x="166.921" y="128.357" width="2.84719" height="4.36861" fill="#898989"/>
<rect x="166.921" y="128.357" width="2.84719" height="4.36861" fill="#898989"/>
<rect x="184.478" y="128.357" width="2.84719" height="4.36861" fill="#898989"/>
<rect x="184.478" y="128.357" width="2.84719" height="4.36861" fill="#898989"/>
<rect x="184.478" y="128.357" width="2.84719" height="4.36861" fill="#898989"/>
<rect x="184.478" y="128.357" width="2.84719" height="4.36861" fill="#898989"/>
<rect x="184.478" y="128.357" width="2.84719" height="4.36861" fill="#898989"/>
<rect x="184.478" y="128.357" width="2.84719" height="4.36861" fill="#898989"/>
<rect x="167.87" y="132.725" width="18.0322" height="2.49635" fill="#2D2D2D"/>
<rect x="193.969" y="128.357" width="14.7105" height="4.36861" fill="#C4C4C4"/>
<rect x="191.122" y="128.357" width="2.84719" height="4.36861" fill="#898989"/>
<rect x="191.122" y="128.357" width="2.84719" height="4.36861" fill="#898989"/>
<rect x="191.122" y="128.357" width="2.84719" height="4.36861" fill="#898989"/>
<rect x="191.122" y="128.357" width="2.84719" height="4.36861" fill="#898989"/>
<rect x="191.122" y="128.357" width="2.84719" height="4.36861" fill="#898989"/>
<rect x="191.122" y="128.357" width="2.84719" height="4.36861" fill="#898989"/>
<rect x="208.679" y="128.357" width="2.84719" height="4.36861" fill="#898989"/>
<rect x="208.679" y="128.357" width="2.84719" height="4.36861" fill="#898989"/>
<rect x="208.679" y="128.357" width="2.84719" height="4.36861" fill="#898989"/>
<rect x="208.679" y="128.357" width="2.84719" height="4.36861" fill="#898989"/>
<rect x="208.679" y="128.357" width="2.84719" height="4.36861" fill="#898989"/>
<rect x="208.679" y="128.357" width="2.84719" height="4.36861" fill="#898989"/>
<rect x="192.071" y="132.725" width="18.0322" height="2.49635" fill="#2D2D2D"/>
<rect x="3.86145" y="81.1604" width="38.1863" height="21.882" fill="#2D2D2D"/>
<rect x="3.86145" y="81.1604" width="38.1863" height="21.882" fill="#2D2D2D"/>
<rect x="3.86145" y="81.1604" width="38.1863" height="21.882" fill="#2D2D2D"/>
<rect x="0.150269" y="79.0151" width="7.72308" height="26.6017" fill="#2D2D2D"/>
<rect x="0.150269" y="79.0151" width="7.72308" height="26.6017" fill="#2D2D2D"/>
<rect x="0.150269" y="79.0151" width="7.72308" height="26.6017" fill="#2D2D2D"/>
<circle cx="41.6186" cy="23.2371" r="10.2974" fill="#0A0142"/>
<circle cx="41.6186" cy="23.2371" r="10.2974" fill="#0A0142"/>
<circle cx="41.6187" cy="23.2367" r="7.72308" fill="#0A0142"/>
<circle cx="41.6187" cy="23.2367" r="7.72308" fill="#777391"/>
<circle cx="41.6186" cy="48.1226" r="10.2974" fill="#0A0142"/>
<circle cx="41.6186" cy="48.1226" r="10.2974" fill="#0A0142"/>
<circle cx="41.6187" cy="48.1227" r="7.72308" fill="#0A0142"/>
<circle cx="41.6187" cy="48.1227" r="7.72308" fill="#777391"/>
<rect x="36.899" y="159.678" width="19.7368" height="12.0137" fill="#2D2D2D"/>
<rect x="36.899" y="159.678" width="19.7368" height="12.0137" fill="#2D2D2D"/>
<rect x="36.899" y="159.678" width="19.7368" height="12.0137" fill="#2D2D2D"/>
<circle cx="40.3315" cy="159.678" r="1.71624" fill="#2D2D2D"/>
<circle cx="40.3315" cy="159.678" r="1.71624" fill="#2D2D2D"/>
<circle cx="53.2034" cy="159.678" r="1.71624" fill="#2D2D2D"/>
<circle cx="53.2034" cy="159.678" r="1.71624" fill="#2D2D2D"/>
<circle cx="44.6221" cy="159.678" r="1.71624" fill="#2D2D2D"/>
<circle cx="44.6221" cy="159.678" r="1.71624" fill="#2D2D2D"/>
<path d="M44.6222 166.972H48.4837V171.692H44.6222V166.972Z" fill="#CC0000"/>
<path d="M44.6222 166.972H48.4837V171.692H44.6222V166.972Z" fill="#3E3E3E"/>
<rect x="46.3384" y="169.117" width="0.42906" height="2.57436" fill="#FFDA7C"/>
<circle cx="48.9128" cy="159.678" r="1.71624" fill="#2D2D2D"/>
<circle cx="48.9128" cy="159.678" r="1.71624" fill="#2D2D2D"/>
<rect x="166.475" y="159.678" width="19.7368" height="12.0137" fill="#2D2D2D"/>
<rect x="166.475" y="159.678" width="19.7368" height="12.0137" fill="#2D2D2D"/>
<rect x="166.475" y="159.678" width="19.7368" height="12.0137" fill="#2D2D2D"/>
<circle cx="169.907" cy="159.678" r="1.71624" fill="#2D2D2D"/>
<circle cx="169.907" cy="159.678" r="1.71624" fill="#2D2D2D"/>
<circle cx="182.779" cy="159.678" r="1.71624" fill="#2D2D2D"/>
<circle cx="182.779" cy="159.678" r="1.71624" fill="#2D2D2D"/>
<circle cx="174.198" cy="159.678" r="1.71624" fill="#2D2D2D"/>
<circle cx="174.198" cy="159.678" r="1.71624" fill="#2D2D2D"/>
<path d="M174.198 166.972H178.06V171.692H174.198V166.972Z" fill="#CC0000"/>
<path d="M174.198 166.972H178.06V171.692H174.198V166.972Z" fill="#3E3E3E"/>
<rect x="175.914" y="169.117" width="0.42906" height="2.57436" fill="#FFDA7C"/>
<circle cx="178.489" cy="159.678" r="1.71624" fill="#2D2D2D"/>
<circle cx="178.489" cy="159.678" r="1.71624" fill="#2D2D2D"/>
<rect x="102.116" y="159.678" width="19.7368" height="12.0137" fill="#2D2D2D"/>
<rect x="102.116" y="159.678" width="19.7368" height="12.0137" fill="#2D2D2D"/>
<rect x="102.116" y="159.678" width="19.7368" height="12.0137" fill="#2D2D2D"/>
<circle cx="105.548" cy="159.678" r="1.71624" fill="#2D2D2D"/>
<circle cx="105.548" cy="159.678" r="1.71624" fill="#2D2D2D"/>
<circle cx="118.42" cy="159.678" r="1.71624" fill="#2D2D2D"/>
<circle cx="118.42" cy="159.678" r="1.71624" fill="#2D2D2D"/>
<circle cx="109.839" cy="159.678" r="1.71624" fill="#2D2D2D"/>
<circle cx="109.839" cy="159.678" r="1.71624" fill="#2D2D2D"/>
<path d="M109.839 166.972H113.701V171.692H109.839V166.972Z" fill="#CC0000"/>
<path d="M109.839 166.972H113.701V171.692H109.839V166.972Z" fill="#3E3E3E"/>
<rect x="111.555" y="169.117" width="0.42906" height="2.57436" fill="#FFDA7C"/>
<circle cx="114.13" cy="159.678" r="1.71624" fill="#2D2D2D"/>
<circle cx="114.13" cy="159.678" r="1.71624" fill="#2D2D2D"/>
<circle cx="77.0161" cy="23.4519" r="4.50513" fill="#DA3030"/>
</svg>
