<svg width="280" height="564" viewBox="0 0 280 564" fill="none" xmlns="http://www.w3.org/2000/svg">
<path fill-rule="evenodd" clip-rule="evenodd" d="M40 0C17.9086 0 0 17.9086 0 40V523.663C0 545.754 17.9086 563.663 40 563.663H240C262.091 563.663 280 545.754 280 523.663V40C280 17.9086 262.091 0 240 0H40ZM41.6822 10.6487H67.2014V15.0491C67.2014 22.781 73.4694 29.0491 81.2014 29.0491H198.374C206.106 29.0491 212.374 22.7811 212.374 15.0491V10.6487H237.893C256.119 10.6487 270.893 25.4233 270.893 43.6487V521C270.893 539.225 256.119 554 237.893 554H41.6822C23.4568 554 8.6822 539.225 8.6822 521V43.6487C8.6822 25.4233 23.4568 10.6487 41.6822 10.6487Z" fill="black"/>
</svg>
