<svg width="252" height="133" viewBox="0 0 252 133" fill="none" xmlns="http://www.w3.org/2000/svg">
<path fill-rule="evenodd" clip-rule="evenodd" d="M0 12.7395C0 5.70365 5.70657 0 12.746 0H239.114C246.154 0 251.86 5.70365 251.86 12.7395V120.261C251.86 127.296 246.154 133 239.114 133H12.746C5.70656 133 0 127.296 0 120.261V12.7395ZM20.9034 11.4655C20.9034 16.1092 17.1371 19.8736 12.4911 19.8736C7.84505 19.8736 4.07871 16.1092 4.07871 11.4655C4.07871 6.82188 7.84505 3.05747 12.4911 3.05747C17.1371 3.05747 20.9034 6.82188 20.9034 11.4655ZM12.4911 128.669C17.1371 128.669 20.9034 124.904 20.9034 120.261C20.9034 115.617 17.1371 111.852 12.4911 111.852C7.84505 111.852 4.07871 115.617 4.07871 120.261C4.07871 124.904 7.84505 128.669 12.4911 128.669ZM247.527 120.261C247.527 124.904 243.761 128.669 239.114 128.669C234.468 128.669 230.702 124.904 230.702 120.261C230.702 115.617 234.468 111.852 239.114 111.852C243.761 111.852 247.527 115.617 247.527 120.261ZM239.114 19.8736C243.761 19.8736 247.527 16.1092 247.527 11.4655C247.527 6.82188 243.761 3.05747 239.114 3.05747C234.468 3.05747 230.702 6.82188 230.702 11.4655C230.702 16.1092 234.468 19.8736 239.114 19.8736Z" fill="black"/>
<path d="M38.8837 125.047C38.8837 127.487 36.8065 129.465 34.2441 129.465C31.6818 129.465 29.6046 127.487 29.6046 125.047C29.6046 122.606 31.6818 120.628 34.2441 120.628C36.8065 120.628 38.8837 122.606 38.8837 125.047Z" fill="#C4C4C4"/>
<path d="M52.5813 125.047C52.5813 127.487 50.6031 129.465 48.1627 129.465C45.7224 129.465 43.7441 127.487 43.7441 125.047C43.7441 122.606 45.7224 120.628 48.1627 120.628C50.6031 120.628 52.5813 122.606 52.5813 125.047Z" fill="#C4C4C4"/>
<path d="M66.279 125.047C66.279 127.487 64.3007 129.465 61.8604 129.465C59.42 129.465 57.4418 127.487 57.4418 125.047C57.4418 122.606 59.42 120.628 61.8604 120.628C64.3007 120.628 66.279 122.606 66.279 125.047Z" fill="#C4C4C4"/>
<path d="M79.5348 125.047C79.5348 127.487 77.5566 129.465 75.1162 129.465C72.6759 129.465 70.6976 127.487 70.6976 125.047C70.6976 122.606 72.6759 120.628 75.1162 120.628C77.5566 120.628 79.5348 122.606 79.5348 125.047Z" fill="#C4C4C4"/>
<path d="M92.7908 125.047C92.7908 127.487 90.8125 129.465 88.3722 129.465C85.9319 129.465 83.9536 127.487 83.9536 125.047C83.9536 122.606 85.9319 120.628 88.3722 120.628C90.8125 120.628 92.7908 122.606 92.7908 125.047Z" fill="#C4C4C4"/>
<path d="M106.047 125.047C106.047 127.487 104.068 129.465 101.628 129.465C99.1877 129.465 97.2095 127.487 97.2095 125.047C97.2095 122.606 99.1877 120.628 101.628 120.628C104.068 120.628 106.047 122.606 106.047 125.047Z" fill="#C4C4C4"/>
<path d="M119.302 125.047C119.302 127.487 117.324 129.465 114.884 129.465C112.443 129.465 110.465 127.487 110.465 125.047C110.465 122.606 112.443 120.628 114.884 120.628C117.324 120.628 119.302 122.606 119.302 125.047Z" fill="#C4C4C4"/>
<path d="M132.558 125.047C132.558 127.487 130.58 129.465 128.14 129.465C125.699 129.465 123.721 127.487 123.721 125.047C123.721 122.606 125.699 120.628 128.14 120.628C130.58 120.628 132.558 122.606 132.558 125.047Z" fill="#C4C4C4"/>
<path d="M145.814 125.047C145.814 127.487 143.835 129.465 141.395 129.465C138.955 129.465 136.977 127.487 136.977 125.047C136.977 122.606 138.955 120.628 141.395 120.628C143.835 120.628 145.814 122.606 145.814 125.047Z" fill="#C4C4C4"/>
<path d="M159.07 125.047C159.07 127.487 157.091 129.465 154.651 129.465C152.211 129.465 150.232 127.487 150.232 125.047C150.232 122.606 152.211 120.628 154.651 120.628C157.091 120.628 159.07 122.606 159.07 125.047Z" fill="#C4C4C4"/>
<path d="M172.325 125.047C172.325 127.487 170.347 129.465 167.907 129.465C165.467 129.465 163.488 127.487 163.488 125.047C163.488 122.606 165.467 120.628 167.907 120.628C170.347 120.628 172.325 122.606 172.325 125.047Z" fill="#C4C4C4"/>
<path d="M185.581 125.047C185.581 127.487 183.603 129.465 181.163 129.465C178.722 129.465 176.744 127.487 176.744 125.047C176.744 122.606 178.722 120.628 181.163 120.628C183.603 120.628 185.581 122.606 185.581 125.047Z" fill="#C4C4C4"/>
<path d="M198.837 125.047C198.837 127.487 196.859 129.465 194.419 129.465C191.978 129.465 190 127.487 190 125.047C190 122.606 191.978 120.628 194.419 120.628C196.859 120.628 198.837 122.606 198.837 125.047Z" fill="#C4C4C4"/>
<path d="M212.093 125.047C212.093 127.487 210.115 129.465 207.675 129.465C205.234 129.465 203.256 127.487 203.256 125.047C203.256 122.606 205.234 120.628 207.675 120.628C210.115 120.628 212.093 122.606 212.093 125.047Z" fill="#C4C4C4"/>
<path d="M225.349 125.047C225.349 127.487 223.371 129.465 220.93 129.465C218.49 129.465 216.512 127.487 216.512 125.047C216.512 122.606 218.49 120.628 220.93 120.628C223.371 120.628 225.349 122.606 225.349 125.047Z" fill="#C4C4C4"/>
<path d="M38.8837 6.62808C38.8837 9.0684 36.8065 11.0467 34.2441 11.0467C31.6818 11.0467 29.6046 9.0684 29.6046 6.62808C29.6046 4.18775 31.6818 2.20947 34.2441 2.20947C36.8065 2.20947 38.8837 4.18775 38.8837 6.62808Z" fill="#C4C4C4"/>
<path d="M52.5813 6.62759C52.5813 9.06792 50.6031 11.0462 48.1627 11.0462C45.7224 11.0462 43.7441 9.06792 43.7441 6.62759C43.7441 4.18726 45.7224 2.20898 48.1627 2.20898C50.6031 2.20898 52.5813 4.18726 52.5813 6.62759Z" fill="#C4C4C4"/>
<path d="M66.279 6.62759C66.279 9.06792 64.3007 11.0462 61.8604 11.0462C59.42 11.0462 57.4418 9.06792 57.4418 6.62759C57.4418 4.18726 59.42 2.20898 61.8604 2.20898C64.3007 2.20898 66.279 4.18726 66.279 6.62759Z" fill="#C4C4C4"/>
<path d="M79.5348 6.62759C79.5348 9.06792 77.5566 11.0462 75.1162 11.0462C72.6759 11.0462 70.6976 9.06792 70.6976 6.62759C70.6976 4.18726 72.6759 2.20898 75.1162 2.20898C77.5566 2.20898 79.5348 4.18726 79.5348 6.62759Z" fill="#C4C4C4"/>
<path d="M92.7908 6.62759C92.7908 9.06792 90.8125 11.0462 88.3722 11.0462C85.9319 11.0462 83.9536 9.06792 83.9536 6.62759C83.9536 4.18726 85.9319 2.20898 88.3722 2.20898C90.8125 2.20898 92.7908 4.18726 92.7908 6.62759Z" fill="#C4C4C4"/>
<path d="M106.047 6.62759C106.047 9.06792 104.068 11.0462 101.628 11.0462C99.1877 11.0462 97.2095 9.06792 97.2095 6.62759C97.2095 4.18726 99.1877 2.20898 101.628 2.20898C104.068 2.20898 106.047 4.18726 106.047 6.62759Z" fill="#C4C4C4"/>
<path d="M119.302 6.62759C119.302 9.06792 117.324 11.0462 114.884 11.0462C112.443 11.0462 110.465 9.06792 110.465 6.62759C110.465 4.18726 112.443 2.20898 114.884 2.20898C117.324 2.20898 119.302 4.18726 119.302 6.62759Z" fill="#C4C4C4"/>
<path d="M132.558 6.62759C132.558 9.06792 130.58 11.0462 128.14 11.0462C125.699 11.0462 123.721 9.06792 123.721 6.62759C123.721 4.18726 125.699 2.20898 128.14 2.20898C130.58 2.20898 132.558 4.18726 132.558 6.62759Z" fill="#C4C4C4"/>
<path d="M145.814 6.62759C145.814 9.06792 143.835 11.0462 141.395 11.0462C138.955 11.0462 136.977 9.06792 136.977 6.62759C136.977 4.18726 138.955 2.20898 141.395 2.20898C143.835 2.20898 145.814 4.18726 145.814 6.62759Z" fill="#C4C4C4"/>
<path d="M159.07 6.62759C159.07 9.06792 157.091 11.0462 154.651 11.0462C152.211 11.0462 150.232 9.06792 150.232 6.62759C150.232 4.18726 152.211 2.20898 154.651 2.20898C157.091 2.20898 159.07 4.18726 159.07 6.62759Z" fill="#C4C4C4"/>
<path d="M172.325 6.62759C172.325 9.06792 170.347 11.0462 167.907 11.0462C165.467 11.0462 163.488 9.06792 163.488 6.62759C163.488 4.18726 165.467 2.20898 167.907 2.20898C170.347 2.20898 172.325 4.18726 172.325 6.62759Z" fill="#C4C4C4"/>
<path d="M185.581 6.62759C185.581 9.06792 183.603 11.0462 181.163 11.0462C178.722 11.0462 176.744 9.06792 176.744 6.62759C176.744 4.18726 178.722 2.20898 181.163 2.20898C183.603 2.20898 185.581 4.18726 185.581 6.62759Z" fill="#C4C4C4"/>
<path d="M198.837 6.62759C198.837 9.06792 196.859 11.0462 194.419 11.0462C191.978 11.0462 190 9.06792 190 6.62759C190 4.18726 191.978 2.20898 194.419 2.20898C196.859 2.20898 198.837 4.18726 198.837 6.62759Z" fill="#C4C4C4"/>
<path d="M212.093 6.62759C212.093 9.06792 210.115 11.0462 207.675 11.0462C205.234 11.0462 203.256 9.06792 203.256 6.62759C203.256 4.18726 205.234 2.20898 207.675 2.20898C210.115 2.20898 212.093 4.18726 212.093 6.62759Z" fill="#C4C4C4"/>
<path d="M225.349 6.62759C225.349 9.06792 223.371 11.0462 220.93 11.0462C218.49 11.0462 216.512 9.06792 216.512 6.62759C216.512 4.18726 218.49 2.20898 220.93 2.20898C223.371 2.20898 225.349 4.18726 225.349 6.62759Z" fill="#C4C4C4"/>
<path fill-rule="evenodd" clip-rule="evenodd" d="M26.1083 47.7207H2.17064C1.45986 47.7207 0.883667 48.2888 0.883667 48.9896V84.01C0.883667 84.7108 1.45986 85.2788 2.17064 85.2788H26.1083C26.8191 85.2788 27.3953 84.7108 27.3953 84.01V80.3303C27.3953 79.6295 26.8191 79.0614 26.1083 79.0614H23.7918C23.081 79.0614 22.5048 78.4934 22.5048 77.7926V76.5237C22.5048 75.823 23.081 75.2549 23.7918 75.2549H25.0787C25.7895 75.2549 26.3657 74.6868 26.3657 73.986V70.8773C26.3657 70.3517 25.9336 69.9257 25.4005 69.9257C24.8674 69.9257 24.4353 69.4996 24.4353 68.974V63.3911C24.4353 62.8655 24.8674 62.4394 25.4005 62.4394C25.9336 62.4394 26.3657 62.0134 26.3657 61.4878V58.6329C26.3657 57.9321 25.7895 57.364 25.0787 57.364H23.7918C23.081 57.364 22.5048 56.7959 22.5048 56.0952V54.9532C22.5048 54.2524 23.081 53.6843 23.7918 53.6843H26.1083C26.8191 53.6843 27.3953 53.1162 27.3953 52.4155V48.9896C27.3953 48.2888 26.8191 47.7207 26.1083 47.7207ZM6.03156 80.0765V75.8893C6.03156 75.3287 6.49251 74.8742 7.06113 74.8742H7.38288C7.7738 74.8742 8.09071 75.1867 8.09071 75.5721C8.09071 75.9575 8.40762 76.27 8.79855 76.27H12.7238C13.4346 76.27 14.0108 76.8381 14.0108 77.5388V78.1732C14.0108 78.874 13.4346 79.4421 12.7238 79.4421H8.92724C8.46524 79.4421 8.09071 79.8114 8.09071 80.2669C8.09071 80.7224 7.71618 81.0916 7.25418 81.0916H7.06113C6.49251 81.0916 6.03156 80.6371 6.03156 80.0765ZM6.03156 52.7961V56.9834C6.03156 57.544 6.49251 57.9984 7.06113 57.9984H7.25418C7.71618 57.9984 8.09071 57.6292 8.09071 57.1737C8.09071 56.7182 8.46524 56.3489 8.92724 56.3489H12.7238C13.4346 56.3489 14.0108 55.7808 14.0108 55.0801V54.4456C14.0108 53.7449 13.4346 53.1768 12.7238 53.1768H8.79855C8.40762 53.1768 8.09071 52.8643 8.09071 52.4789C8.09071 52.0935 7.7738 51.781 7.38288 51.781H7.06113C6.49251 51.781 6.03156 52.2355 6.03156 52.7961Z" fill="#C4C4C4"/>
<path d="M5.30225 91.8492C5.30225 91.1491 5.87072 90.5815 6.57196 90.5815H26.1256C26.8268 90.5815 27.3953 91.1491 27.3953 91.8492V104.779C27.3953 105.479 26.8268 106.047 26.1256 106.047H6.57196C5.87072 106.047 5.30225 105.479 5.30225 104.779V91.8492Z" fill="#C4C4C4"/>
<path d="M21.2093 98.3143C21.2093 101.121 18.9343 103.396 16.1279 103.396C13.3215 103.396 11.0465 101.121 11.0465 98.3143C11.0465 95.5079 13.3215 93.2329 16.1279 93.2329C18.9343 93.2329 21.2093 95.5079 21.2093 98.3143Z" fill="#393939"/>
<path d="M5.30225 28.221C5.30225 27.5209 5.87072 26.9534 6.57196 26.9534H26.1256C26.8268 26.9534 27.3953 27.5209 27.3953 28.221V41.1509C27.3953 41.8509 26.8268 42.4185 26.1256 42.4185H6.57196C5.87072 42.4185 5.30225 41.8509 5.30225 41.1509V28.221Z" fill="#C4C4C4"/>
<path d="M21.2093 34.6864C21.2093 37.4928 18.9343 39.7678 16.1279 39.7678C13.3215 39.7678 11.0465 37.4928 11.0465 34.6864C11.0465 31.88 13.3215 29.605 16.1279 29.605C18.9343 29.605 21.2093 31.88 21.2093 34.6864Z" fill="#393939"/>
<path d="M46.837 39.3254H51.6975V41.9766H46.837V39.3254Z" fill="#C4C4C4"/>
<path d="M47.7211 39.3254H50.3722V41.9766H47.7211V39.3254Z" fill="#727171"/>
<path d="M44.6279 38.9326C44.6279 38.6615 44.8752 38.4417 45.1803 38.4417H46.2849C46.5899 38.4417 46.8372 38.6615 46.8372 38.9326V42.3693C46.8372 42.6404 46.5899 42.8603 46.2849 42.8603H45.1803C44.8752 42.8603 44.6279 42.6404 44.6279 42.3693V38.9326Z" fill="#C4C4C4"/>
<path d="M51.6975 38.9324C51.6975 38.6612 51.9448 38.4414 52.2498 38.4414H53.3545C53.6595 38.4414 53.9068 38.6612 53.9068 38.9324V42.3691C53.9068 42.6402 53.6595 42.86 53.3545 42.86H52.2498C51.9448 42.86 51.6975 42.6402 51.6975 42.3691V38.9324Z" fill="#C4C4C4"/>
<path d="M46.837 47.7207H51.6975V50.3719H46.837V47.7207Z" fill="#C4C4C4"/>
<path d="M47.7211 47.7207H50.3722V50.3719H47.7211V47.7207Z" fill="#727171"/>
<path d="M44.6279 47.3284C44.6279 47.0572 44.8752 46.8374 45.1803 46.8374H46.2849C46.5899 46.8374 46.8372 47.0572 46.8372 47.3284V50.7651C46.8372 51.0362 46.5899 51.256 46.2849 51.256H45.1803C44.8752 51.256 44.6279 51.0362 44.6279 50.7651V47.3284Z" fill="#C4C4C4"/>
<path d="M51.6975 47.3284C51.6975 47.0572 51.9448 46.8374 52.2498 46.8374H53.3545C53.6595 46.8374 53.9068 47.0572 53.9068 47.3284V50.7651C53.9068 51.0362 53.6595 51.256 53.3545 51.256H52.2498C51.9448 51.256 51.6975 51.0362 51.6975 50.7651V47.3284Z" fill="#C4C4C4"/>
<path d="M73.7908 21.2097H78.6512V23.8609H73.7908V21.2097Z" fill="#C4C4C4"/>
<path d="M75.1162 21.2097H77.3255V23.8609H75.1162V21.2097Z" fill="#727171"/>
<path d="M72.0234 20.866C72.0234 20.5677 72.2213 20.3259 72.4653 20.3259H73.349C73.5931 20.3259 73.7909 20.5677 73.7909 20.866V24.6463C73.7909 24.9446 73.5931 25.1864 73.349 25.1864H72.4653C72.2213 25.1864 72.0234 24.9446 72.0234 24.6463V20.866Z" fill="#C4C4C4"/>
<path d="M78.651 20.8657C78.651 20.5675 78.8983 20.3257 79.2033 20.3257H80.308C80.613 20.3257 80.8603 20.5675 80.8603 20.8657V24.6461C80.8603 24.9444 80.613 25.1861 80.308 25.1861H79.2033C78.8983 25.1861 78.651 24.9444 78.651 24.6461V20.8657Z" fill="#C4C4C4"/>
<path d="M185.14 18.9998H190V21.2091H185.14V18.9998Z" fill="#C4C4C4"/>
<path d="M186.465 18.9998H188.675V21.2091H186.465V18.9998Z" fill="#727171"/>
<path d="M183.372 18.2146C183.372 17.9163 183.57 17.6746 183.814 17.6746H184.698C184.942 17.6746 185.14 17.9163 185.14 18.2146V21.995C185.14 22.2932 184.942 22.535 184.698 22.535H183.814C183.57 22.535 183.372 22.2932 183.372 21.995V18.2146Z" fill="#C4C4C4"/>
<path d="M190 18.2141C190 17.9159 190.247 17.6741 190.552 17.6741H191.657C191.962 17.6741 192.209 17.9159 192.209 18.2141V21.9945C192.209 22.2927 191.962 22.5345 191.657 22.5345H190.552C190.247 22.5345 190 22.2927 190 21.9945V18.2141Z" fill="#C4C4C4"/>
<path d="M199.721 18.9998H204.582V21.6509H199.721V18.9998Z" fill="#C4C4C4"/>
<path d="M200.605 18.9998H203.256V21.6509H200.605V18.9998Z" fill="#727171"/>
<path d="M197.512 18.6079C197.512 18.3368 197.759 18.1169 198.064 18.1169H199.169C199.474 18.1169 199.721 18.3368 199.721 18.6079V22.0446C199.721 22.3157 199.474 22.5355 199.169 22.5355H198.064C197.759 22.5355 197.512 22.3157 197.512 22.0446V18.6079Z" fill="#C4C4C4"/>
<path d="M204.581 18.6074C204.581 18.3363 204.829 18.1165 205.134 18.1165H206.238C206.543 18.1165 206.791 18.3363 206.791 18.6074V22.0441C206.791 22.3153 206.543 22.5351 206.238 22.5351H205.134C204.829 22.5351 204.581 22.3153 204.581 22.0441V18.6074Z" fill="#C4C4C4"/>
<path d="M214.302 18.9998H219.163V21.6509H214.302V18.9998Z" fill="#C4C4C4"/>
<path d="M215.186 18.9998H217.837V21.6509H215.186V18.9998Z" fill="#727171"/>
<path d="M212.093 18.6079C212.093 18.3368 212.34 18.1169 212.645 18.1169H213.75C214.055 18.1169 214.302 18.3368 214.302 18.6079V22.0446C214.302 22.3157 214.055 22.5355 213.75 22.5355H212.645C212.34 22.5355 212.093 22.3157 212.093 22.0446V18.6079Z" fill="#C4C4C4"/>
<path d="M219.163 18.6074C219.163 18.3363 219.41 18.1165 219.715 18.1165H220.82C221.125 18.1165 221.372 18.3363 221.372 18.6074V22.0441C221.372 22.3153 221.125 22.5351 220.82 22.5351H219.715C219.41 22.5351 219.163 22.3153 219.163 22.0441V18.6074Z" fill="#C4C4C4"/>
<path d="M73.7908 30.4883H78.6512V32.6976H73.7908V30.4883Z" fill="#C4C4C4"/>
<path d="M75.1162 30.4883H77.3255V32.6976H75.1162V30.4883Z" fill="#727171"/>
<path d="M72.0234 29.7026C72.0234 29.4044 72.2213 29.1626 72.4653 29.1626H73.349C73.5931 29.1626 73.7909 29.4044 73.7909 29.7026V33.483C73.7909 33.7813 73.5931 34.0231 73.349 34.0231H72.4653C72.2213 34.0231 72.0234 33.7813 72.0234 33.483V29.7026Z" fill="#C4C4C4"/>
<path d="M78.651 29.7026C78.651 29.4044 78.8983 29.1626 79.2033 29.1626H80.308C80.613 29.1626 80.8603 29.4044 80.8603 29.7026V33.483C80.8603 33.7813 80.613 34.0231 80.308 34.0231H79.2033C78.8983 34.0231 78.651 33.7813 78.651 33.483V29.7026Z" fill="#C4C4C4"/>
<path d="M73.7908 39.3254H78.6512V41.9766H73.7908V39.3254Z" fill="#C4C4C4"/>
<path d="M75.1162 39.3254H77.3255V41.9766H75.1162V39.3254Z" fill="#727171"/>
<path d="M72.0234 38.5403C72.0234 38.242 72.2213 38.0002 72.4653 38.0002H73.349C73.5931 38.0002 73.7909 38.242 73.7909 38.5403V42.3207C73.7909 42.6189 73.5931 42.8607 73.349 42.8607H72.4653C72.2213 42.8607 72.0234 42.6189 72.0234 42.3207V38.5403Z" fill="#C4C4C4"/>
<path d="M78.651 38.5398C78.651 38.2415 78.8983 37.9998 79.2033 37.9998H80.308C80.613 37.9998 80.8603 38.2415 80.8603 38.5398V42.3202C80.8603 42.6184 80.613 42.8602 80.308 42.8602H79.2033C78.8983 42.8602 78.651 42.6184 78.651 42.3202V38.5398Z" fill="#C4C4C4"/>
<path d="M73.7908 48.1624H78.6512V50.8135H73.7908V48.1624Z" fill="#C4C4C4"/>
<path d="M75.1162 48.1624H77.3255V50.8135H75.1162V48.1624Z" fill="#727171"/>
<path d="M72.0234 47.7707C72.0234 47.4996 72.2213 47.2798 72.4653 47.2798H73.349C73.5931 47.2798 73.7909 47.4996 73.7909 47.7707V51.2074C73.7909 51.4786 73.5931 51.6984 73.349 51.6984H72.4653C72.2213 51.6984 72.0234 51.4786 72.0234 51.2074V47.7707Z" fill="#C4C4C4"/>
<path d="M78.651 47.77C78.651 47.4989 78.8983 47.2791 79.2033 47.2791H80.308C80.613 47.2791 80.8603 47.4989 80.8603 47.77V51.2067C80.8603 51.4778 80.613 51.6977 80.308 51.6977H79.2033C78.8983 51.6977 78.651 51.4778 78.651 51.2067V47.77Z" fill="#C4C4C4"/>
<path d="M73.7908 56.1162H78.6512V58.7674H73.7908V56.1162Z" fill="#C4C4C4"/>
<path d="M75.1162 56.1162H77.3255V58.7674H75.1162V56.1162Z" fill="#727171"/>
<path d="M72.0234 55.7744C72.0234 55.4762 72.2213 55.2344 72.4653 55.2344H73.349C73.5931 55.2344 73.7909 55.4762 73.7909 55.7744V59.5548C73.7909 59.8531 73.5931 60.0948 73.349 60.0948H72.4653C72.2213 60.0948 72.0234 59.8531 72.0234 59.5548V55.7744Z" fill="#C4C4C4"/>
<path d="M78.651 55.7727C78.651 55.4745 78.8983 55.2327 79.2033 55.2327H80.308C80.613 55.2327 80.8603 55.4745 80.8603 55.7727V59.5531C80.8603 59.8513 80.613 60.0931 80.308 60.0931H79.2033C78.8983 60.0931 78.651 59.8513 78.651 59.5531V55.7727Z" fill="#C4C4C4"/>
<path d="M73.7908 64.5115H78.6512V67.1626H73.7908V64.5115Z" fill="#C4C4C4"/>
<path d="M75.1162 64.5115H77.3255V67.1626H75.1162V64.5115Z" fill="#727171"/>
<path d="M72.0234 64.1687C72.0234 63.8705 72.2213 63.6287 72.4653 63.6287H73.349C73.5931 63.6287 73.7909 63.8705 73.7909 64.1687V67.9491C73.7909 68.2473 73.5931 68.4891 73.349 68.4891H72.4653C72.2213 68.4891 72.0234 68.2473 72.0234 67.9491V64.1687Z" fill="#C4C4C4"/>
<path d="M78.651 64.168C78.651 63.8697 78.8983 63.6279 79.2033 63.6279H80.308C80.613 63.6279 80.8603 63.8697 80.8603 64.168V67.9483C80.8603 68.2466 80.613 68.4884 80.308 68.4884H79.2033C78.8983 68.4884 78.651 68.2466 78.651 67.9483V64.168Z" fill="#C4C4C4"/>
<path d="M73.7908 72.9067H78.6512V75.5579H73.7908V72.9067Z" fill="#C4C4C4"/>
<path d="M75.1162 72.9067H77.3255V75.5579H75.1162V72.9067Z" fill="#727171"/>
<path d="M72.0234 72.5637C72.0234 72.2655 72.2213 72.0237 72.4653 72.0237H73.349C73.5931 72.0237 73.7909 72.2655 73.7909 72.5637V76.3441C73.7909 76.6424 73.5931 76.8841 73.349 76.8841H72.4653C72.2213 76.8841 72.0234 76.6424 72.0234 76.3441V72.5637Z" fill="#C4C4C4"/>
<path d="M78.651 72.5635C78.651 72.2652 78.8983 72.0234 79.2033 72.0234H80.308C80.613 72.0234 80.8603 72.2652 80.8603 72.5635V76.3439C80.8603 76.6421 80.613 76.8839 80.308 76.8839H79.2033C78.8983 76.8839 78.651 76.6421 78.651 76.3439V72.5635Z" fill="#C4C4C4"/>
<path d="M73.7908 82.186H78.6512V84.3953H73.7908V82.186Z" fill="#C4C4C4"/>
<path d="M75.1162 82.186H77.3255V84.3953H75.1162V82.186Z" fill="#727171"/>
<path d="M72.0234 81.4021C72.0234 81.1038 72.2213 80.8621 72.4653 80.8621H73.349C73.5931 80.8621 73.7909 81.1038 73.7909 81.4021V85.1825C73.7909 85.4807 73.5931 85.7225 73.349 85.7225H72.4653C72.2213 85.7225 72.0234 85.4807 72.0234 85.1825V81.4021Z" fill="#C4C4C4"/>
<path d="M78.651 81.4004C78.651 81.1021 78.8983 80.8604 79.2033 80.8604H80.308C80.613 80.8604 80.8603 81.1021 80.8603 81.4004V85.1808C80.8603 85.479 80.613 85.7208 80.308 85.7208H79.2033C78.8983 85.7208 78.651 85.479 78.651 85.1808V81.4004Z" fill="#C4C4C4"/>
<path d="M73.7908 90.5815H78.6512V92.7908H73.7908V90.5815Z" fill="#C4C4C4"/>
<path d="M75.1162 90.5815H77.3255V92.7908H75.1162V90.5815Z" fill="#727171"/>
<path d="M72.0234 89.7969C72.0234 89.4986 72.2213 89.2568 72.4653 89.2568H73.349C73.5931 89.2568 73.7909 89.4986 73.7909 89.7969V93.5772C73.7909 93.8755 73.5931 94.1173 73.349 94.1173H72.4653C72.2213 94.1173 72.0234 93.8755 72.0234 93.5772V89.7969Z" fill="#C4C4C4"/>
<path d="M78.651 89.7959C78.651 89.4976 78.8983 89.2559 79.2033 89.2559H80.308C80.613 89.2559 80.8603 89.4976 80.8603 89.7959V93.5763C80.8603 93.8745 80.613 94.1163 80.308 94.1163H79.2033C78.8983 94.1163 78.651 93.8745 78.651 93.5763V89.7959Z" fill="#C4C4C4"/>
<path d="M73.7908 99.4185H78.6512V102.07H73.7908V99.4185Z" fill="#C4C4C4"/>
<path d="M75.1162 99.4185H77.3255V102.07H75.1162V99.4185Z" fill="#727171"/>
<path d="M72.0234 99.0268C72.0234 98.7557 72.2213 98.5359 72.4653 98.5359H73.349C73.5931 98.5359 73.7909 98.7557 73.7909 99.0268V102.464C73.7909 102.735 73.5931 102.954 73.349 102.954H72.4653C72.2213 102.954 72.0234 102.735 72.0234 102.464V99.0268Z" fill="#C4C4C4"/>
<path d="M78.651 99.0261C78.651 98.755 78.8983 98.5352 79.2033 98.5352H80.308C80.613 98.5352 80.8603 98.755 80.8603 99.0261V102.463C80.8603 102.734 80.613 102.954 80.308 102.954H79.2033C78.8983 102.954 78.651 102.734 78.651 102.463V99.0261Z" fill="#C4C4C4"/>
<path d="M73.7908 99.4185H78.6512V102.07H73.7908V99.4185Z" fill="#C4C4C4"/>
<path d="M75.1162 99.4185H77.3255V102.07H75.1162V99.4185Z" fill="#727171"/>
<path d="M72.0234 99.0268C72.0234 98.7557 72.2213 98.5359 72.4653 98.5359H73.349C73.5931 98.5359 73.7909 98.7557 73.7909 99.0268V102.464C73.7909 102.735 73.5931 102.954 73.349 102.954H72.4653C72.2213 102.954 72.0234 102.735 72.0234 102.464V99.0268Z" fill="#C4C4C4"/>
<path d="M78.651 99.0261C78.651 98.755 78.8983 98.5352 79.2033 98.5352H80.308C80.613 98.5352 80.8603 98.755 80.8603 99.0261V102.463C80.8603 102.734 80.613 102.954 80.308 102.954H79.2033C78.8983 102.954 78.651 102.734 78.651 102.463V99.0261Z" fill="#C4C4C4"/>
<path d="M73.7908 107.814H78.6512V110.465H73.7908V107.814Z" fill="#C4C4C4"/>
<path d="M75.1162 107.814H77.3255V110.465H75.1162V107.814Z" fill="#727171"/>
<path d="M72.0234 107.422C72.0234 107.15 72.2213 106.931 72.4653 106.931H73.349C73.5931 106.931 73.7909 107.15 73.7909 107.422V110.858C73.7909 111.129 73.5931 111.349 73.349 111.349H72.4653C72.2213 111.349 72.0234 111.129 72.0234 110.858V107.422Z" fill="#C4C4C4"/>
<path d="M78.651 107.421C78.651 107.15 78.8983 106.93 79.2033 106.93H80.308C80.613 106.93 80.8603 107.15 80.8603 107.421V110.858C80.8603 111.129 80.613 111.349 80.308 111.349H79.2033C78.8983 111.349 78.651 111.129 78.651 110.858V107.421Z" fill="#C4C4C4"/>
<path d="M139.186 111.791H144.046V114.442H139.186V111.791Z" fill="#C4C4C4"/>
<path d="M140.512 111.791H142.721V114.442H140.512V111.791Z" fill="#727171"/>
<path d="M137.419 111.4C137.419 111.129 137.616 110.909 137.86 110.909H138.744C138.988 110.909 139.186 111.129 139.186 111.4V114.837C139.186 115.108 138.988 115.328 138.744 115.328H137.86C137.616 115.328 137.419 115.108 137.419 114.837V111.4Z" fill="#C4C4C4"/>
<path d="M144.047 111.398C144.047 111.127 144.294 110.907 144.599 110.907H145.703C146.009 110.907 146.256 111.127 146.256 111.398V114.835C146.256 115.106 146.009 115.326 145.703 115.326H144.599C144.294 115.326 144.047 115.106 144.047 114.835V111.398Z" fill="#C4C4C4"/>
<path d="M154.651 111.791H159.512V114.442H154.651V111.791Z" fill="#C4C4C4"/>
<path d="M155.535 111.791H158.186V114.442H155.535V111.791Z" fill="#727171"/>
<path d="M152.442 111.4C152.442 111.129 152.689 110.909 152.994 110.909H154.099C154.404 110.909 154.651 111.129 154.651 111.4V114.837C154.651 115.108 154.404 115.328 154.099 115.328H152.994C152.689 115.328 152.442 115.108 152.442 114.837V111.4Z" fill="#C4C4C4"/>
<path d="M159.512 111.398C159.512 111.127 159.759 110.907 160.064 110.907H161.169C161.474 110.907 161.721 111.127 161.721 111.398V114.835C161.721 115.106 161.474 115.326 161.169 115.326H160.064C159.759 115.326 159.512 115.106 159.512 114.835V111.398Z" fill="#C4C4C4"/>
<path d="M170.116 111.791H174.977V114.442H170.116V111.791Z" fill="#C4C4C4"/>
<path d="M171 111.791H173.651V114.442H171V111.791Z" fill="#727171"/>
<path d="M167.907 111.4C167.907 111.129 168.154 110.909 168.459 110.909H169.564C169.869 110.909 170.116 111.129 170.116 111.4V114.837C170.116 115.108 169.869 115.328 169.564 115.328H168.459C168.154 115.328 167.907 115.108 167.907 114.837V111.4Z" fill="#C4C4C4"/>
<path d="M174.977 111.398C174.977 111.127 175.175 110.907 175.419 110.907H176.302C176.546 110.907 176.744 111.127 176.744 111.398V114.835C176.744 115.106 176.546 115.326 176.302 115.326H175.419C175.175 115.326 174.977 115.106 174.977 114.835V111.398Z" fill="#C4C4C4"/>
<path d="M60.5349 37.1162H65.3954V51.2557H60.5349V37.1162Z" fill="#C4C4C4"/>
<path d="M59.2521 22.5347C59.9606 22.5347 60.5349 23.0842 60.5349 23.7621L60.5349 27.9352C60.5349 28.6131 59.9606 29.1626 59.2521 29.1626L45.9108 29.1626C45.2023 29.1626 44.6279 28.6131 44.6279 27.9352L44.6279 23.7621C44.6279 23.0842 45.2023 22.5347 45.9108 22.5347L59.2521 22.5347Z" fill="#C4C4C4"/>
<path d="M47.7211 23.0256C47.7211 22.7545 47.9563 22.5347 48.2465 22.5347H56.9165C57.2067 22.5347 57.442 22.7545 57.442 23.0256V28.6716C57.442 28.9428 57.2067 29.1626 56.9165 29.1626H48.2465C47.9563 29.1626 47.7211 28.9428 47.7211 28.6716V23.0256Z" fill="#393939"/>
<path d="M54.349 96.91C54.349 96.3433 54.8294 95.8838 55.4221 95.8838H60.7875C61.3802 95.8838 61.8606 96.3433 61.8606 96.91V110.765C61.8606 111.331 61.3802 111.791 60.7875 111.791H55.4221C54.8294 111.791 54.349 111.331 54.349 110.765V96.91Z" fill="#393939"/>
<path d="M47.7211 101.186H54.349V106.047H47.7211V101.186Z" fill="#C4C4C4"/>
<path d="M61.8606 97.2095H65.3955V101.186H61.8606V97.2095Z" fill="#C4C4C4"/>
<path d="M61.8606 106.93H65.3955V110.907H61.8606V106.93Z" fill="#C4C4C4"/>
<path d="M97.2095 110.764C97.2095 111.331 96.7573 111.791 96.1995 111.791L91.1497 111.791C90.5919 111.791 90.1397 111.331 90.1397 110.764L90.1397 96.9098C90.1397 96.343 90.5919 95.8836 91.1497 95.8836L96.1995 95.8836C96.7573 95.8836 97.2095 96.343 97.2095 96.9098L97.2095 110.764Z" fill="#393939"/>
<path d="M103.837 106.488L97.2093 106.488L97.2093 101.628L103.837 101.628L103.837 106.488Z" fill="#C4C4C4"/>
<path d="M90.1395 110.465L86.6046 110.465L86.6046 106.046L90.1395 106.046L90.1395 110.465Z" fill="#C4C4C4"/>
<path d="M90.1395 100.744L86.6046 100.744L86.6046 96.7676L90.1395 96.7676L90.1395 100.744Z" fill="#C4C4C4"/>
<path d="M88.3724 65.7846C88.3724 65.0815 88.94 64.5115 89.6401 64.5115H118.035C118.735 64.5115 119.303 65.0815 119.303 65.7846V78.2616C119.303 78.9647 118.735 79.5347 118.035 79.5347H89.6401C88.94 79.5347 88.3724 78.9647 88.3724 78.2616V65.7846Z" fill="#393939"/>
<path d="M90.1398 53.4646H93.6747V64.5111H90.1398V53.4646Z" fill="#C4C4C4"/>
<path d="M102.07 53.4646H106.047V64.5111H102.07V53.4646Z" fill="#C4C4C4"/>
<path d="M114.442 53.4646H118.419V64.5111H114.442V53.4646Z" fill="#C4C4C4"/>
<path d="M111.791 85.2788L111.791 91.023L95.8838 91.023L95.8838 85.2788L111.791 85.2788Z" fill="#C4C4C4"/>
<path d="M42.4185 57.9724C42.4185 57.6795 42.6559 57.4421 42.9487 57.4421H43.2138C43.5066 57.4421 43.744 57.6795 43.744 57.9724V59.5631C43.744 59.8559 43.5066 60.0933 43.2138 60.0933H42.9487C42.6559 60.0933 42.4185 59.8559 42.4185 59.5631V57.9724Z" fill="#C4C4C4"/>
<path d="M44.6276 57.9719C44.6276 57.679 44.865 57.4417 45.1578 57.4417H45.4229C45.7158 57.4417 45.9531 57.679 45.9531 57.9719V59.5626C45.9531 59.8554 45.7158 60.0928 45.4229 60.0928H45.1578C44.865 60.0928 44.6276 59.8554 44.6276 59.5626V57.9719Z" fill="#C4C4C4"/>
<path d="M47.2787 57.9719C47.2787 57.679 47.5161 57.4417 47.8089 57.4417H48.074C48.3669 57.4417 48.6043 57.679 48.6043 57.9719V59.5626C48.6043 59.8554 48.3669 60.0928 48.074 60.0928H47.8089C47.5161 60.0928 47.2787 59.8554 47.2787 59.5626V57.9719Z" fill="#C4C4C4"/>
<path d="M49.9298 57.9719C49.9298 57.679 50.1672 57.4417 50.46 57.4417H50.7252C51.018 57.4417 51.2554 57.679 51.2554 57.9719V59.5626C51.2554 59.8554 51.018 60.0928 50.7252 60.0928H50.46C50.1672 60.0928 49.9298 59.8554 49.9298 59.5626V57.9719Z" fill="#C4C4C4"/>
<path d="M52.5813 57.9719C52.5813 57.679 52.8187 57.4417 53.1115 57.4417H53.3766C53.6695 57.4417 53.9069 57.679 53.9069 57.9719V59.5626C53.9069 59.8554 53.6695 60.0928 53.3766 60.0928H53.1115C52.8187 60.0928 52.5813 59.8554 52.5813 59.5626V57.9719Z" fill="#C4C4C4"/>
<path d="M55.2324 57.9719C55.2324 57.679 55.3907 57.4417 55.5859 57.4417H55.7627C55.9579 57.4417 56.1161 57.679 56.1161 57.9719V59.5626C56.1161 59.8554 55.9579 60.0928 55.7627 60.0928H55.5859C55.3907 60.0928 55.2324 59.8554 55.2324 59.5626V57.9719Z" fill="#C4C4C4"/>
<path d="M57.4418 57.9719C57.4418 57.679 57.6792 57.4417 57.972 57.4417H58.2371C58.53 57.4417 58.7674 57.679 58.7674 57.9719V59.5626C58.7674 59.8554 58.53 60.0928 58.2371 60.0928H57.972C57.6792 60.0928 57.4418 59.8554 57.4418 59.5626V57.9719Z" fill="#C4C4C4"/>
<path d="M42.4185 84.9255C42.4185 84.6327 42.6559 84.3953 42.9487 84.3953H43.2138C43.5066 84.3953 43.744 84.6327 43.744 84.9255V86.5162C43.744 86.809 43.5066 87.0464 43.2138 87.0464H42.9487C42.6559 87.0464 42.4185 86.809 42.4185 86.5162V84.9255Z" fill="#C4C4C4"/>
<path d="M44.6276 84.9255C44.6276 84.6327 44.865 84.3953 45.1578 84.3953H45.4229C45.7158 84.3953 45.9531 84.6327 45.9531 84.9255V86.5162C45.9531 86.809 45.7158 87.0464 45.4229 87.0464H45.1578C44.865 87.0464 44.6276 86.809 44.6276 86.5162V84.9255Z" fill="#C4C4C4"/>
<path d="M47.2787 84.9255C47.2787 84.6327 47.5161 84.3953 47.8089 84.3953H48.074C48.3669 84.3953 48.6043 84.6327 48.6043 84.9255V86.5162C48.6043 86.809 48.3669 87.0464 48.074 87.0464H47.8089C47.5161 87.0464 47.2787 86.809 47.2787 86.5162V84.9255Z" fill="#C4C4C4"/>
<path d="M49.9298 84.9255C49.9298 84.6327 50.1672 84.3953 50.46 84.3953H50.7252C51.018 84.3953 51.2554 84.6327 51.2554 84.9255V86.5162C51.2554 86.809 51.018 87.0464 50.7252 87.0464H50.46C50.1672 87.0464 49.9298 86.809 49.9298 86.5162V84.9255Z" fill="#C4C4C4"/>
<path d="M52.5813 84.9255C52.5813 84.6327 52.8187 84.3953 53.1115 84.3953H53.3766C53.6695 84.3953 53.9069 84.6327 53.9069 84.9255V86.5162C53.9069 86.809 53.6695 87.0464 53.3766 87.0464H53.1115C52.8187 87.0464 52.5813 86.809 52.5813 86.5162V84.9255Z" fill="#C4C4C4"/>
<path d="M55.2324 84.9255C55.2324 84.6327 55.3907 84.3953 55.5859 84.3953H55.7627C55.9579 84.3953 56.1161 84.6327 56.1161 84.9255V86.5162C56.1161 86.809 55.9579 87.0464 55.7627 87.0464H55.5859C55.3907 87.0464 55.2324 86.809 55.2324 86.5162V84.9255Z" fill="#C4C4C4"/>
<path d="M57.4418 84.9255C57.4418 84.6327 57.6792 84.3953 57.972 84.3953H58.2371C58.53 84.3953 58.7674 84.6327 58.7674 84.9255V86.5162C58.7674 86.809 58.53 87.0464 58.2371 87.0464H57.972C57.6792 87.0464 57.4418 86.809 57.4418 86.5162V84.9255Z" fill="#C4C4C4"/>
<path d="M63.2743 80.4187C62.9814 80.4187 62.744 80.1813 62.744 79.8885V79.6234C62.744 79.3305 62.9814 79.0931 63.2743 79.0931H64.8649C65.1578 79.0931 65.3952 79.3305 65.3952 79.6234V79.8885C65.3952 80.1813 65.1578 80.4187 64.8649 80.4187H63.2743Z" fill="#C4C4C4"/>
<path d="M63.2743 77.7673C62.9814 77.7673 62.744 77.6091 62.744 77.4138V77.2371C62.744 77.0419 62.9814 76.8836 63.2743 76.8836H64.8649C65.1578 76.8836 65.3952 77.0419 65.3952 77.2371V77.4138C65.3952 77.6091 65.1578 77.7673 64.8649 77.7673H63.2743Z" fill="#C4C4C4"/>
<path d="M63.2743 75.5581C62.9814 75.5581 62.744 75.3207 62.744 75.0279V74.7628C62.744 74.4699 62.9814 74.2325 63.2743 74.2325H64.8649C65.1578 74.2325 65.3952 74.4699 65.3952 74.7628V75.0279C65.3952 75.3207 65.1578 75.5581 64.8649 75.5581H63.2743Z" fill="#C4C4C4"/>
<path d="M63.2743 72.9067C62.9814 72.9067 62.744 72.6693 62.744 72.3765V72.1114C62.744 71.8186 62.9814 71.5812 63.2743 71.5812H64.8649C65.1578 71.5812 65.3952 71.8186 65.3952 72.1114V72.3765C65.3952 72.6693 65.1578 72.9067 64.8649 72.9067H63.2743Z" fill="#C4C4C4"/>
<path d="M63.2743 70.2554C62.9814 70.2554 62.744 70.018 62.744 69.7251V69.46C62.744 69.1672 62.9814 68.9298 63.2743 68.9298H64.8649C65.1578 68.9298 65.3952 69.1672 65.3952 69.46V69.7251C65.3952 70.018 65.1578 70.2554 64.8649 70.2554H63.2743Z" fill="#C4C4C4"/>
<path d="M63.2743 67.6045C62.9814 67.6045 62.744 67.3671 62.744 67.0743V66.8091C62.744 66.5163 62.9814 66.2789 63.2743 66.2789H64.8649C65.1578 66.2789 65.3952 66.5163 65.3952 66.8091V67.0743C65.3952 67.3671 65.1578 67.6045 64.8649 67.6045H63.2743Z" fill="#C4C4C4"/>
<path d="M63.2743 65.3955C62.9814 65.3955 62.744 65.1581 62.744 64.8653V64.6002C62.744 64.3073 62.9814 64.0699 63.2743 64.0699H64.8649C65.1578 64.0699 65.3952 64.3073 65.3952 64.6002V64.8653C65.3952 65.1581 65.1578 65.3955 64.8649 65.3955H63.2743Z" fill="#C4C4C4"/>
<path d="M36.3208 80.4187C36.0279 80.4187 35.7905 80.1813 35.7905 79.8885V79.6234C35.7905 79.3305 36.0279 79.0931 36.3208 79.0931H37.9115C38.2043 79.0931 38.4417 79.3305 38.4417 79.6234V79.8885C38.4417 80.1813 38.2043 80.4187 37.9115 80.4187H36.3208Z" fill="#C4C4C4"/>
<path d="M36.3208 77.7673C36.0279 77.7673 35.7905 77.6091 35.7905 77.4138V77.2371C35.7905 77.0419 36.0279 76.8836 36.3208 76.8836H37.9115C38.2043 76.8836 38.4417 77.0419 38.4417 77.2371V77.4138C38.4417 77.6091 38.2043 77.7673 37.9115 77.7673H36.3208Z" fill="#C4C4C4"/>
<path d="M36.3208 75.5581C36.0279 75.5581 35.7905 75.3207 35.7905 75.0279V74.7628C35.7905 74.4699 36.0279 74.2325 36.3208 74.2325H37.9115C38.2043 74.2325 38.4417 74.4699 38.4417 74.7628V75.0279C38.4417 75.3207 38.2043 75.5581 37.9115 75.5581H36.3208Z" fill="#C4C4C4"/>
<path d="M36.3208 72.9067C36.0279 72.9067 35.7905 72.6693 35.7905 72.3765V72.1114C35.7905 71.8186 36.0279 71.5812 36.3208 71.5812H37.9115C38.2043 71.5812 38.4417 71.8186 38.4417 72.1114V72.3765C38.4417 72.6693 38.2043 72.9067 37.9115 72.9067H36.3208Z" fill="#C4C4C4"/>
<path d="M36.3208 70.2554C36.0279 70.2554 35.7905 70.018 35.7905 69.7251V69.46C35.7905 69.1672 36.0279 68.9298 36.3208 68.9298H37.9115C38.2043 68.9298 38.4417 69.1672 38.4417 69.46V69.7251C38.4417 70.018 38.2043 70.2554 37.9115 70.2554H36.3208Z" fill="#C4C4C4"/>
<path d="M36.3208 67.6045C36.0279 67.6045 35.7905 67.3671 35.7905 67.0743V66.8091C35.7905 66.5163 36.0279 66.2789 36.3208 66.2789H37.9115C38.2043 66.2789 38.4417 66.5163 38.4417 66.8091V67.0743C38.4417 67.3671 38.2043 67.6045 37.9115 67.6045H36.3208Z" fill="#C4C4C4"/>
<path d="M36.3208 65.3955C36.0279 65.3955 35.7905 65.1581 35.7905 64.8653V64.6002C35.7905 64.3073 36.0279 64.0699 36.3208 64.0699H37.9115C38.2043 64.0699 38.4417 64.3073 38.4417 64.6002V64.8653C38.4417 65.1581 38.2043 65.3955 37.9115 65.3955H36.3208Z" fill="#C4C4C4"/>
<path d="M37.5582 60.4872C37.5582 59.7814 38.136 59.2092 38.8488 59.2092H62.3374C63.0502 59.2092 63.628 59.7814 63.628 60.4872V84.0011C63.628 84.7068 63.0502 85.279 62.3374 85.279H38.8488C38.136 85.279 37.5582 84.7068 37.5582 84.0011V60.4872Z" fill="#393939"/>
<path d="M87.4884 39.3264H93.6744V48.1636H87.4884V39.3264Z" fill="#C4C4C4"/>
<path d="M100.302 39.3254H107.372V48.1626H100.302V39.3254Z" fill="#C4C4C4"/>
<path d="M92.7906 40.6506H102.07V47.2785H92.7906V40.6506Z" fill="#BA6619"/>
<path d="M215.628 92.7905H220.488V105.163H215.628V92.7905Z" fill="#C4C4C4"/>
<path fill-rule="evenodd" clip-rule="evenodd" d="M207.675 28.2662C208.895 28.2662 209.884 27.1923 209.884 25.8676V25.8676C209.884 25.7395 209.983 25.6277 210.11 25.6277V25.6277C210.229 25.6277 210.326 25.7251 210.326 25.8453V33.2598C210.326 33.6813 209.987 34.023 209.568 34.023H205.781C205.363 34.023 205.023 33.6813 205.023 33.2598V25.8453C205.023 25.7251 205.12 25.6277 205.239 25.6277V25.6277C205.367 25.6277 205.465 25.7395 205.465 25.8676V25.8676C205.465 27.1923 206.454 28.2662 207.675 28.2662Z" fill="#AE936F"/>
<path d="M209 31.1515C209 32.0056 208.308 32.698 207.454 32.698C206.6 32.698 205.907 32.0056 205.907 31.1515C205.907 30.2974 206.6 29.605 207.454 29.605C208.308 29.605 209 30.2974 209 31.1515Z" fill="#6B4C30"/>
<path fill-rule="evenodd" clip-rule="evenodd" d="M196.849 28.2662C198.171 28.2662 199.242 27.1923 199.242 25.8676V25.8676C199.242 25.7395 199.349 25.6277 199.487 25.6277V25.6277C199.616 25.6277 199.721 25.7251 199.721 25.8453V33.2598C199.721 33.6813 199.353 34.023 198.9 34.023H194.797C194.344 34.023 193.977 33.6813 193.977 33.2598V25.8453C193.977 25.7251 194.081 25.6277 194.211 25.6277V25.6277C194.348 25.6277 194.455 25.7395 194.455 25.8676V25.8676C194.455 27.1923 195.527 28.2662 196.849 28.2662Z" fill="#AE936F"/>
<path d="M198.395 31.1515C198.395 32.0056 197.703 32.698 196.849 32.698C195.995 32.698 195.302 32.0056 195.302 31.1515C195.302 30.2974 195.995 29.605 196.849 29.605C197.703 29.605 198.395 30.2974 198.395 31.1515Z" fill="#6B4C30"/>
<path fill-rule="evenodd" clip-rule="evenodd" d="M186.907 28.2662C188.127 28.2662 189.116 27.1923 189.116 25.8676V25.8676C189.116 25.7395 189.215 25.6277 189.342 25.6277V25.6277C189.461 25.6277 189.558 25.7251 189.558 25.8453V33.2598C189.558 33.6813 189.219 34.023 188.801 34.023H185.013C184.595 34.023 184.256 33.6813 184.256 33.2598V25.8453C184.256 25.7251 184.353 25.6277 184.472 25.6277V25.6277C184.599 25.6277 184.698 25.7395 184.698 25.8676V25.8676C184.698 27.1923 185.687 28.2662 186.907 28.2662Z" fill="#AE936F"/>
<path d="M188.674 31.1515C188.674 32.0056 187.883 32.698 186.907 32.698C185.931 32.698 185.14 32.0056 185.14 31.1515C185.14 30.2974 185.931 29.605 186.907 29.605C187.883 29.605 188.674 30.2974 188.674 31.1515Z" fill="#6B4C30"/>
<path fill-rule="evenodd" clip-rule="evenodd" d="M176.302 28.2662C177.522 28.2662 178.512 27.1923 178.512 25.8676V25.8676C178.512 25.7395 178.61 25.6277 178.737 25.6277V25.6277C178.857 25.6277 178.953 25.7251 178.953 25.8453V33.2598C178.953 33.6813 178.614 34.023 178.196 34.023H174.409C173.99 34.023 173.651 33.6813 173.651 33.2598V25.8453C173.651 25.7251 173.748 25.6277 173.867 25.6277V25.6277C173.994 25.6277 174.093 25.7395 174.093 25.8676V25.8676C174.093 27.1923 175.082 28.2662 176.302 28.2662Z" fill="#AE936F"/>
<path d="M177.628 31.1515C177.628 32.0056 176.935 32.698 176.081 32.698C175.227 32.698 174.535 32.0056 174.535 31.1515C174.535 30.2974 175.227 29.605 176.081 29.605C176.935 29.605 177.628 30.2974 177.628 31.1515Z" fill="#6B4C30"/>
<path fill-rule="evenodd" clip-rule="evenodd" d="M166.139 28.2662C167.36 28.2662 168.349 27.1923 168.349 25.8676V25.8676C168.349 25.7395 168.448 25.6277 168.575 25.6277V25.6277C168.694 25.6277 168.791 25.7251 168.791 25.8453V33.2598C168.791 33.6813 168.451 34.023 168.033 34.023H164.246C163.827 34.023 163.488 33.6813 163.488 33.2598V25.8453C163.488 25.7251 163.585 25.6277 163.704 25.6277V25.6277C163.831 25.6277 163.93 25.7395 163.93 25.8676V25.8676C163.93 27.1923 164.919 28.2662 166.139 28.2662Z" fill="#AE936F"/>
<path d="M167.465 31.1515C167.465 32.0056 166.773 32.698 165.919 32.698C165.065 32.698 164.372 32.0056 164.372 31.1515C164.372 30.2974 165.065 29.605 165.919 29.605C166.773 29.605 167.465 30.2974 167.465 31.1515Z" fill="#6B4C30"/>
<path fill-rule="evenodd" clip-rule="evenodd" d="M144.93 28.2662C146.15 28.2662 147.14 27.1923 147.14 25.8676V25.8676C147.14 25.7395 147.238 25.6277 147.365 25.6277V25.6277C147.485 25.6277 147.581 25.7251 147.581 25.8453V33.2598C147.581 33.6813 147.242 34.023 146.824 34.023H143.037C142.618 34.023 142.279 33.6813 142.279 33.2598V25.8453C142.279 25.7251 142.376 25.6277 142.495 25.6277V25.6277C142.622 25.6277 142.721 25.7395 142.721 25.8676V25.8676C142.721 27.1923 143.71 28.2662 144.93 28.2662Z" fill="#AE936F"/>
<path d="M146.698 31.1515C146.698 32.0056 146.005 32.698 145.151 32.698C144.297 32.698 143.605 32.0056 143.605 31.1515C143.605 30.2974 144.297 29.605 145.151 29.605C146.005 29.605 146.698 30.2974 146.698 31.1515Z" fill="#6B4C30"/>
<path fill-rule="evenodd" clip-rule="evenodd" d="M134.768 28.2662C135.988 28.2662 136.977 27.1923 136.977 25.8676V25.8676C136.977 25.7395 137.076 25.6277 137.203 25.6277V25.6277C137.322 25.6277 137.419 25.7251 137.419 25.8453V33.2598C137.419 33.6813 137.08 34.023 136.661 34.023H132.874C132.455 34.023 132.116 33.6813 132.116 33.2598V25.8453C132.116 25.7251 132.213 25.6277 132.332 25.6277V25.6277C132.459 25.6277 132.558 25.7395 132.558 25.8676V25.8676C132.558 27.1923 133.547 28.2662 134.768 28.2662Z" fill="#AE936F"/>
<path d="M136.093 31.1515C136.093 32.0056 135.401 32.698 134.547 32.698C133.692 32.698 133 32.0056 133 31.1515C133 30.2974 133.692 29.605 134.547 29.605C135.401 29.605 136.093 30.2974 136.093 31.1515Z" fill="#6B4C30"/>
<path fill-rule="evenodd" clip-rule="evenodd" d="M155.535 28.2662C156.755 28.2662 157.744 27.1923 157.744 25.8676V25.8676C157.744 25.7395 157.843 25.6277 157.97 25.6277V25.6277C158.089 25.6277 158.186 25.7251 158.186 25.8453V33.2598C158.186 33.6813 157.847 34.023 157.428 34.023H153.641C153.223 34.023 152.884 33.6813 152.884 33.2598V25.8453C152.884 25.7251 152.98 25.6277 153.1 25.6277V25.6277C153.227 25.6277 153.325 25.7395 153.325 25.8676V25.8676C153.325 27.1923 154.315 28.2662 155.535 28.2662Z" fill="#AE936F"/>
<path d="M157.302 31.1515C157.302 32.0056 156.511 32.698 155.535 32.698C154.559 32.698 153.768 32.0056 153.768 31.1515C153.768 30.2974 154.559 29.605 155.535 29.605C156.511 29.605 157.302 30.2974 157.302 31.1515Z" fill="#6B4C30"/>
<path fill-rule="evenodd" clip-rule="evenodd" d="M135.209 106.943C133.989 106.943 133 108.017 133 109.341V109.341C133 109.469 132.901 109.581 132.774 109.581V109.581C132.655 109.581 132.558 109.484 132.558 109.364L132.558 101.949C132.558 101.528 132.897 101.186 133.316 101.186L137.103 101.186C137.521 101.186 137.86 101.528 137.86 101.949L137.86 109.364C137.86 109.484 137.764 109.581 137.644 109.581V109.581C137.517 109.581 137.419 109.469 137.419 109.341V109.341C137.419 108.017 136.429 106.943 135.209 106.943Z" fill="#AE936F"/>
<path d="M133.442 103.837C133.442 102.861 134.233 102.07 135.209 102.07C136.185 102.07 136.977 102.861 136.977 103.837C136.977 104.813 136.185 105.605 135.209 105.605C134.233 105.605 133.442 104.813 133.442 103.837Z" fill="#6B4C30"/>
<path fill-rule="evenodd" clip-rule="evenodd" d="M145.814 106.943C144.594 106.943 143.605 108.017 143.605 109.341V109.341C143.605 109.469 143.506 109.581 143.379 109.581V109.581C143.26 109.581 143.163 109.484 143.163 109.364L143.163 101.949C143.163 101.528 143.502 101.186 143.92 101.186L147.708 101.186C148.126 101.186 148.465 101.528 148.465 101.949L148.465 109.364C148.465 109.484 148.369 109.581 148.249 109.581V109.581C148.122 109.581 148.023 109.469 148.023 109.341V109.341C148.023 108.017 147.034 106.943 145.814 106.943Z" fill="#AE936F"/>
<path d="M144.046 103.837C144.046 102.861 144.838 102.07 145.814 102.07C146.79 102.07 147.581 102.861 147.581 103.837C147.581 104.813 146.79 105.605 145.814 105.605C144.838 105.605 144.046 104.813 144.046 103.837Z" fill="#6B4C30"/>
<path fill-rule="evenodd" clip-rule="evenodd" d="M155.977 106.943C154.756 106.943 153.767 108.017 153.767 109.341V109.341C153.767 109.469 153.669 109.581 153.541 109.581V109.581C153.422 109.581 153.325 109.484 153.325 109.364L153.325 101.949C153.325 101.528 153.665 101.186 154.083 101.186L157.87 101.186C158.289 101.186 158.628 101.528 158.628 101.949L158.628 109.364C158.628 109.484 158.531 109.581 158.412 109.581V109.581C158.285 109.581 158.186 109.469 158.186 109.341V109.341C158.186 108.017 157.197 106.943 155.977 106.943Z" fill="#AE936F"/>
<path d="M154.209 103.837C154.209 102.861 154.902 102.07 155.756 102.07C156.61 102.07 157.302 102.861 157.302 103.837C157.302 104.813 156.61 105.605 155.756 105.605C154.902 105.605 154.209 104.813 154.209 103.837Z" fill="#6B4C30"/>
<path fill-rule="evenodd" clip-rule="evenodd" d="M166.581 106.943C165.361 106.943 164.372 108.017 164.372 109.341V109.341C164.372 109.469 164.273 109.581 164.146 109.581V109.581C164.027 109.581 163.93 109.484 163.93 109.364L163.93 101.949C163.93 101.528 164.269 101.186 164.688 101.186L168.475 101.186C168.893 101.186 169.233 101.528 169.233 101.949L169.233 109.364C169.233 109.484 169.136 109.581 169.017 109.581V109.581C168.889 109.581 168.791 109.469 168.791 109.341V109.341C168.791 108.017 167.802 106.943 166.581 106.943Z" fill="#AE936F"/>
<path d="M164.814 103.837C164.814 102.861 165.605 102.07 166.581 102.07C167.558 102.07 168.349 102.861 168.349 103.837C168.349 104.813 167.558 105.605 166.581 105.605C165.605 105.605 164.814 104.813 164.814 103.837Z" fill="#6B4C30"/>
<path fill-rule="evenodd" clip-rule="evenodd" d="M176.744 106.943C175.524 106.943 174.535 108.017 174.535 109.341V109.341C174.535 109.469 174.436 109.581 174.309 109.581V109.581C174.19 109.581 174.093 109.484 174.093 109.364L174.093 101.949C174.093 101.528 174.432 101.186 174.85 101.186L178.638 101.186C179.056 101.186 179.395 101.528 179.395 101.949L179.395 109.364C179.395 109.484 179.299 109.581 179.179 109.581V109.581C179.052 109.581 178.953 109.469 178.953 109.341V109.341C178.953 108.017 177.964 106.943 176.744 106.943Z" fill="#AE936F"/>
<path d="M174.977 103.837C174.977 102.861 175.768 102.07 176.744 102.07C177.72 102.07 178.512 102.861 178.512 103.837C178.512 104.813 177.72 105.605 176.744 105.605C175.768 105.605 174.977 104.813 174.977 103.837Z" fill="#6B4C30"/>
<path fill-rule="evenodd" clip-rule="evenodd" d="M197.512 106.943C196.291 106.943 195.302 108.017 195.302 109.341V109.341C195.302 109.469 195.204 109.581 195.076 109.581V109.581C194.957 109.581 194.861 109.484 194.861 109.364L194.861 101.949C194.861 101.528 195.2 101.186 195.618 101.186L199.405 101.186C199.824 101.186 200.163 101.528 200.163 101.949L200.163 109.364C200.163 109.484 200.066 109.581 199.947 109.581V109.581C199.82 109.581 199.721 109.469 199.721 109.341V109.341C199.721 108.017 198.732 106.943 197.512 106.943Z" fill="#AE936F"/>
<path d="M195.744 103.837C195.744 102.861 196.535 102.07 197.511 102.07C198.487 102.07 199.279 102.861 199.279 103.837C199.279 104.813 198.487 105.605 197.511 105.605C196.535 105.605 195.744 104.813 195.744 103.837Z" fill="#6B4C30"/>
<path fill-rule="evenodd" clip-rule="evenodd" d="M208.116 106.942C206.896 106.942 205.907 108.016 205.907 109.341V109.341C205.907 109.469 205.808 109.581 205.681 109.581V109.581C205.562 109.581 205.465 109.483 205.465 109.363L205.465 101.949C205.465 101.527 205.804 101.185 206.223 101.185L210.01 101.185C210.428 101.185 210.768 101.527 210.768 101.949L210.768 109.363C210.768 109.483 210.671 109.581 210.552 109.581V109.581C210.424 109.581 210.326 109.469 210.326 109.341V109.341C210.326 108.016 209.337 106.942 208.116 106.942Z" fill="#AE936F"/>
<path d="M206.349 103.837C206.349 102.861 207.14 102.07 208.116 102.07C209.092 102.07 209.884 102.861 209.884 103.837C209.884 104.813 209.092 105.605 208.116 105.605C207.14 105.605 206.349 104.813 206.349 103.837Z" fill="#6B4C30"/>
<path fill-rule="evenodd" clip-rule="evenodd" d="M187.128 106.943C185.806 106.943 184.735 108.017 184.735 109.341V109.341C184.735 109.469 184.628 109.581 184.49 109.581V109.581C184.361 109.581 184.256 109.484 184.256 109.364L184.256 101.949C184.256 101.528 184.623 101.186 185.077 101.186L189.18 101.186C189.633 101.186 190 101.528 190 101.949L190 109.364C190 109.484 189.895 109.581 189.766 109.581V109.581C189.628 109.581 189.521 109.469 189.521 109.341V109.341C189.521 108.017 188.45 106.943 187.128 106.943Z" fill="#AE936F"/>
<path d="M185.581 103.837C185.581 102.861 186.274 102.07 187.128 102.07C187.982 102.07 188.674 102.861 188.674 103.837C188.674 104.813 187.982 105.605 187.128 105.605C186.274 105.605 185.581 104.813 185.581 103.837Z" fill="#6B4C30"/>
<path fill-rule="evenodd" clip-rule="evenodd" d="M131.232 38.8071C131.232 38.3615 130.899 38.0002 130.487 38.0002H127.583C127.402 38.0002 127.256 38.1587 127.256 38.3542V38.3542C127.256 38.5052 127.346 38.6361 127.468 38.7107C128.071 39.0813 128.498 40.0083 128.498 41.0933C128.498 42.1783 128.071 43.1053 127.468 43.4759C127.346 43.5504 127.256 43.6813 127.256 43.8323V43.8323C127.256 44.0278 127.402 44.1863 127.583 44.1863H130.487C130.899 44.1863 131.232 43.825 131.232 43.3794V38.8071Z" fill="#AE936F"/>
<path fill-rule="evenodd" clip-rule="evenodd" d="M131.232 49.354C131.232 48.9402 130.899 48.6047 130.487 48.6047H127.583C127.402 48.6047 127.256 48.7519 127.256 48.9335V48.9335C127.256 49.0736 127.346 49.1952 127.468 49.2644C128.071 49.6085 128.498 50.4693 128.498 51.4768C128.498 52.4843 128.071 53.3451 127.468 53.6892C127.346 53.7585 127.256 53.88 127.256 54.0202V54.0202C127.256 54.2018 127.402 54.3489 127.583 54.3489H130.487C130.899 54.3489 131.232 54.0135 131.232 53.5997V49.354Z" fill="#AE936F"/>
<path fill-rule="evenodd" clip-rule="evenodd" d="M131.232 60.0161C131.232 59.5705 130.899 59.2092 130.487 59.2092H127.583C127.402 59.2092 127.256 59.3677 127.256 59.5632V59.5632C127.256 59.7142 127.346 59.8451 127.468 59.9197C128.071 60.2902 128.498 61.2173 128.498 62.3023C128.498 63.3872 128.071 64.3143 127.468 64.6848C127.346 64.7594 127.256 64.8903 127.256 65.0413V65.0413C127.256 65.2368 127.402 65.3953 127.583 65.3953H130.487C130.899 65.3953 131.232 65.034 131.232 64.5884V60.0161Z" fill="#AE936F"/>
<path fill-rule="evenodd" clip-rule="evenodd" d="M131.232 70.5635C131.232 70.1497 130.899 69.8142 130.487 69.8142H127.583C127.402 69.8142 127.256 69.9614 127.256 70.1429V70.1429C127.256 70.2831 127.346 70.4047 127.468 70.4739C128.071 70.818 128.498 71.6788 128.498 72.6863C128.498 73.6938 128.071 74.5546 127.468 74.8987C127.346 74.9679 127.256 75.0895 127.256 75.2297V75.2297C127.256 75.4112 127.402 75.5584 127.583 75.5584H130.487C130.899 75.5584 131.232 75.2229 131.232 74.8092V70.5635Z" fill="#AE936F"/>
<path fill-rule="evenodd" clip-rule="evenodd" d="M131.232 81.1679C131.232 80.7541 130.899 80.4187 130.487 80.4187H127.583C127.402 80.4187 127.256 80.5659 127.256 80.7474V80.7474C127.256 80.8876 127.346 81.0092 127.468 81.0784C128.071 81.4225 128.498 82.2833 128.498 83.2908C128.498 84.2983 128.071 85.1591 127.468 85.5032C127.346 85.5724 127.256 85.694 127.256 85.8342V85.8342C127.256 86.0157 127.402 86.1629 127.583 86.1629H130.487C130.899 86.1629 131.232 85.8274 131.232 85.4136V81.1679Z" fill="#AE936F"/>
<path fill-rule="evenodd" clip-rule="evenodd" d="M131.232 91.3308C131.232 90.917 130.899 90.5815 130.487 90.5815H127.583C127.402 90.5815 127.256 90.7287 127.256 90.9103V90.9103C127.256 91.0505 127.346 91.172 127.468 91.2412C128.071 91.5853 128.498 92.4462 128.498 93.4536C128.498 94.4611 128.071 95.3219 127.468 95.666C127.346 95.7353 127.256 95.8568 127.256 95.997V95.997C127.256 96.1786 127.402 96.3257 127.583 96.3257H130.487C130.899 96.3257 131.232 95.9903 131.232 95.5765V91.3308Z" fill="#AE936F"/>
<path d="M95 22.0527C95 21.3428 95.5652 20.7673 96.2625 20.7673H109.645C110.342 20.7673 110.907 21.3428 110.907 22.0527V33.6215C110.907 34.3314 110.342 34.9069 109.645 34.9069H96.2625C95.5652 34.9069 95 34.3314 95 33.6215V22.0527Z" fill="#393939"/>
<path d="M110.907 22.9399C110.907 22.2281 111.509 21.6511 112.252 21.6511H115.748C116.491 21.6511 117.093 22.2281 117.093 22.9399V32.7345C117.093 33.4462 116.491 34.0232 115.748 34.0232H112.252C111.509 34.0232 110.907 33.4462 110.907 32.7345V22.9399Z" fill="#C4C4C4"/>
<path d="M89.2559 23.3358C89.2559 22.6494 89.8149 22.093 90.5046 22.093H93.7513C94.441 22.093 95 22.6494 95 23.3358V32.7805C95 33.4669 94.441 34.0233 93.7513 34.0233H90.5046C89.8149 34.0233 89.2559 33.4669 89.2559 32.7805V23.3358Z" fill="#C4C4C4"/>
<path fill-rule="evenodd" clip-rule="evenodd" d="M219.607 42.4185C219.618 42.4185 219.63 42.4185 219.642 42.4185L245.231 42.4185C245.537 42.4184 245.828 42.4184 246.074 42.4376C246.342 42.4585 246.649 42.5072 246.96 42.6569C247.453 42.8951 247.851 43.295 248.088 43.7909C248.237 44.1028 248.286 44.4119 248.307 44.681C248.326 44.9281 248.326 45.2209 248.326 45.5285V46.9504C248.326 47.258 248.326 47.5508 248.307 47.7979C248.286 48.0669 248.237 48.3761 248.088 48.688C247.851 49.1839 247.453 49.5838 246.96 49.8219C246.649 49.9717 246.342 50.0204 246.074 50.0413C245.828 50.0605 245.537 50.0604 245.231 50.0604L229.782 50.0604C229.427 50.0604 229.226 50.0612 229.08 50.0726C229.033 50.0763 229.004 50.0803 228.987 50.0831C228.975 50.0918 228.964 50.1026 228.956 50.1152C228.953 50.1316 228.949 50.1611 228.945 50.2079C228.934 50.3552 228.933 50.5572 228.933 50.9137V53.2827C228.933 53.6393 228.934 53.8413 228.945 53.9886C228.949 54.0354 228.953 54.0649 228.956 54.0813C228.964 54.0938 228.975 54.1047 228.987 54.1134C229.004 54.1161 229.033 54.1202 229.08 54.1238C229.226 54.1353 229.427 54.1361 229.782 54.1361L245.231 54.1361C245.537 54.1361 245.828 54.136 246.074 54.1552C246.342 54.1761 246.649 54.2248 246.96 54.3746C247.453 54.6127 247.851 55.0126 248.088 55.5085C248.237 55.8204 248.286 56.1296 248.307 56.3986C248.326 56.6457 248.326 56.9385 248.326 57.2461V59.0501C248.326 59.3577 248.326 59.6505 248.307 59.8976C248.286 60.1667 248.237 60.4758 248.088 60.7877C247.851 61.2836 247.453 61.6835 246.96 61.9216C246.649 62.0714 246.342 62.1201 246.074 62.141C245.828 62.1602 245.537 62.1601 245.231 62.1601L229.782 62.1601C229.427 62.1601 229.226 62.1609 229.08 62.1724C229.033 62.176 229.004 62.1801 228.987 62.1828C228.975 62.1915 228.964 62.2024 228.956 62.2149C228.953 62.2313 228.949 62.2608 228.945 62.3076C228.934 62.4549 228.933 62.6569 228.933 63.0135V65.5098C228.933 65.8664 228.934 66.0684 228.945 66.2157C228.949 66.2625 228.953 66.292 228.956 66.3084C228.964 66.3209 228.975 66.3318 228.987 66.3405C229.004 66.3432 229.033 66.3473 229.08 66.3509C229.226 66.3624 229.427 66.3632 229.782 66.3632L245.231 66.3632C245.537 66.3631 245.828 66.3631 246.074 66.3823C246.342 66.4032 246.649 66.4519 246.96 66.6017C247.453 66.8398 247.851 67.2397 248.088 67.7356C248.237 68.0475 248.286 68.3566 248.307 68.6257C248.326 68.8728 248.326 69.1656 248.326 69.4732V71.2772C248.326 71.5848 248.326 71.8776 248.307 72.1247C248.286 72.3937 248.237 72.7029 248.088 73.0148C247.851 73.5107 247.453 73.9106 246.96 74.1487C246.649 74.2985 246.342 74.3472 246.074 74.3681C245.828 74.3873 245.537 74.3872 245.231 74.3872L229.782 74.3872C229.427 74.3872 229.226 74.388 229.08 74.3995C229.033 74.4031 229.004 74.4072 228.987 74.4099C228.975 74.4186 228.964 74.4295 228.956 74.442C228.953 74.4584 228.949 74.4879 228.945 74.5347C228.934 74.682 228.933 74.884 228.933 75.2406V77.4822C228.933 77.8388 228.934 78.0407 228.945 78.188C228.949 78.2349 228.953 78.2643 228.956 78.2808C228.964 78.2933 228.975 78.3041 228.987 78.3128C229.004 78.3156 229.033 78.3197 229.08 78.3233C229.226 78.3347 229.427 78.3355 229.782 78.3355H245.231C245.537 78.3355 245.828 78.3355 246.074 78.3547C246.342 78.3756 246.649 78.4242 246.96 78.574C247.453 78.8121 247.851 79.2121 248.088 79.708C248.237 80.0199 248.286 80.329 248.307 80.5981C248.326 80.8452 248.326 81.1379 248.326 81.4455L248.326 99.8603H246.044V81.4815C246.044 81.1249 246.043 80.9229 246.032 80.7756C246.028 80.7288 246.024 80.6993 246.021 80.6829C246.013 80.6704 246.002 80.6595 245.99 80.6508C245.973 80.6481 245.944 80.644 245.897 80.6404C245.751 80.6289 245.55 80.6281 245.195 80.6281H229.746C229.44 80.6282 229.149 80.6282 228.903 80.609C228.635 80.5881 228.328 80.5394 228.017 80.3896C227.524 80.1515 227.126 79.7516 226.889 79.2557C226.74 78.9438 226.691 78.6347 226.671 78.3656C226.651 78.1185 226.651 77.8258 226.652 77.5182V75.2046C226.651 74.897 226.651 74.6042 226.671 74.3572C226.691 74.0881 226.74 73.779 226.889 73.467C227.126 72.9712 227.524 72.5712 228.017 72.3331C228.328 72.1833 228.635 72.1347 228.903 72.1138C229.149 72.0946 229.44 72.0946 229.746 72.0946L245.195 72.0946C245.55 72.0946 245.751 72.0938 245.897 72.0824C245.944 72.0787 245.973 72.0747 245.99 72.0719C246.002 72.0632 246.013 72.0524 246.021 72.0398C246.024 72.0234 246.028 71.994 246.032 71.9471C246.043 71.7998 246.044 71.5979 246.044 71.2413V69.5091C246.044 69.1525 246.043 68.9506 246.032 68.8032C246.028 68.7564 246.024 68.727 246.021 68.7105C246.013 68.698 246.002 68.6872 245.99 68.6785C245.973 68.6757 245.944 68.6716 245.897 68.668C245.751 68.6566 245.55 68.6558 245.195 68.6558L229.746 68.6558C229.44 68.6558 229.149 68.6558 228.903 68.6366C228.635 68.6157 228.328 68.5671 228.017 68.4173C227.524 68.1792 227.126 67.7792 226.889 67.2833C226.74 66.9714 226.691 66.6623 226.671 66.3932C226.651 66.1462 226.651 65.8534 226.652 65.5458V62.9775C226.651 62.6699 226.651 62.3771 226.671 62.1301C226.691 61.861 226.74 61.5519 226.889 61.24C227.126 60.7441 227.524 60.3441 228.017 60.106C228.328 59.9562 228.635 59.9076 228.903 59.8867C229.149 59.8675 229.44 59.8675 229.746 59.8675L245.195 59.8675C245.55 59.8675 245.751 59.8667 245.897 59.8553C245.944 59.8517 245.973 59.8476 245.99 59.8448C246.002 59.8361 246.013 59.8253 246.021 59.8128C246.024 59.7963 246.028 59.7669 246.032 59.72C246.043 59.5727 246.044 59.3708 246.044 59.0142V57.282C246.044 56.9254 246.043 56.7235 246.032 56.5762C246.028 56.5293 246.024 56.4999 246.021 56.4834C246.013 56.4709 246.002 56.4601 245.99 56.4514C245.973 56.4486 245.944 56.4446 245.897 56.4409C245.751 56.4295 245.55 56.4287 245.195 56.4287L229.746 56.4287C229.44 56.4287 229.149 56.4287 228.903 56.4095C228.635 56.3886 228.328 56.34 228.017 56.1902C227.524 55.9521 227.126 55.5521 226.889 55.0563C226.74 54.7443 226.691 54.4352 226.671 54.1661C226.651 53.9191 226.651 53.6263 226.652 53.3187V50.8778C226.651 50.5702 226.651 50.2774 226.671 50.0304C226.691 49.7613 226.74 49.4521 226.889 49.1402C227.126 48.6444 227.524 48.2444 228.017 48.0063C228.328 47.8565 228.635 47.8078 228.903 47.7869C229.149 47.7678 229.44 47.7678 229.746 47.7678L245.195 47.7678C245.55 47.7678 245.751 47.767 245.897 47.7556C245.944 47.7519 245.973 47.7479 245.99 47.7451C246.002 47.7364 246.013 47.7256 246.021 47.713C246.024 47.6966 246.028 47.6671 246.032 47.6203C246.043 47.473 246.044 47.2711 246.044 46.9145V45.5644C246.044 45.2078 246.043 45.0058 246.032 44.8585C246.028 44.8117 246.024 44.7822 246.021 44.7658C246.013 44.7533 246.002 44.7424 245.99 44.7337C245.973 44.731 245.944 44.7269 245.897 44.7233C245.751 44.7118 245.55 44.711 245.195 44.711H219.642C219.287 44.711 219.086 44.7118 218.94 44.7233C218.893 44.7269 218.864 44.731 218.848 44.7337C218.835 44.7424 218.824 44.7533 218.816 44.7658C218.813 44.7822 218.809 44.8117 218.805 44.8585C218.794 45.0058 218.793 45.2078 218.793 45.5644V79.4818H216.512V45.5644C216.512 45.5524 216.512 45.5404 216.512 45.5284C216.512 45.2208 216.512 44.9281 216.531 44.681C216.551 44.4119 216.6 44.1028 216.749 43.7909C216.986 43.295 217.384 42.8951 217.877 42.6569C218.188 42.5072 218.495 42.4585 218.763 42.4376C219.009 42.4184 219.3 42.4184 219.607 42.4185Z" fill="#AE936F"/>
<path d="M114.442 38.4419H118.419V47.721H114.442V38.4419Z" fill="#C4C4C4"/>
<path d="M114.442 41.5352H118.419V44.6282H114.442V41.5352Z" fill="#BA6619"/>
<path d="M134.767 37.5579H210.767V98.5346H134.767V37.5579Z" fill="#C4C4C4"/>
</svg>
