<svg width="251" height="174" viewBox="0 0 251 174" fill="none" xmlns="http://www.w3.org/2000/svg">
<path d="M0 141.517C0 135.156 5.15489 130 11.5138 130H239.486C245.845 130 251 135.156 251 141.517V162.483C251 168.844 245.845 174 239.486 174H11.5138C5.15489 174 0 168.844 0 162.483V141.517Z" fill="black"/>
<path d="M14 151C14 147.134 16.9872 144 20.6721 144H134.328C138.013 144 141 147.134 141 151V151C141 154.866 138.013 158 134.328 158H20.6721C16.9872 158 14 154.866 14 151V151Z" fill="white"/>
<path d="M232 152C232 155.314 229.538 158 226.5 158C223.462 158 221 155.314 221 152C221 148.686 223.462 146 226.5 146C229.538 146 232 148.686 232 152Z" fill="#A9A9A9"/>
<path d="M0 76.5173C0 70.1565 5.15489 65 11.5138 65H239.486C245.845 65 251 70.1565 251 76.5173V97.4827C251 103.844 245.845 109 239.486 109H11.5138C5.15489 109 0 103.844 0 97.4827V76.5173Z" fill="black"/>
<path d="M14 86.5C14 82.9102 16.9872 80 20.6721 80H134.328C138.013 80 141 82.9102 141 86.5V86.5C141 90.0898 138.013 93 134.328 93H20.6721C16.9872 93 14 90.0898 14 86.5V86.5Z" fill="white"/>
<path d="M232 87C232 90.3137 229.538 93 226.5 93C223.462 93 221 90.3137 221 87C221 83.6863 223.462 81 226.5 81C229.538 81 232 83.6863 232 87Z" fill="#A9A9A9"/>
<path d="M0 11.5173C0 5.15648 5.15489 0 11.5138 0H239.486C245.845 0 251 5.15647 251 11.5173V32.4827C251 38.8435 245.845 44 239.486 44H11.5138C5.15489 44 0 38.8435 0 32.4827V11.5173Z" fill="black"/>
<path d="M14 21.5C14 17.9102 16.9872 15 20.6721 15H134.328C138.013 15 141 17.9102 141 21.5V21.5C141 25.0898 138.013 28 134.328 28H20.6721C16.9872 28 14 25.0898 14 21.5V21.5Z" fill="white"/>
<path d="M232 22C232 25.3137 229.538 28 226.5 28C223.462 28 221 25.3137 221 22C221 18.6863 223.462 16 226.5 16C229.538 16 232 18.6863 232 22Z" fill="#A9A9A9"/>
</svg>
