<svg width="126" height="130" viewBox="0 0 126 130" fill="none" xmlns="http://www.w3.org/2000/svg">
<path fill-rule="evenodd" clip-rule="evenodd" d="M73.4142 17.4142L63.3284 27.5H9V23.5H61.6716L70.5858 14.5858L73.4142 17.4142Z" fill="#FF0000"/>
<path d="M15 25.5C15 29.6421 11.6421 33 7.5 33C3.35786 33 0 29.6421 0 25.5C0 21.3579 3.35786 18 7.5 18C11.6421 18 15 21.3579 15 25.5Z" fill="#FF0000"/>
<path d="M88 9.5C88 14.7467 83.7467 19 78.5 19C73.2533 19 69 14.7467 69 9.5C69 4.25329 73.2533 0 78.5 0C83.7467 0 88 4.25329 88 9.5Z" fill="#FF0000"/>
<path fill-rule="evenodd" clip-rule="evenodd" d="M113.517 112.696L88.4181 83.5H34V87.5H86.5819L110.483 115.304L113.517 112.696Z" fill="#FF0000"/>
<path d="M40 85.5C40 81.3579 36.6421 78 32.5 78C28.3579 78 25 81.3579 25 85.5C25 89.6421 28.3579 93 32.5 93C36.6421 93 40 89.6421 40 85.5Z" fill="#FF0000"/>
<path d="M126 120.5C126 115.253 121.747 111 116.5 111C111.253 111 107 115.253 107 120.5C107 125.747 111.253 130 116.5 130C121.747 130 126 125.747 126 120.5Z" fill="#FF0000"/>
<path fill-rule="evenodd" clip-rule="evenodd" d="M116.5 115C119.538 115 122 117.462 122 120.5C122 123.538 119.538 126 116.5 126C113.462 126 111 123.538 111 120.5C111 117.462 113.462 115 116.5 115ZM116.5 111C121.747 111 126 115.253 126 120.5C126 125.747 121.747 130 116.5 130C111.253 130 107 125.747 107 120.5C107 115.253 111.253 111 116.5 111Z" fill="#FF0000"/>
<path fill-rule="evenodd" clip-rule="evenodd" d="M113.517 18.3038L88.4181 47.5H34V43.5H86.5819L110.483 15.6962L113.517 18.3038Z" fill="#FF0000"/>
<path d="M40 45.5C40 49.6421 36.6421 53 32.5 53C28.3579 53 25 49.6421 25 45.5C25 41.3579 28.3579 38 32.5 38C36.6421 38 40 41.3579 40 45.5Z" fill="#FF0000"/>
<path d="M126 10.5C126 15.7467 121.747 20 116.5 20C111.253 20 107 15.7467 107 10.5C107 5.25329 111.253 1 116.5 1C121.747 1 126 5.25329 126 10.5Z" fill="#FF0000"/>
<path fill-rule="evenodd" clip-rule="evenodd" d="M116.5 16C119.538 16 122 13.5376 122 10.5C122 7.46243 119.538 5 116.5 5C113.462 5 111 7.46243 111 10.5C111 13.5376 113.462 16 116.5 16ZM116.5 20C121.747 20 126 15.7467 126 10.5C126 5.25329 121.747 1 116.5 1C111.253 1 107 5.25329 107 10.5C107 15.7467 111.253 20 116.5 20Z" fill="#FF0000"/>
<path d="M126 65C126 70.2467 121.747 74.5 116.5 74.5C111.253 74.5 107 70.2467 107 65C107 59.7533 111.253 55.5 116.5 55.5C121.747 55.5 126 59.7533 126 65Z" fill="#FF0000"/>
<path fill-rule="evenodd" clip-rule="evenodd" d="M116.5 70.5C119.538 70.5 122 68.0376 122 65C122 61.9624 119.538 59.5 116.5 59.5C113.462 59.5 111 61.9624 111 65C111 68.0376 113.462 70.5 116.5 70.5ZM116.5 74.5C121.747 74.5 126 70.2467 126 65C126 59.7533 121.747 55.5 116.5 55.5C111.253 55.5 107 59.7533 107 65C107 70.2467 111.253 74.5 116.5 74.5Z" fill="#FF0000"/>
<path d="M17 65C17 69.1421 13.6421 72.5 9.5 72.5C5.35786 72.5 2 69.1421 2 65C2 60.8579 5.35786 57.5 9.5 57.5C13.6421 57.5 17 60.8579 17 65Z" fill="#FF0000"/>
<path fill-rule="evenodd" clip-rule="evenodd" d="M108 67.5H9V63.5H108V67.5Z" fill="#FF0000"/>
</svg>
