<svg width="147" height="365" viewBox="0 0 147 365" fill="none" xmlns="http://www.w3.org/2000/svg">
<g filter="url(#filter0_d)">
<path fill-rule="evenodd" clip-rule="evenodd" d="M100.698 55.6843C104.576 55.6843 108.306 57.1412 111.115 59.7534L138.308 85.0409C141.304 87.8271 143 91.6918 143 95.7332V259.391C143 275.696 129.471 288.914 112.783 288.914H34.2174C17.5288 288.914 4 275.696 4 259.391V95.7332C4 91.6918 5.69596 87.8271 8.6922 85.0409L35.8852 59.7534C38.6942 57.1412 42.4237 55.6843 46.3017 55.6843H100.698ZM75.0109 73.398C67.501 73.398 61.413 79.346 61.413 86.6832C61.413 94.0204 67.501 99.9684 75.0109 99.9684C82.5208 99.9684 88.6087 94.0204 88.6087 86.6832C88.6087 79.346 82.5208 73.398 75.0109 73.398Z" fill="white"/>
<path fill-rule="evenodd" clip-rule="evenodd" d="M112.715 247.756C116.146 247.756 118.928 250.415 118.928 253.696V316.062C118.928 319.343 116.146 322.002 112.715 322.002C109.284 322.002 106.503 319.343 106.503 316.062V253.696C106.503 250.415 109.284 247.756 112.715 247.756Z" fill="white"/>
<path fill-rule="evenodd" clip-rule="evenodd" d="M88.6423 254.212C91.6444 254.212 94.0781 256.656 94.0781 259.671V322.193C94.0781 325.208 91.6444 327.651 88.6423 327.651C85.6402 327.651 83.2065 325.208 83.2065 322.193V259.671C83.2065 256.656 85.6402 254.212 88.6423 254.212Z" fill="white"/>
<path fill-rule="evenodd" clip-rule="evenodd" d="M97.5727 245.335C100.789 245.335 103.397 247.779 103.397 250.794V313.316C103.397 316.331 100.789 318.775 97.5727 318.775C94.3562 318.775 91.7487 316.331 91.7487 313.316V250.794C91.7487 247.779 94.3562 245.335 97.5727 245.335Z" fill="white"/>
<path fill-rule="evenodd" clip-rule="evenodd" d="M55.2514 245.335C58.2535 245.335 60.6872 247.779 60.6872 250.794V313.316C60.6872 316.331 58.2535 318.775 55.2514 318.775C52.2493 318.775 49.8157 316.331 49.8157 313.316V250.794C49.8157 247.779 52.2493 245.335 55.2514 245.335Z" fill="white"/>
<path fill-rule="evenodd" clip-rule="evenodd" d="M40.4974 239.686C43.4995 239.686 45.9332 242.103 45.9332 245.084V306.92C45.9332 309.901 43.4995 312.318 40.4974 312.318C37.4953 312.318 35.0616 309.901 35.0616 306.92V245.084C35.0616 242.103 37.4953 239.686 40.4974 239.686Z" fill="white"/>
<path fill-rule="evenodd" clip-rule="evenodd" d="M28.0727 227.58C31.0748 227.58 33.5085 230.024 33.5085 233.039V295.561C33.5085 298.576 31.0748 301.019 28.0727 301.019C25.0706 301.019 22.637 298.576 22.637 295.561V233.039C22.637 230.024 25.0706 227.58 28.0727 227.58Z" fill="white"/>
<path fill-rule="evenodd" clip-rule="evenodd" d="M85.5362 239.686C88.5383 239.686 90.972 242.103 90.972 245.084V306.92C90.972 309.901 88.5383 312.318 85.5362 312.318C82.5341 312.318 80.1005 309.901 80.1005 306.92V245.084C80.1005 242.103 82.5341 239.686 85.5362 239.686Z" fill="white"/>
<path fill-rule="evenodd" clip-rule="evenodd" d="M136.788 212.247C140.219 212.247 143 214.906 143 218.187V280.553C143 283.834 140.219 286.493 136.788 286.493C133.357 286.493 130.575 283.834 130.575 280.553V218.187C130.575 214.906 133.357 212.247 136.788 212.247Z" fill="white"/>
<path fill-rule="evenodd" clip-rule="evenodd" d="M122.034 259.862C125.465 259.862 128.246 262.492 128.246 265.737V327.426C128.246 330.671 125.465 333.301 122.034 333.301C118.603 333.301 115.821 330.671 115.821 327.426V265.737C115.821 262.492 118.603 259.862 122.034 259.862Z" fill="white"/>
<path fill-rule="evenodd" clip-rule="evenodd" d="M130.964 230.002C134.18 230.002 136.788 232.661 136.788 235.941V298.308C136.788 301.589 134.18 304.248 130.964 304.248C127.747 304.248 125.14 301.589 125.14 298.308V235.941C125.14 232.661 127.747 230.002 130.964 230.002Z" fill="white"/>
<path fill-rule="evenodd" clip-rule="evenodd" d="M73.5002 272.773C79.2899 272.773 83.9834 277.425 83.9834 283.164V345.506C83.9834 351.245 79.2899 355.897 73.5002 355.897C67.7105 355.897 63.017 351.245 63.017 345.506V283.164C63.017 277.425 67.7105 272.773 73.5002 272.773Z" fill="white"/>
<path fill-rule="evenodd" clip-rule="evenodd" d="M103.785 233.23C107.001 233.23 109.609 235.674 109.609 238.688V301.211C109.609 304.225 107.001 306.669 103.785 306.669C100.568 306.669 97.9609 304.225 97.9609 301.211V238.688C97.9609 235.674 100.568 233.23 103.785 233.23Z" fill="white"/>
<path fill-rule="evenodd" clip-rule="evenodd" d="M10.2123 253.405C13.6432 253.405 16.4246 256.065 16.4246 259.345V321.712C16.4246 324.992 13.6432 327.651 10.2123 327.651C6.78134 327.651 4 324.992 4 321.712V259.345C4 256.065 6.78134 253.405 10.2123 253.405Z" fill="white"/>
<path fill-rule="evenodd" clip-rule="evenodd" d="M21.8604 236.458C24.8625 236.458 27.2962 238.902 27.2962 241.917V304.439C27.2962 307.454 24.8625 309.897 21.8604 309.897C18.8584 309.897 16.4247 307.454 16.4247 304.439V241.917C16.4247 238.902 18.8584 236.458 21.8604 236.458Z" fill="white"/>
<path fill-rule="evenodd" clip-rule="evenodd" d="M34.2849 263.09C37.287 263.09 39.7206 265.533 39.7206 268.548V331.07C39.7206 334.085 37.287 336.529 34.2849 336.529C31.2828 336.529 28.8491 334.085 28.8491 331.07V268.548C28.8491 265.533 31.2828 263.09 34.2849 263.09Z" fill="white"/>
<path fill-rule="evenodd" clip-rule="evenodd" d="M61.4636 266.318C64.4657 266.318 66.8994 268.735 66.8994 271.716V333.552C66.8994 336.533 64.4657 338.95 61.4636 338.95C58.4615 338.95 56.0278 336.533 56.0278 333.552V271.716C56.0278 268.735 58.4615 266.318 61.4636 266.318Z" fill="white"/>
<path fill-rule="evenodd" clip-rule="evenodd" d="M47.8741 250.985C51.0906 250.985 53.6981 253.615 53.6981 256.86V318.549C53.6981 321.793 51.0906 324.424 47.8741 324.424C44.6576 324.424 42.05 321.793 42.05 318.549V256.86C42.05 253.615 44.6576 250.985 47.8741 250.985Z" fill="white"/>
<path fill-rule="evenodd" clip-rule="evenodd" d="M91.7487 266.318C94.7508 266.318 97.1845 268.735 97.1845 271.716V333.552C97.1845 336.533 94.7508 338.95 91.7487 338.95C88.7467 338.95 86.313 336.533 86.313 333.552V271.716C86.313 268.735 88.7467 266.318 91.7487 266.318Z" fill="white"/>
</g>
<path fill-rule="evenodd" clip-rule="evenodd" d="M75.0533 10.8396C60.0026 10.8396 46.0593 25.897 46.0593 46.8073C46.0593 67.7176 60.0026 82.775 75.0533 82.775C90.104 82.775 104.047 67.7176 104.047 46.8073C104.047 25.897 90.104 10.8396 75.0533 10.8396ZM35.0616 46.8073C35.0616 22.0023 52.0043 0 75.0533 0C98.1023 0 115.045 22.0023 115.045 46.8073C115.045 71.6124 98.1023 93.6146 75.0533 93.6146C52.0043 93.6146 35.0616 71.6124 35.0616 46.8073Z" fill="#E67171"/>
<path fill-rule="evenodd" clip-rule="evenodd" d="M76.2153 55.6843L76.2179 73.4792C75.7235 73.4255 75.2211 73.398 74.7121 73.398C67.2339 73.398 61.1715 79.346 61.1715 86.6832C61.1715 94.0204 67.2339 99.9684 74.7121 99.9684C75.2211 99.9684 75.7235 99.9409 76.2179 99.8872L76.2153 288.913L34.0903 288.914C17.7199 288.914 4.40285 276.088 4.00897 260.119L4 259.391V95.7332C4 91.9163 5.50639 88.2571 8.18724 85.5151L8.67246 85.0409L35.7511 59.7534C38.3734 57.3045 41.8014 55.8709 45.4016 55.7013L46.1238 55.6843H76.2153Z" fill="white"/>
<defs>
<filter id="filter0_d" x="0" y="55.6843" width="147" height="309.212" filterUnits="userSpaceOnUse" color-interpolation-filters="sRGB">
<feFlood flood-opacity="0" result="BackgroundImageFix"/>
<feColorMatrix in="SourceAlpha" type="matrix" values="0 0 0 0 0 0 0 0 0 0 0 0 0 0 0 0 0 0 127 0"/>
<feOffset dy="5"/>
<feGaussianBlur stdDeviation="2"/>
<feColorMatrix type="matrix" values="0 0 0 0 0 0 0 0 0 0 0 0 0 0 0 0 0 0 0.5 0"/>
<feBlend mode="normal" in2="BackgroundImageFix" result="effect1_dropShadow"/>
<feBlend mode="normal" in="SourceGraphic" in2="effect1_dropShadow" result="shape"/>
</filter>
</defs>
</svg>
