<svg width="319" height="412" viewBox="0 0 319 412" fill="none" xmlns="http://www.w3.org/2000/svg">
<rect y="62" width="14" height="350" fill="white"/>
<rect x="14" y="76" width="291" height="315" fill="#B3B3B3"/>
<rect x="38" y="76" width="243" height="315" fill="#767676"/>
<rect x="319" y="61" width="15" height="319" transform="rotate(90 319 61)" fill="white"/>
<path d="M26 0H293L319 61H0L26 0Z" fill="#C4C4C4"/>
<rect x="305" y="166" width="15" height="291" transform="rotate(90 305 166)" fill="white"/>
<path d="M38 105H281L305 166H14L38 105Z" fill="#C4C4C4"/>
<rect x="305" y="271" width="15" height="291" transform="rotate(90 305 271)" fill="white"/>
<path d="M38 210H281L305 271H14L38 210Z" fill="#C4C4C4"/>
<rect x="305" y="376" width="15" height="291" transform="rotate(90 305 376)" fill="white"/>
<path d="M38 315H281L305 376H14L38 315Z" fill="#C4C4C4"/>
<rect x="305" y="62" width="14" height="350" fill="white"/>
</svg>
